<svg width="110" height="24" viewBox="0 0 110 24" fill="none" xmlns="http://www.w3.org/2000/svg">
<path fill-rule="evenodd" clip-rule="evenodd" d="M101.644 23.5937C105.152 23.5493 108.27 20.0855 109.611 17.7496H109.615L107.492 15.6714C106.063 17.8829 103.9 20.0455 102.643 20.0455C100.303 20.0455 100.565 16.9281 103.292 9.17902H107.102L108.141 6.19039H104.375C105.068 4.32972 105.845 2.29586 106.755 0H102.945L100.649 6.19039H98.5266L97.5319 9.17902H99.6101C99.077 10.7337 98.6002 12.2461 98.2272 13.6703C95.6307 18.1957 92.9199 20.3925 89.0417 20.3925C86.7902 20.3925 85.2759 18.9226 85.2759 16.2804C85.2759 12.7766 87.443 9.09525 89.8232 9.09525C91.4219 9.09525 92.0747 11.0447 91.1644 13.7269H94.9745C96.3156 9.82798 94.5393 5.76025 90.2984 5.76025C85.7239 5.76025 81.9424 10.2736 81.4745 15.6048C79.6604 18.2895 77.7692 20.0461 76.451 20.0461C74.7191 20.0461 75.6694 17.1463 79.6528 6.19101H75.9314L75.2387 8.09609C74.6303 6.8882 72.8984 5.76025 71.0822 5.76025C66.5837 5.76025 62.9512 10.54 62.3401 15.7755C60.558 18.3659 58.7405 20.0499 57.4498 20.0499C55.1096 20.0499 55.3716 16.9325 58.0982 9.18341H61.9084L62.9475 6.19479H59.1817C59.8745 4.33412 60.6516 2.30026 61.562 0.00439453H57.7518L55.4559 6.19479H53.3333L52.3385 9.18341H54.4168C53.8565 10.8172 53.3585 12.4063 52.9782 13.8961C50.873 17.4112 48.5801 20.0403 46.9693 20.0403C46.321 20.0403 45.9302 19.6495 45.9302 18.9567C45.9302 17.9776 46.6583 16.5453 47.4512 14.9856C48.4097 13.1002 49.4627 11.0287 49.4384 9.34695C49.3984 7.18431 47.9685 5.75439 45.8903 5.75439C43.5944 5.75439 41.2142 7.18431 39.4823 9.91093L40.779 6.18959H37.0976C36.4935 7.9345 35.8936 9.68325 35.298 11.4347C33.9839 12.6156 32.1675 12.877 30.5571 12.3414V12.0395C30.5571 8.92207 28.6964 5.76025 24.8863 5.76025C19.9563 5.76025 16.2276 10.3261 15.5575 15.6484C13.32 18.8373 10.8835 20.3925 7.62033 20.3925C5.36887 20.3925 3.85456 18.9226 3.85456 16.2804C3.85456 12.7766 6.02164 9.09525 8.40188 9.09525C10.0005 9.09525 10.6533 11.0447 9.74299 13.7269H13.5532C14.8943 9.82798 13.118 5.76025 8.87704 5.76025C3.98334 5.76025 0 10.916 0 16.7156C0 21.0897 2.94422 23.5987 6.83876 23.5987C11.0221 23.5987 13.7669 21.9682 15.7819 19.6294C16.5237 21.9969 18.4674 23.5987 21.2093 23.5987C25.7123 23.5987 28.9584 19.833 30.1264 15.4588C31.479 15.7567 32.841 15.5887 34.0358 15.1689C33.1415 17.8306 32.257 20.4963 31.3823 23.1621H35.1925C36.6624 17.5757 40.215 9.17821 44.1539 9.17821C45.0643 9.17821 45.3662 9.69777 45.3662 10.5193C45.3662 11.5348 44.6968 12.8584 43.9618 14.3116C43.0673 16.0802 42.0756 18.0408 42.0756 19.8715L42.0801 19.8671C42.0801 22.0741 43.4212 23.5884 45.8458 23.5884C48.1232 23.5884 50.4005 21.6849 52.2217 19.3679C52.3415 21.9578 53.5173 23.5981 56.4507 23.5981C58.6122 23.5981 60.7723 21.843 62.5377 19.6521C63.1773 22.0511 64.8456 23.5987 67.1832 23.5987C69.8254 23.5987 71.2509 22.04 72.1613 20.6989C72.3344 21.9956 73.2448 23.5987 75.4519 23.5987C77.7296 23.5987 80.0074 21.6498 81.8222 19.2956C82.7499 22.0614 85.2161 23.5987 88.2645 23.5987C92.5905 23.5987 95.3781 21.8552 97.4112 19.3879C97.5359 21.9486 98.7037 23.5718 101.6 23.5937H101.644ZM26.7514 12.2526C26.7514 10.4364 25.9743 9.00644 24.3267 9.00644C21.6445 9.00644 19.2199 13.3362 19.2199 16.9287C19.2199 19.0514 20.2146 20.1749 21.6889 20.1749C24.3312 20.1749 26.7558 15.8452 26.7558 12.2526H26.7514ZM71.3841 9.13966C72.6808 9.13966 73.8088 9.91679 74.2839 10.9559V10.9604C72.5076 16.9332 70.7358 20.0506 68.4399 20.0506C66.8368 20.0506 66.0597 18.6206 66.0597 17.0619C66.0597 13.2962 68.1824 9.13966 71.3841 9.13966Z" fill="white"/>
</svg>
