<svg width="128" height="22" viewBox="0 0 128 22" fill="none" xmlns="http://www.w3.org/2000/svg">
<path fill-rule="evenodd" clip-rule="evenodd" d="M53.0197 0C46.9183 0 41.9519 4.93399 41.9519 10.9999C41.9519 17.0659 46.9183 21.9999 53.0197 21.9999C59.1212 21.9999 64.0875 17.0659 64.0875 10.9999C64.0875 4.93399 59.1212 0 53.0197 0ZM53.0197 19.5588C48.2727 19.5588 44.4114 15.7222 44.4114 11.0043C44.4114 6.2863 48.2727 2.44971 53.0197 2.44971C57.7667 2.44971 61.628 6.2863 61.628 11.0043C61.628 15.7222 57.7667 19.5588 53.0197 19.5588ZM53.0191 4.39844C49.3556 4.39844 46.3758 7.36229 46.3758 11.0001C46.3758 14.638 49.3556 17.6018 53.0191 17.6018C56.6825 17.6018 59.6623 14.638 59.6623 11.0001C59.6623 7.36229 56.6825 4.39844 53.0191 4.39844ZM53.0191 13.2252C51.7979 13.2252 50.8046 12.2271 50.8046 11.0001C50.8046 9.77311 51.7979 8.77508 53.0191 8.77508C54.2402 8.77508 55.2335 9.77311 55.2335 11.0001C55.2335 12.2271 54.2402 13.2252 53.0191 13.2252ZM92.7741 21.1483C94.1371 21.7143 95.6206 21.9995 97.2244 21.9995V21.9951C98.8283 21.9951 100.312 21.71 101.675 21.144C103.038 20.578 104.225 19.8003 105.235 18.8196C106.246 17.8389 107.032 16.6853 107.596 15.3632C108.159 14.0455 108.443 12.637 108.443 11.1464V11.0859C108.443 9.59537 108.159 8.19554 107.596 6.88211C107.032 5.56869 106.254 4.42376 105.265 3.45165C104.276 2.47522 103.098 1.70618 101.735 1.1402C100.372 0.574215 98.8885 0.289062 97.2847 0.289062C95.6808 0.289062 94.1974 0.574215 92.8343 1.1402C91.4713 1.70618 90.2845 2.47954 89.274 3.46461C88.2636 4.44968 87.4767 5.60325 86.9134 6.92532C86.3502 8.24739 86.0664 9.65154 86.0664 11.1421V11.2026C86.0664 12.6932 86.3502 14.093 86.9134 15.4064C87.4767 16.7198 88.255 17.8648 89.2439 18.8369C90.2329 19.8133 91.411 20.5824 92.7741 21.1483ZM99.4389 16.331C98.7853 16.6334 98.0586 16.7803 97.2674 16.7803L97.2631 16.776C96.472 16.776 95.7453 16.6205 95.0917 16.3137C94.4381 16.007 93.8792 15.5922 93.4105 15.0781C92.9418 14.5639 92.5806 13.9634 92.3226 13.2894C92.0646 12.6111 91.9357 11.8982 91.9357 11.1421V11.0816C91.9357 10.3255 92.0603 9.60834 92.3097 8.93434C92.5591 8.25603 92.916 7.66412 93.3804 7.15862C93.8491 6.65313 94.4038 6.25132 95.0487 5.95321C95.6937 5.6551 96.4161 5.5082 97.2073 5.5082C97.9984 5.5082 98.7251 5.66374 99.3787 5.97049C100.032 6.27725 100.596 6.68769 101.073 7.20615C101.55 7.72461 101.916 8.32083 102.174 8.99483C102.432 9.67314 102.561 10.386 102.561 11.1421V11.2026C102.561 11.9587 102.432 12.6759 102.174 13.3499C101.916 14.0282 101.559 14.6201 101.103 15.1256C100.647 15.6311 100.092 16.0329 99.4389 16.331ZM8.8997 0.712891H-0.000976562L0.00332748 0.717209V21.5851H5.76079V15.6229H8.60728C9.88864 15.6229 11.084 15.463 12.1805 15.1433C13.2769 14.8279 14.2229 14.3483 15.0141 13.7132C15.8052 13.0781 16.4201 12.2918 16.8673 11.3586C17.3102 10.4253 17.5338 9.34089 17.5338 8.10955V8.04906C17.5338 6.89549 17.3317 5.8629 16.9275 4.94696C16.519 4.03102 15.9428 3.26197 15.1904 2.6355C14.4379 2.00903 13.5263 1.53378 12.46 1.20543C11.3936 0.877069 10.2068 0.712891 8.8997 0.712891ZM10.9034 10.3519C10.3229 10.8401 9.51456 11.0864 8.4869 11.0864H5.75652V5.54319H8.4568C9.50596 5.54319 10.3186 5.77649 10.9034 6.24742C11.4882 6.71404 11.7806 7.40099 11.7806 8.29965V8.36014C11.7806 9.19831 11.4882 9.86366 10.9034 10.3519ZM25.7232 0.712891H19.9657V21.5808H25.7232V13.6484H33.1103V21.5808H38.8678V0.712891H33.1103V8.52431H25.7232V0.712891ZM72.2738 5.78081H66.0433V0.712891H84.2617V5.78081H78.0313V21.5808H72.2738V5.78081ZM119.597 21.9386C117.74 21.9386 115.972 21.6492 114.3 21.0702C112.627 20.4913 111.148 19.6185 109.862 18.4606L113.066 14.6068C115.142 16.2745 117.387 17.1127 119.799 17.1127C120.569 17.1127 121.158 16.9874 121.566 16.7411C121.975 16.4948 122.177 16.1405 122.177 15.6826V15.6221C122.177 15.4061 122.125 15.2116 122.027 15.0431C121.928 14.8746 121.743 14.7105 121.476 14.5506C121.21 14.3908 120.853 14.2395 120.41 14.0883C119.967 13.9414 119.386 13.7859 118.673 13.626C117.563 13.3668 116.536 13.086 115.585 12.7792C114.635 12.4725 113.81 12.075 113.109 11.5868C112.408 11.1029 111.853 10.498 111.449 9.77216C111.045 9.05064 110.843 8.15198 110.843 7.0805V7.02001C110.843 6.04791 111.023 5.15357 111.393 4.34132C111.759 3.52907 112.292 2.82483 112.997 2.2286C113.698 1.63238 114.545 1.17009 115.534 0.84605C116.523 0.522014 117.641 0.353516 118.888 0.353516C120.668 0.353516 122.254 0.58682 123.652 1.05775C125.045 1.52868 126.309 2.22428 127.436 3.14454L124.559 7.24036C123.609 6.56637 122.637 6.05223 121.635 5.70659C120.638 5.36095 119.67 5.18381 118.741 5.18381C118.049 5.18381 117.529 5.31343 117.185 5.57266C116.837 5.83188 116.665 6.14728 116.665 6.52316V6.58365C116.665 6.82127 116.721 7.02866 116.828 7.21012C116.936 7.38726 117.125 7.55143 117.391 7.70265C117.658 7.85387 118.023 8.00076 118.488 8.14766C118.952 8.29456 119.541 8.45009 120.255 8.60995C121.442 8.86918 122.512 9.17161 123.476 9.51725C124.434 9.86289 125.251 10.2863 125.922 10.7832C126.593 11.28 127.109 11.8806 127.466 12.5848C127.823 13.289 127.999 14.1272 127.999 15.0993V15.1598C127.999 16.2313 127.797 17.1818 127.393 18.0156C126.989 18.8495 126.417 19.558 125.686 20.1456C124.955 20.7289 124.073 21.1782 123.046 21.485C122.018 21.7917 120.87 21.9473 119.606 21.9473L119.597 21.9386Z" fill="white"/>
</svg>
