<svg width="152" height="22" viewBox="0 0 152 22" fill="none" xmlns="http://www.w3.org/2000/svg">
<path fill-rule="evenodd" clip-rule="evenodd" d="M84.7886 19.0888C84.7886 19.7555 85.2153 20.2586 85.5742 20.6817C85.8347 20.9888 86.0595 21.2538 86.0595 21.5087C86.0595 21.7666 85.8238 22 85.4072 22H80.2018C79.7894 22 79.5496 21.7707 79.5496 21.5087C79.5496 21.2541 79.7738 20.9901 80.034 20.6839C80.393 20.2613 80.8204 19.7584 80.8204 19.0888V3.42714C79.251 3.42714 79.0088 3.63258 78.4342 4.11985L78.4319 4.12182L78.3894 4.15786L78.3334 4.2051C78.2397 4.28392 78.154 4.35733 78.0747 4.42526L78.0743 4.4256L78.0737 4.42609C77.6016 4.83049 77.3566 5.04039 77.0037 5.04039C76.6796 5.04039 76.4692 4.78243 76.4692 4.4344V0.663318C76.4692 0.200634 76.646 0 77.1215 0C77.2748 0 77.4185 0.0268181 77.6132 0.0631602C78.0224 0.139529 78.657 0.257955 80.0798 0.257955H85.525C86.0005 0.257955 86.7664 0.171971 87.3597 0.0859851C87.8605 0.0286615 88.1593 0 88.336 0C88.8115 0 89.1356 0.286619 89.1356 0.749303V4.26242C89.1356 4.72511 88.8115 5.04039 88.336 5.04039C87.9531 5.04039 87.7132 4.81109 87.2125 4.23376C87.1657 4.1837 87.1226 4.13652 87.0819 4.09207C86.6077 3.57305 86.4744 3.42714 84.7844 3.42714V19.0888H84.7886ZM43.344 21.9969C42.9316 21.9969 42.6918 21.7676 42.6918 21.5056C42.6918 21.251 42.9161 20.987 43.1762 20.6809C43.5352 20.2583 43.9626 19.7553 43.9626 19.0857V3.16611C43.9626 2.49939 43.5359 1.99629 43.177 1.57314C42.9165 1.26605 42.6918 1.00107 42.6918 0.746227C42.6918 0.488271 42.9274 0.254883 43.344 0.254883H53.7001C54.4112 0.254883 54.7058 0.541501 54.7058 1.23348V4.5173C54.7058 4.94723 54.6174 5.09464 54.3818 5.26661C53.9063 5.61055 51.6002 7.13782 51.2468 7.13782C51.0111 7.13782 50.7418 6.90852 50.7418 6.58915V3.42406H48.3138C48.1076 3.42406 47.9308 3.59603 47.9308 3.768V10.8229L50.5651 9.20965C50.8302 9.03768 51.0995 8.92304 51.3351 8.92304C51.6886 8.92304 51.899 9.20966 51.899 9.52903V12.1782C51.899 12.6695 51.7812 12.8988 51.3351 13.1568L47.9308 15.2573V18.4797C47.9308 18.6803 48.1076 18.8237 48.3138 18.8237H50.7418V17.0098C50.7418 16.5798 50.8302 16.4324 51.0658 16.2605C51.5371 15.9165 53.8474 14.3893 54.2008 14.3893C54.4365 14.3893 54.7058 14.6186 54.7058 14.9379V21.0142C54.7058 21.7062 54.4112 21.9928 53.7001 21.9928H43.344V21.9969ZM29.1459 21.4758C29.1459 21.791 28.9103 21.9958 28.4937 21.9958H23.6418C23.1663 21.9958 22.9601 21.7665 22.9601 21.4758C22.9601 21.2676 23.1159 21.0893 23.2874 20.8931C23.4971 20.6532 23.7301 20.3865 23.7301 20.0058C23.7301 19.8052 22.7539 15.9195 22.7539 15.9195L17.397 18.7406V19.5186C17.397 20.2029 17.7931 20.61 18.1021 20.9275C18.2997 21.1305 18.4616 21.2969 18.4616 21.4758C18.4616 21.7624 18.2554 21.9958 17.7799 21.9958H12.5156C12.099 21.9958 11.8634 21.7951 11.8634 21.4758C11.8634 21.2712 12.0887 21.0451 12.3634 20.7694C12.7101 20.4214 13.1354 19.9946 13.2857 19.4326C13.5214 18.54 17.5443 3.16494 17.5443 2.27642C17.5443 1.97101 17.3057 1.64909 17.0941 1.36366C16.9256 1.13632 16.7742 0.932122 16.7742 0.777822C16.7742 0.462542 17.0098 0.257812 17.4264 0.257812H23.5492C23.9658 0.257812 24.2014 0.458447 24.2014 0.777822C24.2014 0.929805 24.0511 1.13296 23.8832 1.35972C23.6712 1.64613 23.4314 1.9702 23.4314 2.27642C23.4314 3.16904 27.0713 17.3034 27.3954 18.454C27.6882 19.5359 28.2829 20.2575 28.6964 20.7593C28.9543 21.0722 29.1417 21.2996 29.1417 21.4758H29.1459ZM21.8659 12.4923L20.4436 6.15806L18.4911 14.2489L21.8659 12.4923ZM11.2734 19.6627C11.2734 20.7559 10.1499 21.9965 8.34459 21.9965H2.81099C1.21192 21.9965 0 21.2186 0 19.7814V2.47785C0 1.03657 1.21192 0.262695 2.81099 0.262695H8.04583C9.79218 0.262695 10.9746 1.44193 10.9746 2.62525V5.38907C10.9746 5.819 10.8863 5.9664 10.6506 6.13837C10.1751 6.48231 7.86909 8.00958 7.51561 8.00958C7.27996 8.00958 7.01064 7.78028 7.01064 7.46091V3.80448C7.01064 3.60385 6.83391 3.43187 6.62771 3.43187H4.35113C4.14494 3.43187 3.96821 3.60385 3.96821 3.80448V18.4589C3.96821 18.6595 4.14494 18.8315 4.35113 18.8315H6.92647C7.13267 18.8315 7.30942 18.6595 7.30942 18.4589V16.0676C7.30942 15.6377 7.3978 15.4903 7.63345 15.3183C8.10896 14.9744 10.415 13.4471 10.7684 13.4471C11.0041 13.4471 11.2692 13.6764 11.2692 13.9958V19.6668L11.2734 19.6627ZM29.9417 14.3635V19.6332V19.6373C29.9417 20.8206 31.1242 21.9999 32.8705 21.9999H38.1054C39.5235 21.9999 40.9163 20.8165 40.9163 19.6373V13.7084C40.9163 12.4678 40.3819 11.8945 39.4057 11.2599L34.4654 7.94737C33.9898 7.60343 33.9015 7.37004 33.9015 6.96878V3.42699H36.6536V5.35553C36.6536 6.10483 36.8934 6.36278 37.1585 6.53475C37.2167 6.57152 37.2892 6.61853 37.3732 6.67295C38.019 7.09132 39.3402 7.94737 39.9695 7.94737C40.2683 7.94737 40.6218 7.60343 40.6218 7.08342V2.62037C40.6218 1.43704 39.4688 0.257812 37.693 0.257812H32.7527C31.1831 0.257812 29.9417 1.03168 29.9417 2.47296V8.20123C29.9417 9.47054 30.6823 10.0724 31.5408 10.6498L36.4221 13.9336C36.8093 14.1916 36.9566 14.4536 36.9566 14.8262V18.8266H33.9099V16.1201C33.9099 15.3708 33.6701 15.1128 33.4049 14.9409C32.9294 14.5928 31.3051 13.5282 30.7118 13.5282C30.2952 13.5282 29.9417 13.8435 29.9417 14.3635ZM64.1991 14.3635V19.6332V19.6373C64.1991 20.8206 65.3815 21.9999 67.1279 21.9999H72.3627C73.7809 21.9999 75.1738 20.8165 75.1738 19.6373V13.7084C75.1738 12.4678 74.6393 11.8945 73.663 11.2599L68.7228 7.94737C68.2473 7.60343 68.1589 7.37004 68.1589 6.96878V3.42699H70.911V5.35553C70.911 6.10483 71.1508 6.36278 71.4159 6.53475C71.474 6.57151 71.5466 6.61853 71.6306 6.67295C72.2763 7.09131 73.5976 7.94737 74.2269 7.94737C74.5257 7.94737 74.8792 7.60343 74.8792 7.08342V2.62037C74.8792 1.43704 73.7262 0.257812 71.9504 0.257812H67.0101C65.4405 0.257812 64.1991 1.03168 64.1991 2.47296V8.20123C64.1991 9.47054 64.9397 10.0724 65.7982 10.6498L70.6795 13.9336C71.0667 14.1916 71.2139 14.4536 71.2139 14.8262V18.8266H68.1673V16.1201C68.1673 15.3708 67.9274 15.1128 67.6623 14.9409C67.1868 14.5928 65.5625 13.5282 64.9692 13.5282C64.5526 13.5282 64.1991 13.8435 64.1991 14.3635ZM99.934 21.9958C101.739 21.9958 102.863 20.7838 102.863 19.6332L102.867 19.6373V3.16904C102.867 2.49945 103.294 1.99647 103.653 1.57387C103.914 1.26771 104.138 1.00374 104.138 0.74916C104.138 0.487109 103.898 0.257812 103.486 0.257812H98.2802C97.8636 0.257812 97.6279 0.491204 97.6279 0.74916C97.6279 1.004 97.8527 1.26898 98.1132 1.57607C98.4721 1.99922 98.8988 2.50232 98.8988 3.16904V18.63C98.8988 18.7447 98.8104 18.8307 98.6926 18.8307H95.4692C95.3514 18.8307 95.263 18.7447 95.263 18.63V3.16904C95.263 2.49945 95.6904 1.99647 96.0494 1.57387C96.3096 1.26771 96.5338 1.00374 96.5338 0.74916C96.5338 0.487109 96.294 0.257812 95.8816 0.257812H90.6762C90.2596 0.257812 90.024 0.491204 90.024 0.74916C90.024 1.004 90.2487 1.26898 90.5092 1.57607C90.8681 1.99922 91.2948 2.50232 91.2948 3.16904V19.7806C91.2948 21.2751 92.5656 21.9958 94.1058 21.9958H99.934ZM105.969 21.9969C105.556 21.9969 105.316 21.7676 105.316 21.5056C105.316 21.251 105.541 20.987 105.801 20.6809C106.16 20.2583 106.587 19.7553 106.587 19.0857V3.16611C106.587 2.49939 106.16 1.99629 105.802 1.57314C105.541 1.26605 105.316 1.00107 105.316 0.746227C105.316 0.488271 105.552 0.254883 105.969 0.254883H114.519C116.708 0.254883 117.743 1.23348 117.743 2.99004V19.7449C117.743 21.2149 116.531 21.9887 114.932 21.9887H105.969V21.9969ZM113.366 18.8318C113.69 18.8318 113.783 18.7745 113.783 18.4306V3.83352C113.783 3.60422 113.606 3.43225 113.366 3.43225H110.555V18.8359H113.366V18.8318ZM125.303 20.6816C124.944 20.2584 124.517 19.7553 124.517 19.0886V3.16904C124.517 2.49945 124.944 1.99647 125.303 1.57387C125.563 1.26771 125.788 1.00374 125.788 0.74916C125.788 0.487109 125.548 0.257812 125.135 0.257812H119.93C119.514 0.257812 119.278 0.491204 119.278 0.74916C119.278 1.004 119.503 1.26898 119.763 1.57607C120.122 1.99922 120.549 2.50232 120.549 3.16904V19.0886C120.549 19.7582 120.121 20.2612 119.762 20.6838C119.502 20.99 119.278 21.2539 119.278 21.5085C119.278 21.7706 119.518 21.9999 119.93 21.9999H125.135C125.552 21.9999 125.788 21.7665 125.788 21.5085C125.788 21.2537 125.563 20.9887 125.303 20.6816ZM127.623 21.9969C127.211 21.9969 126.971 21.7676 126.971 21.5056C126.971 21.251 127.195 20.987 127.455 20.6809C127.814 20.2583 128.242 19.7553 128.242 19.0857V3.16611C128.242 2.49939 127.815 1.99629 127.456 1.57314C127.196 1.26605 126.971 1.00107 126.971 0.746227C126.971 0.488271 127.207 0.254883 127.623 0.254883H137.979C138.69 0.254883 138.985 0.541501 138.985 1.23348V4.5173C138.985 4.94723 138.897 5.09464 138.661 5.26661C138.185 5.61055 135.879 7.13782 135.526 7.13782C135.29 7.13782 135.021 6.90852 135.021 6.58915V3.42406H132.593C132.387 3.42406 132.21 3.59603 132.21 3.768V10.8229L134.844 9.20965C135.109 9.03768 135.379 8.92304 135.614 8.92304C135.968 8.92304 136.178 9.20966 136.178 9.52903V12.1782C136.178 12.6695 136.06 12.8988 135.614 13.1568L132.21 15.2573V18.4797C132.21 18.6803 132.387 18.8237 132.593 18.8237H135.021V17.0098C135.021 16.5798 135.109 16.4324 135.345 16.2605C135.816 15.9165 138.127 14.3893 138.48 14.3893C138.716 14.3893 138.985 14.6186 138.985 14.9379V21.0142C138.985 21.7062 138.69 21.9928 137.979 21.9928H127.623V21.9969ZM141.025 14.3635V19.6332V19.6373C141.025 20.8206 142.208 21.9999 143.954 21.9999H149.189C150.607 21.9999 152 20.8165 152 19.6373V13.7084C152 12.4678 151.465 11.8945 150.489 11.2599L145.549 7.94737C145.073 7.60343 144.985 7.37004 144.985 6.96878V3.42699H147.737V5.35553C147.737 6.10483 147.977 6.36278 148.242 6.53475C148.3 6.57152 148.373 6.61854 148.457 6.67297C149.102 7.09135 150.424 7.94737 151.053 7.94737C151.352 7.94737 151.705 7.60343 151.705 7.08342V2.62037C151.705 1.43704 150.552 0.257812 148.776 0.257812H143.836C142.267 0.257812 141.025 1.03168 141.025 2.47296V8.20123C141.025 9.47054 141.766 10.0724 142.624 10.6498L147.506 13.9336C147.893 14.1916 148.04 14.4536 148.04 14.8262V18.8266H144.993V16.1201C144.993 15.3708 144.754 15.1128 144.488 14.9409C144.013 14.5928 142.389 13.5282 141.795 13.5282C141.379 13.5282 141.025 13.8435 141.025 14.3635Z" fill="white"/>
</svg>
