<svg width="82" height="37" viewBox="0 0 82 37" fill="none" xmlns="http://www.w3.org/2000/svg">
<path d="M56.846 22.1903L56.0195 22.3515C55.2428 22.493 54.688 22.6659 54.3513 22.8703C53.7812 23.2162 53.498 23.7508 53.498 24.4779C53.498 25.1225 53.6741 25.5903 54.0261 25.8733C54.3704 26.1641 54.7913 26.3096 55.2926 26.3096C56.0846 26.3096 56.8154 26.0698 57.485 25.5942C58.1507 25.1147 58.4989 24.246 58.5257 22.9804V21.5732C58.2923 21.7226 58.0589 21.8445 57.8217 21.9388C57.5845 22.0331 57.2592 22.1196 56.846 22.1982V22.1903Z" fill="white"/>
<path d="M74.535 0.827148H15.0945C10.9698 0.827148 7.62951 4.26246 7.62951 8.49567V17.9133H7.61421V28.6516C7.61421 32.9791 4.20886 36.4852 0 36.5009H7.65247C8.89982 36.5009 10.0745 36.1904 11.1152 35.644C12.2669 36.3909 13.6329 36.8271 15.0945 36.8271H74.535C78.6597 36.8271 82 33.3918 82 29.1586V8.4996C82 4.26246 78.6559 0.83108 74.535 0.83108V0.827148ZM20.3441 23.9742C21.2279 25.0669 22.349 25.6133 23.7112 25.6133C25.0733 25.6133 26.1714 25.1455 26.9022 24.2061C27.3078 23.703 27.6445 22.9444 27.9085 21.9382H31.8496C31.5052 24.0725 30.6252 25.8059 29.2133 27.1422C27.7899 28.4786 25.9725 29.1468 23.7609 29.1468C21.0213 29.1468 18.8672 28.2428 17.2984 26.4387C15.7297 24.6228 14.9453 22.1386 14.9453 18.9785C14.9453 15.5628 15.8368 12.9293 17.6198 11.078C19.1694 9.46652 21.1438 8.66075 23.539 8.66075C26.7454 8.66075 29.087 9.74166 30.5678 11.8995C31.3866 13.1141 31.8266 14.3286 31.8878 15.551H27.9085C27.6522 14.6116 27.3193 13.9041 26.9137 13.4285C26.1906 12.5795 25.1154 12.155 23.6959 12.155C22.2763 12.155 21.1055 12.7564 20.2714 13.9552C19.4373 15.154 19.0164 16.852 19.0164 19.0453C19.0164 21.2385 19.4564 22.8855 20.3402 23.9781L20.3441 23.9742ZM47.319 28.6005H43.5578V19.8C43.5578 19.0217 43.4278 18.3928 43.1714 17.9133C42.8347 17.2412 42.1995 16.9031 41.2583 16.9031C40.317 16.9031 39.5441 17.2372 39.0429 17.9054C38.5378 18.5736 38.2853 19.5288 38.2853 20.7669V28.6005H34.6159V9.10098H38.2853V16.0188C38.821 15.1776 39.437 14.592 40.141 14.2618C40.8412 13.9316 41.5835 13.7626 42.3564 13.7626C43.225 13.7626 44.017 13.9159 44.7287 14.2264C45.4404 14.5369 46.0219 15.0086 46.4811 15.6454C46.8675 16.1838 47.1047 16.742 47.1927 17.3119C47.2769 17.8818 47.3228 18.8134 47.3228 20.1065V28.6044L47.319 28.6005ZM62.9951 28.6005H58.989C58.8781 28.3096 58.7977 28.0345 58.7556 27.779C58.7135 27.5235 58.6791 27.2287 58.6523 26.9025C58.1434 27.4685 57.558 27.9519 56.8961 28.3489C56.1041 28.8167 55.2087 29.0525 54.2101 29.0525C52.9359 29.0525 51.8799 28.6791 51.0496 27.9323C50.2193 27.1855 49.8022 26.1242 49.8022 24.7525C49.8022 22.9719 50.468 21.6866 51.8072 20.8887C52.538 20.4564 53.617 20.1459 55.0365 19.9611L56.2915 19.8039C56.9726 19.7135 57.4585 19.6034 57.7532 19.4737C58.2774 19.2418 58.5414 18.8841 58.5414 18.3968C58.5414 17.8032 58.3424 17.3945 57.9406 17.1704C57.5389 16.9464 56.9535 16.8324 56.1768 16.8324C55.3082 16.8324 54.6922 17.0525 54.3287 17.4967C54.0685 17.8229 53.8963 18.267 53.8121 18.8252H50.2576C50.3341 17.5595 50.6785 16.5179 51.2907 15.7043C52.2625 14.4308 53.9346 13.7941 56.303 13.7941C57.845 13.7941 59.2148 14.1085 60.4124 14.7374C61.61 15.3663 62.2069 16.5533 62.2069 18.2946V24.9333C62.2069 25.3931 62.2146 25.9513 62.2337 26.6077C62.2605 27.1029 62.3332 27.441 62.4518 27.6178C62.5704 27.7947 62.7541 27.9402 62.9951 28.0541V28.6123V28.6005ZM71.9255 16.9582H69.6374V24.6031C69.6374 25.1966 69.7101 25.5661 69.8555 25.7115C70.0009 25.857 70.4486 25.9316 71.1986 25.9316C71.3095 25.9316 71.4281 25.9316 71.5544 25.9238C71.6807 25.9198 71.8031 25.912 71.9217 25.9041V28.7302L70.1769 28.797C68.436 28.8599 67.246 28.5494 66.6109 27.8694C66.1976 27.437 65.991 26.7688 65.991 25.8648V16.9582H64.0282V14.2618H65.991V10.2251H69.6336V14.2618H71.9217V16.9582H71.9255Z" fill="white"/>
</svg>
