<svg width="88" height="40" viewBox="0 0 88 40" fill="none" xmlns="http://www.w3.org/2000/svg">
<path fill-rule="evenodd" clip-rule="evenodd" d="M19.4748 4.89932C16.5323 13.2199 13.6887 21.5736 10.9401 29.9067H10.936H5.3728C5.91648 28.3049 6.45954 26.7022 7.00278 25.099C9.28432 18.3658 11.5691 11.6231 13.9157 4.89932H5.55852L7.2382 0H29.5984L27.9187 4.89932H19.4748ZM75.0499 25.5261C75.9124 25.5261 77.7654 23.6619 79.2305 21.5817H79.2347C83.0522 17.0478 91.0586 21.1209 86.7706 29.2214C82.5074 37.2803 77.5632 40.0372 69.1152 39.9999L0 39.7217C1.31652 35.8437 4.93592 33.2405 9.00516 33.2405H73.2381C77.914 33.2405 82.3258 30.7078 84.4141 26.4935C85.6811 23.9359 83.7496 21.7893 81.9502 24.3594C80.6172 26.7883 76.9524 30.3424 73.2918 30.3424C70.5349 30.3424 69.1977 28.6484 69.1977 26.4395C69.1977 24.5386 70.2297 22.5092 71.1035 20.7909C71.745 19.5293 72.3013 18.4354 72.3013 17.683C72.3013 17.1599 72.0867 16.7281 71.4841 16.7281C68.4219 16.7281 65.2358 25.9621 64.072 29.9064H59.1154C59.9468 27.4937 60.6199 25.5863 61.1581 24.0609C62.5437 20.1344 63.0361 18.7391 63.0361 17.7702C63.0361 17.2055 62.6894 16.7281 62.1736 16.7281C58.9565 16.7281 56.2098 25.5387 54.866 29.849L54.8481 29.9064H49.7636C49.8307 29.7094 49.897 29.5123 49.9632 29.3155C50.0518 29.0522 50.1402 28.7894 50.23 28.528C48.9135 29.6199 47.4979 30.3382 46.0575 30.3382C44.1178 30.3382 42.7394 29.0387 42.4382 27.436C41.361 29.1259 39.735 30.3382 37.5683 30.3382C35.4016 30.3382 33.8333 29.0885 33.14 26.8672C31.1714 28.939 28.5218 30.3382 24.3412 30.3382C20.1605 30.3382 16.5411 28.0837 16.5411 23.2716C16.5411 17.6373 20.3751 12.1318 26.2767 12.1318C29.7228 12.1318 31.7038 14.6894 31.7038 17.463C31.7038 22.7111 25.7155 24.8327 21.7081 23.9234C22.0548 25.3559 23.2186 26.178 25.4142 26.178C28.5961 26.178 30.6885 25.0901 32.9997 21.4489C33.9778 16.5703 37.5765 12.136 41.6128 12.136C43.2924 12.136 44.9267 13.1325 45.5747 14.3033L46.1772 12.5678H51.2617C51.0486 13.1405 50.8436 13.6904 50.6469 14.2182C47.4642 22.7568 46.432 25.5261 47.8157 25.5261C49.2849 25.5261 51.6414 22.6114 53.643 18.4013C53.8139 17.8943 53.9842 17.3872 54.1544 16.8803C54.638 15.4405 55.1212 14.0019 55.6157 12.5678H60.6548L59.3631 16.0347C61.5999 13.174 63.5396 12.1318 65.3926 12.1318C67.4603 12.1318 68.6695 13.7802 68.4095 15.989C69.8333 13.4314 72.3302 12.1318 74.2699 12.1318C76.2096 12.1318 77.72 13.6058 77.7613 15.5987C77.813 17.5394 76.6367 19.8974 75.6802 21.8149C75.0343 23.1096 74.4886 24.2035 74.4886 24.8327C74.4886 25.2645 74.7073 25.5261 75.0499 25.5261ZM27.098 17.6373C27.1434 16.6865 26.6688 16.2091 25.8929 16.2091C23.9945 16.2091 22.3602 18.2477 21.7989 20.8468C24.1678 20.9299 27.0113 19.6303 27.098 17.6373ZM38.0016 23.4501C38.0016 24.6625 38.4762 25.5718 39.5946 25.5718V25.5759C41.1464 25.5759 42.8261 23.147 44.5058 17.7287C43.862 17.0768 43.1274 16.645 42.2235 16.645C39.7267 16.645 38.0016 20.5479 38.0016 23.4501Z" fill="white"/>
</svg>
