<svg width="90" height="24" viewBox="0 0 90 24" fill="none" xmlns="http://www.w3.org/2000/svg">
<path fill-rule="evenodd" clip-rule="evenodd" d="M11.9969 24V21.0132H15.0094V12H8.98449V15.0132H11.9969V21.0132H2.98602V3.01322H11.9969V6H15.0094V3.01322H11.9969V0H2.98602V3.01322H0V21.0132H2.98602V24H11.9969ZM29.9833 12H26.9972V6H29.9833V12ZM20.9723 12H17.9863V24H20.9988V18H29.9833V24H32.9957V12H29.9833V15.0132H20.9723V12ZM23.9848 6V0H26.9972V6H23.9848ZM23.9848 6H20.9723V12H23.9848V6ZM47.9696 12V9.01322H50.9556V6H53.9681V24H56.9805V0H53.9681V3.01322H50.9556V6H47.9696V9.01322H44.9571V6H41.9711V3.01322H38.9587V0H35.9727V24H38.9851V6H41.9711V9.01322H44.9571V12H47.9696ZM71.9696 24H59.9727V0H71.9696V3.01322H62.9587V9.01322H68.9836V12H62.9587V21.0132H71.9696V24ZM86.9872 21.0132V12H89.9996V21.0132H86.9872ZM77.9763 21.0132H86.9872V24H77.9763V21.0132ZM77.9763 21.0132H74.9902V18H77.9763V21.0132ZM77.9763 2.98679H74.9902V9.01322H77.9763V12H86.9872V8.98678H77.9763V2.98679ZM86.9872 2.98679H77.9763V0H86.9872V2.98679ZM86.9872 2.98679H89.9996V6H86.9872V2.98679Z" fill="white"/>
</svg>
