<svg width="138" height="49" viewBox="0 0 138 49" fill="none" xmlns="http://www.w3.org/2000/svg">
<path fill-rule="evenodd" clip-rule="evenodd" d="M119.103 18.201C120.755 18.2051 136.577 18.2051 136.577 18.2051L136.581 18.2091C137.587 18.1889 137.983 19.5667 137.102 20.0743C135.636 20.9364 134.17 21.7985 132.712 22.6807C128.511 25.2106 124.318 27.7566 120.202 30.4316C120.501 36.007 121.091 41.5623 121.741 47.1096C121.806 47.6534 121.422 48.1489 120.881 48.2174C120.582 48.2577 120.299 48.1529 120.089 47.9636C120.089 47.9636 109.252 38.5691 108.282 37.7272C107.01 38.4362 105.75 39.1613 104.498 39.9066C101.581 41.6469 98.669 43.4517 95.8294 45.3169C94.4157 46.2716 93.0303 47.2667 91.7337 48.4108C90.2877 49.6153 88.4417 47.5567 89.8393 46.2394C89.9645 46.1266 90.114 46.042 90.2594 45.9816C92.2467 45.192 94.1411 44.1567 95.9789 43.0972C100.006 40.7163 104.021 38.2912 107.887 35.6485C108.258 35.3906 108.747 35.447 109.062 35.7452C109.062 35.7452 116.946 42.5815 119.584 44.8697C119.241 39.8985 118.825 34.9314 118.17 29.9925C118.118 29.5936 118.316 29.223 118.647 29.0417C120.125 28.1957 121.592 27.3296 123.05 26.4514C125.962 24.6869 128.862 22.8983 131.746 21.0895C132.21 20.7998 132.67 20.5062 133.13 20.2126L133.132 20.2113H118.195C117.674 20.2113 117.245 19.8084 117.197 19.2968L115.912 5.18897L107.701 19.6996C107.515 20.0219 107.176 20.2072 106.828 20.2072H91.4711C91.41 20.3143 91.3475 20.4233 91.2839 20.5343C91.1248 20.8117 90.9587 21.1016 90.7885 21.4037C88.1832 26.0284 85.7193 31.4951 85.7193 33.8759C85.7193 34.1061 85.818 34.3508 85.907 34.5714C85.98 34.7524 86.0465 34.9171 86.0465 35.0442C86.0465 35.4672 85.6304 36.1198 84.9316 36.1198C84.0955 36.1198 83.631 35.4672 83.631 34.1579C83.631 33.3321 83.8895 32.184 84.3056 30.8747C82.2658 32.7721 79.9311 34.4359 78.376 34.4359C77.3985 34.4359 76.3281 33.5939 76.3281 31.9584C76.3281 29.8998 78.6991 25.3234 79.0707 24.6225C79.6322 23.6919 80.0967 22.9426 80.747 22.9426C81.3973 22.9426 81.9103 23.3132 81.9103 23.9215C81.9103 24.4652 81.6833 24.7852 81.4463 25.1191C81.3988 25.186 81.351 25.2535 81.3044 25.3234C79.9553 27.519 78.6547 30.7418 78.6547 31.6764C78.6547 32.0067 78.8849 32.4257 79.305 32.4257C80.5572 32.4257 83.9097 29.2472 85.4891 27.1C85.6466 26.9026 85.8122 26.7012 85.9738 26.5118C86.5756 25.126 88.1913 21.6857 89.0597 20.2032H87.0684C85.6708 20.2032 84.2692 20.3684 82.9484 20.8155C82.807 20.8639 82.6737 20.888 82.5647 20.888C81.8215 20.888 81.5427 19.9091 81.5427 19.2082C81.5427 18.4629 82.29 17.5283 83.3119 17.5283C83.4735 17.5283 83.635 17.5524 83.7845 17.6129C84.863 18.06 86.0505 18.193 87.2219 18.193H90.1988C90.3343 17.9488 90.4624 17.717 90.5841 17.4966C91.3443 16.1211 91.8593 15.189 92.4163 14.4424C93.208 13.3225 93.7654 12.7626 94.4642 12.7626C95.3003 12.7626 95.6275 13.1372 95.6275 13.8382C95.6275 14.4465 95.4417 14.8171 94.5127 15.5664C94.1007 15.8605 93.5109 16.7306 92.6385 18.201H106.247L115.723 1.45052C115.953 1.03962 116.446 0.81402 116.878 0.934875C117.31 1.05573 117.577 1.42232 117.613 1.81309C117.613 1.81309 118.954 16.5614 119.103 18.201ZM56.0482 28.5985C58.6535 25.4683 61.6304 22.8055 64.2801 22.8055V22.8216C65.4878 22.8216 66.2795 23.7119 66.2795 25.0655C66.2795 28.9892 62.6967 34.3149 59.1624 34.3149C57.4417 34.3149 57.0216 33.5213 57.0216 32.6794C57.0216 32.1194 57.5346 31.5111 58.2778 31.5111C58.4879 31.5111 58.6969 31.6279 58.9059 31.7447C59.1149 31.8616 59.324 31.9784 59.534 31.9784C61.2547 31.9784 63.86 28.0063 63.86 25.8108C63.86 25.3434 63.444 25.0615 63.0239 25.0615C62.1393 25.0615 60.1399 26.8823 57.8618 29.4042C56.9772 30.3831 55.9997 32.1113 55.9997 32.8123C55.9997 33.6059 54.9737 34.5405 54.4163 34.5405C53.8145 34.5405 53.3015 34.2626 53.3015 32.627C53.3015 31.7367 53.3621 30.8262 53.4671 29.9037C51.2294 32.2443 48.0788 34.6372 44.0921 34.6372C42.6299 34.6372 41.3858 33.5374 41.2646 31.6642C39.4632 33.2796 37.5082 34.5889 35.9975 34.5889C34.1354 34.5889 32.5076 33.2353 32.5076 30.9914C32.5076 30.846 32.5153 30.693 32.5232 30.5361L32.5238 30.5241C30.3386 32.6431 27.398 34.6332 23.7668 34.6332C22.4217 34.6332 21.2503 33.6945 20.9878 32.0751C16.8718 36.2647 11.3583 40.7525 6.37389 40.7525C2.46393 40.7525 0 38.3233 0 33.9322C0 21.8346 13.9515 8.84674 22.2319 8.84674C24.4655 8.84674 26.0449 9.874 26.0449 12.2548C26.0449 16.2713 20.9757 21.8306 18.5117 21.8306C17.5383 21.8306 17.1182 21.5003 17.1182 20.8476C17.1182 20.2877 17.3525 19.4941 18.7945 19.1678C20.8424 18.7005 23.5406 15.103 23.5406 12.2992C23.5406 11.5055 23.076 10.9456 22.0986 10.9456C15.5429 10.9456 2.56492 23.3211 2.56492 33.7388C2.56492 36.4017 4.05539 38.4562 6.42641 38.4562C12.2994 38.4562 18.54 32.5786 21.9208 28.53C23.7344 24.86 26.7073 23.0432 28.9814 23.0432C29.9589 23.0432 31.0293 23.7925 31.0293 24.8197C31.0293 27.2489 27.1234 30.0044 24.0536 30.7054C23.4477 30.8464 23.2619 31.1727 23.2619 31.499C23.2619 31.8737 23.6779 32.7599 24.5625 32.7599C28.3432 32.7599 31.3847 29.3881 33.0933 27.3094C34.1152 23.4259 36.3126 18.5957 38.2352 15.2883C41.0223 10.5226 43.1186 8.2344 45.7684 8.2344C46.8872 8.2344 47.6305 9.16901 47.6305 10.1479C47.6305 11.5015 46.9801 14.3497 43.6316 18.6481C41.0263 21.9635 38.7926 23.9254 36.3287 25.8873C35.5855 27.1966 34.9352 29.7667 34.9352 30.7457C34.9352 31.9139 35.4441 32.5666 36.3287 32.5666C37.9646 32.5666 40.8244 30.0004 42.5653 27.9217C44.3991 24.6546 47.1619 23.0351 49.3067 23.0351C50.2842 23.0351 51.3546 23.7844 51.3546 24.8117C51.3546 27.2409 47.4487 29.9964 44.3789 30.6973C43.773 30.8383 43.5872 31.1646 43.5872 31.4909C43.5872 31.8656 44.0032 32.7519 44.8878 32.7519C48.7937 32.7519 51.912 29.1544 53.5843 27.0999L53.6582 27.0085L53.6584 27.0082L53.6588 27.0078C53.7885 26.8473 53.9207 26.6839 54.0528 26.5319C54.9657 22.5154 56.6217 18.4789 58.4677 15.0506C61.2103 10.0029 63.5369 7.62207 66.1866 7.62207C67.3014 7.62207 68.0931 8.60503 68.0931 9.63229C68.0931 13.3224 64.1872 19.8163 56.9772 25.4683C56.6056 26.121 56.0966 27.9459 56.0482 28.5985ZM65.399 9.77329C64.7446 9.77329 62.6078 11.5499 60.56 15.5663H60.564C59.0291 18.5554 58.0072 21.2183 57.5871 22.3865C62.6079 18.6481 66.0048 11.8278 66.0048 10.3333C66.0048 10.0069 65.819 9.77329 65.399 9.77329ZM49.0724 25.6093C49.0724 25.3273 48.9795 25.142 48.7008 25.142H48.6968C47.582 25.142 45.118 27.6155 44.2335 29.0174C45.9097 28.6911 49.0724 26.4029 49.0724 25.6093ZM44.9363 10.5186C44.3748 10.5186 42.331 12.1541 40.0044 16.3116V16.3075C38.0979 19.7197 37.492 21.5405 37.2133 22.5678C38.1423 21.8225 40.0973 19.8607 42.0038 17.2905C44.4718 14.0193 45.4008 11.9165 45.4008 10.9375C45.4008 10.6596 45.2635 10.5186 44.9363 10.5186ZM24.2925 28.4768L24.2919 28.4776L24.2878 28.4736C24.1464 28.667 24.0172 28.8482 23.9122 29.0134C25.5884 28.6871 28.7511 26.3989 28.7511 25.6053C28.7511 25.3233 28.6582 25.138 28.3795 25.138C27.6242 25.138 26.2468 26.2781 25.1643 27.4463C25.0472 27.5914 24.9139 27.7525 24.7523 27.9418C24.6071 28.1148 24.4498 28.2958 24.2925 28.4768L24.2925 28.4768ZM75.2977 22.6646C76.3232 22.6646 77.0663 23.2724 77.0669 24.4397C77.0665 26.0299 76.6945 27.3819 75.3462 27.3819C74.8372 27.3819 74.4171 27.0073 74.4171 26.4473C74.4171 26.2075 74.5243 25.9057 74.616 25.6476L74.616 25.6475L74.616 25.6474C74.6845 25.4547 74.7443 25.2863 74.7443 25.1864C74.7443 25.0454 74.6999 24.9527 74.4656 24.9527C73.8597 24.9527 70.8828 27.8009 69.3479 30.0448C68.9278 30.6531 68.4189 31.6803 67.9988 32.7076C67.6272 33.6422 67.2071 34.5285 66.9284 34.5285C66.371 34.5285 65.7207 34.0128 65.7207 33.3602C65.7207 32.8446 66.371 30.931 67.1142 29.2028C67.9019 27.3336 68.5522 25.6054 68.7865 24.7634C69.1581 23.5508 69.4852 22.8499 70.2285 22.8499C70.8303 22.8499 71.2504 23.1762 71.2504 23.6918C71.2504 24.0181 70.8788 25.0454 70.4587 26.121C72.3692 24.1591 74.09 22.6646 75.2977 22.6646ZM95.0684 23.9253C95.0684 23.317 94.5554 22.9464 93.9051 22.9464C93.2548 22.9464 92.7903 23.6957 92.2329 24.6263C91.8612 25.3273 89.4902 29.9036 89.4902 31.9622C89.4902 33.5978 90.5606 34.4397 91.5381 34.4397C92.9235 34.4397 94.931 33.1144 96.7972 31.4788C96.8497 33.4568 98.1261 34.625 99.6287 34.625C104.233 34.625 107.727 31.4304 109.977 28.82C110.312 29.2188 110.785 29.5209 111.254 29.7707C111.952 30.1453 112.788 30.6127 112.788 31.4506C112.788 32.2442 112.183 32.9935 111.302 32.9935C110.559 32.9935 110.139 32.6188 110.139 31.9662C110.139 31.3136 109.674 31.08 109.161 31.08C108.511 31.08 108.046 31.5956 108.046 32.2966C108.046 33.4648 109.254 34.6331 111.023 34.6331C113.766 34.6331 115.208 32.8565 115.208 31.225C115.208 29.5033 113.941 28.8372 112.973 28.3283L112.881 28.2802C112.324 27.9982 111.859 27.6275 111.859 27.2529C111.859 26.0846 113.952 24.7754 114.558 24.7754C114.836 24.7754 114.978 24.9164 114.978 25.1017C114.978 25.2787 114.863 25.4556 114.742 25.6424C114.607 25.851 114.465 26.0717 114.465 26.3183C114.465 26.9709 114.836 27.2972 115.487 27.2972C116.509 27.2972 117.163 25.6173 117.163 24.5417C117.163 23.5588 116.141 22.8135 115.256 22.8135C113.499 22.8135 110.623 24.3645 109.751 26.3545C109.575 26.5466 109.402 26.7604 109.229 26.9736C109.192 27.0198 109.154 27.066 109.117 27.1119C107.445 29.1664 104.326 32.7639 100.42 32.7639C99.5358 32.7639 99.1197 31.8776 99.1197 31.503C99.1197 31.1766 99.3055 30.8503 99.9114 30.7093C102.981 30.0084 106.887 27.2529 106.887 24.8237C106.887 23.7964 105.817 23.0471 104.839 23.0471C102.787 23.0471 100.174 24.5296 98.3442 27.5147C96.672 29.6337 93.6466 32.4376 92.4671 32.4376C92.0471 32.4376 91.8168 32.0186 91.8168 31.6883C91.8168 30.7537 93.1174 27.5308 94.4665 25.3353C94.513 25.2654 94.5609 25.1979 94.6084 25.131C94.8453 24.7971 95.0724 24.4771 95.0724 23.9334L95.0684 23.9253ZM104.229 25.142C104.508 25.142 104.601 25.3273 104.601 25.6093C104.601 26.4029 101.438 28.6911 99.762 29.0174C100.647 27.6155 103.11 25.142 104.225 25.142H104.229Z" fill="white"/>
</svg>
