<svg width="114" height="18" viewBox="0 0 114 18" fill="none" xmlns="http://www.w3.org/2000/svg">
<path fill-rule="evenodd" clip-rule="evenodd" d="M8.90472 0.295898C3.88072 0.295898 0.136719 4.0079 0.136719 8.8719C0.136719 14.1199 4.36072 17.3839 9.12872 17.3839C12.2647 17.3839 14.7607 15.9119 15.8807 14.8559L14.4407 11.9759C13.5447 12.6799 11.6567 13.9599 9.35272 13.9599C6.56872 13.9599 4.23272 12.1359 4.23272 8.7759C4.23272 5.7999 6.05672 3.7519 9.03272 3.7519C10.4087 3.7519 12.0727 4.2319 12.0727 5.3519V6.4399H15.5927V4.1999C15.5927 1.3199 11.6247 0.295898 8.90472 0.295898ZM17.7885 12.4239C17.7885 7.4319 24.3485 6.9199 26.9725 6.9199H27.9965V6.3759C27.9965 4.2959 26.6845 3.5599 24.9885 3.5599C23.7405 3.5599 22.6525 3.9439 21.7885 4.3279C21.2765 4.5519 20.7965 4.8399 20.3805 5.1279L18.8765 2.3119C19.3885 1.9279 19.9645 1.5759 20.6365 1.2879C21.7565 0.775898 23.3885 0.295898 25.3405 0.295898C29.7245 0.295898 32.0605 2.5359 32.0605 6.7279V13.2559C32.0605 13.7359 32.2845 13.9599 32.7645 13.9599H34.2365V16.9999H30.3965C28.8925 16.9999 28.3165 16.1999 28.3165 15.2719V15.0799C28.3165 14.8239 28.3485 14.6319 28.3805 14.4719C28.4125 14.3759 28.4125 14.3119 28.4125 14.2479H28.3485C28.0605 14.8239 27.6765 15.3359 27.1965 15.8159C26.3325 16.6159 25.1165 17.3839 23.1965 17.3839C20.3805 17.3839 17.7885 15.7519 17.7885 12.4239ZM21.8845 12.1039C21.8845 13.3519 22.7485 14.3439 24.2525 14.3439C26.4605 14.3439 28.0285 11.9759 28.0285 9.9279V9.3839H27.3565C25.7245 9.3839 21.8845 9.6399 21.8845 12.1039ZM50.3562 8.8399C50.3562 3.8159 53.7482 0.295898 58.6442 0.295898C63.3482 0.295898 65.9082 3.7199 65.9082 8.0399C65.9082 8.2639 65.9082 8.6159 65.8762 8.9039L65.8122 9.4159H54.5162C54.7722 12.3919 56.9482 13.9599 59.4122 13.9599C60.7882 13.9599 61.9082 13.5759 62.7722 13.0959C63.2842 12.8399 63.7322 12.5519 64.1482 12.2319L65.7162 15.1119C65.2362 15.5279 64.6282 15.8799 63.9562 16.2319C62.8042 16.8399 61.1722 17.3839 59.1242 17.3839C53.7162 17.3839 50.3562 13.4479 50.3562 8.8399ZM54.6122 7.0159H61.7162C61.6202 4.7439 60.3082 3.4319 58.5482 3.4319C56.4682 3.4319 54.9962 4.8399 54.6122 7.0159ZM76.488 0.295898C71.592 0.295898 68.2 3.8159 68.2 8.8399C68.2 13.4479 71.56 17.3839 76.968 17.3839C79.016 17.3839 80.648 16.8399 81.8 16.2319C82.472 15.8799 83.08 15.5279 83.56 15.1119L81.992 12.2319C81.576 12.5519 81.128 12.8399 80.616 13.0959C79.752 13.5759 78.632 13.9599 77.256 13.9599C74.792 13.9599 72.616 12.3919 72.36 9.4159H83.656L83.72 8.9039C83.752 8.6159 83.752 8.2639 83.752 8.0399C83.752 3.7199 81.192 0.295898 76.488 0.295898ZM79.56 7.0159H72.456C72.84 4.8399 74.312 3.4319 76.392 3.4319C78.152 3.4319 79.464 4.7439 79.56 7.0159ZM100.294 13.4479V11.5599H103.75V12.5199C103.75 13.6399 105.254 14.2159 106.95 14.2159C108.582 14.2159 109.734 13.6719 109.734 12.5519C109.734 11.317 108.437 10.8655 106.538 10.2046C106.371 10.1462 106.198 10.0862 106.022 10.0239C103.654 9.1599 100.87 8.1039 100.87 4.9679C100.87 1.5119 104.358 0.295898 107.302 0.295898C109.67 0.295898 113.19 1.2239 113.19 3.6879V5.7679H109.702V4.8399C109.702 3.9759 108.742 3.4959 107.302 3.4959C106.022 3.4959 104.934 3.9439 104.934 4.9679C104.934 6.3119 106.534 6.8879 108.358 7.3999C110.854 8.1679 113.798 9.2239 113.798 12.4239C113.798 15.7519 110.662 17.3839 106.918 17.3839C103.974 17.3839 100.294 16.1039 100.294 13.4479ZM86.3957 16.9999V13.9599H88.7637V4.4239C88.7637 3.9439 88.5397 3.7199 88.0597 3.7199H86.2357V0.679901H90.4917C91.9317 0.679901 92.6677 1.3519 92.6677 2.6639V3.6239C92.6677 3.9119 92.6677 4.1359 92.6357 4.3599C92.6037 4.4559 92.6037 4.5519 92.6037 4.6479H92.6677C93.4357 2.3119 95.3237 0.455902 97.8517 0.455902C98.0757 0.455902 98.2357 0.455902 98.3637 0.487902C98.4597 0.519901 98.5237 0.519901 98.5877 0.519901V4.5199C98.4917 4.5199 98.3957 4.5199 98.2997 4.4879C98.0757 4.4559 97.8837 4.4559 97.5957 4.4559C94.2997 4.4559 92.8277 7.3359 92.8277 10.4079V13.9599H95.1637V16.9999H86.3957ZM36.4582 13.9599V16.9999H45.2262V13.9599H42.8902V10.4079C42.8902 7.3359 44.3622 4.4559 47.6582 4.4559C47.9462 4.4559 48.1382 4.4559 48.3622 4.4879C48.4582 4.5199 48.5542 4.5199 48.6502 4.5199V0.519901C48.5862 0.519901 48.5222 0.519901 48.4262 0.487902C48.2982 0.455902 48.1382 0.455902 47.9142 0.455902C45.3862 0.455902 43.4982 2.3119 42.7302 4.6479H42.6662C42.6662 4.5519 42.6662 4.4559 42.6982 4.3599C42.7302 4.13593 42.7302 3.91196 42.7302 3.62401V3.6239V2.6639C42.7302 1.3519 41.9942 0.679901 40.5542 0.679901H36.2982V3.7199H38.1222C38.6022 3.7199 38.8262 3.9439 38.8262 4.4239V13.9599H36.4582Z" fill="white"/>
</svg>
