<svg width="92" height="57" viewBox="0 0 92 57" fill="none" xmlns="http://www.w3.org/2000/svg">
<path d="M45.9612 17.2762H50.4566L49.4103 25.0268H44.9537L42.2797 45.4497C41.8922 48.55 40.3033 51.4565 37.8618 53.6266C35.4204 55.7581 32.4364 56.9594 29.4136 56.9594C23.1356 56.9594 18.679 51.8052 19.4928 45.4497L27.2047 45.411C26.9334 47.5036 28.3673 49.2088 30.4212 49.2088C31.3901 49.2088 32.3201 48.8212 33.0952 48.1624C33.909 47.4261 34.4128 46.4573 34.5678 45.411L37.203 25.0268H32.7464L33.754 17.2762H38.2494L38.9469 12.122C39.3345 9.02174 40.9233 6.11525 43.3648 3.94508C45.7675 1.81365 48.7902 0.612305 51.813 0.612305C58.091 0.612305 62.5088 5.76648 61.7338 12.122L54.0219 12.1607C54.2932 10.0681 52.8593 8.32418 50.8441 8.32418C49.9141 8.32418 48.9452 8.71172 48.1702 9.37052C47.3564 10.1068 46.8526 11.0369 46.6976 12.0832L45.9612 17.2762ZM1.00758 34.2113L0 41.9232H12.6335L13.6411 34.2113H11.1997L12.1685 26.9645C12.3623 25.4143 13.1761 23.9417 14.4549 23.0504C15.3075 22.4691 16.3151 22.1203 17.3614 22.1203C19.9191 22.1203 21.7405 24.213 21.3917 26.7707L19.3766 41.9619H29.5687L30.615 34.2113H28.1348L29.3361 24.988C29.6074 23.0116 29.1424 21.229 28.1735 19.7564C26.7397 17.5862 24.182 16.1523 21.0817 16.1523C18.0202 16.1523 15.1137 17.5474 13.0986 19.6789L13.4086 17.3149H3.25527L2.24768 25.0268H4.68913L3.48778 34.2113H1.00758ZM51.658 34.2113L50.6504 41.9232H63.2839L64.2915 34.2113H61.85L62.8189 26.7319C63.1677 24.1742 64.7953 22.1203 66.5004 22.1203C68.2056 22.1203 69.3294 24.213 68.9806 26.7707L68.0506 33.8238L66.9655 41.9232H77.1575L78.1651 34.2113H75.6849L76.6538 26.7319C77.0025 24.1742 78.6302 22.0816 80.3353 22.0816C82.0404 22.0816 83.1643 24.1742 82.8155 26.7319L80.8003 41.9232H90.9924L92 34.2113H89.5586L90.7599 24.988C91.4187 20.1051 88.396 16.1523 84.0169 16.1523C81.0329 16.1523 78.1651 18.0125 76.46 20.7639C75.4912 18.0125 73.1272 16.1523 70.1045 16.1523C67.7018 16.1523 65.4153 17.3537 63.7102 19.2526L63.9815 17.3149H53.7894L52.8593 25.0268H55.3008L54.0994 34.25H51.658V34.2113Z" fill="url(#paint0_linear_40_19362)"/>
<defs>
<linearGradient id="paint0_linear_40_19362" x1="17.4614" y1="3.06867" x2="73.7103" y2="59.3176" gradientUnits="userSpaceOnUse">
<stop stop-color="#FF7401"/>
<stop offset="1" stop-color="#FF014F"/>
</linearGradient>
</defs>
</svg>
