<svg width="120" height="22" viewBox="0 0 120 22" fill="none" xmlns="http://www.w3.org/2000/svg">
<path fill-rule="evenodd" clip-rule="evenodd" d="M88.623 22C86.9874 22 85.4747 21.7122 84.0849 21.1408C82.6908 20.5652 81.4916 19.7865 80.4832 18.7961C79.4747 17.8099 78.6823 16.6502 78.106 15.3213C77.5297 13.9923 77.2458 12.5702 77.2458 11.0593V11C77.2458 9.48903 77.534 8.06272 78.106 6.72528C78.6823 5.38361 79.4832 4.21546 80.5128 3.22085C81.5425 2.22201 82.7501 1.43901 84.1442 0.863406C85.534 0.2878 87.0467 0 88.6824 0C90.318 0 91.8307 0.2878 93.2205 0.863406C94.6146 1.43901 95.8138 2.21778 96.8222 3.20392C97.8307 4.19007 98.6231 5.34975 99.1994 6.67872C99.7756 8.00769 100.06 9.42978 100.06 10.9407V11C100.06 12.511 99.7714 13.9373 99.1994 15.279C98.6231 16.6206 97.8222 17.7888 96.7926 18.7834C95.7629 19.7822 94.5553 20.5652 93.1612 21.1408C91.7714 21.7164 90.2586 22 88.623 22ZM88.6696 16.7095C89.479 16.7095 90.2163 16.5571 90.8858 16.2566C91.5553 15.9561 92.1188 15.5456 92.5849 15.0335C93.051 14.5214 93.4154 13.9204 93.6781 13.2347C93.9408 12.5491 94.0722 11.8253 94.0722 11.0593V11C94.0722 10.2339 93.9408 9.51019 93.6781 8.82455C93.4154 8.1389 93.0425 7.53367 92.5553 7.01308C92.068 6.48826 91.4917 6.06925 90.8264 5.76029C90.1569 5.44709 89.4196 5.2905 88.6103 5.2905C87.801 5.2905 87.0679 5.44286 86.4112 5.74336C85.7544 6.04386 85.1866 6.4544 84.712 6.96652C84.2374 7.47864 83.873 8.07965 83.6188 8.76529C83.3645 9.45094 83.2374 10.1747 83.2374 10.9407V11C83.2374 11.7661 83.3688 12.4898 83.6315 13.1755C83.8942 13.8611 84.2628 14.4663 84.7374 14.9911C85.212 15.516 85.784 15.935 86.4535 16.2439C87.123 16.5571 87.8603 16.7137 88.6696 16.7137V16.7095ZM34.6457 0.419272H42.8152C44.7093 0.419272 46.4 0.677448 47.883 1.18957C49.3661 1.70169 50.6161 2.42543 51.6373 3.35232C52.6542 4.27922 53.4339 5.38387 53.9678 6.66206C54.5017 7.94024 54.7686 9.3454 54.7686 10.8775V10.9368C54.7686 12.4689 54.4975 13.8825 53.9508 15.1819C53.4042 16.4812 52.6203 17.607 51.5907 18.5509C50.561 19.4989 49.294 20.2396 47.794 20.7729C46.2898 21.3061 44.5906 21.5728 42.6965 21.5728H34.6457V0.419272ZM42.9169 16.3796C44.6796 16.3796 46.0949 15.9183 47.1669 14.9914C48.2389 14.0645 48.7771 12.744 48.7771 11.0341V10.9749C48.7771 9.28191 48.2389 7.96563 47.1669 7.03027C46.0949 6.09491 44.6754 5.62512 42.9169 5.62512H40.5186V16.3839H42.9169V16.3796ZM24.8687 0.418945H30.767V21.5767H24.8687V0.418945ZM74.796 0.418945H57.7916V21.5767H74.9485V16.5909H63.5713V13.2346H73.7366V8.60863H63.5713V5.40471H74.796V0.418945ZM106.034 21.0604C107.741 21.6487 109.542 21.9407 111.436 21.9407V21.9365C112.725 21.9365 113.894 21.7841 114.945 21.4709C115.996 21.1577 116.894 20.7049 117.64 20.1123C118.386 19.5198 118.966 18.8003 119.381 17.9538C119.792 17.1116 120 16.1466 120 15.0589V14.9996C120 14.0177 119.818 13.167 119.453 12.4517C119.093 11.7407 118.568 11.1312 117.881 10.6275C117.195 10.1239 116.364 9.69641 115.386 9.34512C114.407 8.99383 113.314 8.6891 112.102 8.42669C111.377 8.26586 110.775 8.1135 110.301 7.96113C109.826 7.80876 109.458 7.66063 109.182 7.50826C108.907 7.3559 108.716 7.19083 108.606 7.00884C108.496 6.82685 108.441 6.61523 108.441 6.37398V6.31473C108.441 5.93381 108.619 5.61215 108.97 5.34974C109.322 5.08733 109.852 4.95613 110.559 4.95613C111.504 4.95613 112.491 5.13389 113.508 5.48518C114.525 5.8407 115.521 6.35705 116.487 7.0427L119.424 2.89072C118.271 1.95959 116.987 1.25701 115.564 0.778753C114.144 0.300492 112.525 0.0634766 110.708 0.0634766C109.436 0.0634766 108.297 0.232773 107.288 0.5629C106.28 0.893027 105.419 1.35859 104.703 1.96383C103.987 2.56906 103.441 3.2801 103.068 4.10542C102.695 4.93073 102.508 5.83647 102.508 6.82262V6.88187C102.508 7.96536 102.712 8.87956 103.127 9.61177C103.542 10.3482 104.106 10.9619 104.822 11.4529C105.538 11.9438 106.381 12.3459 107.347 12.6591C108.318 12.9723 109.364 13.2559 110.496 13.5183C111.225 13.6833 111.814 13.8357 112.267 13.9881C112.72 14.1362 113.085 14.2928 113.356 14.4536C113.627 14.6145 113.814 14.7838 113.915 14.953C114.017 15.1223 114.068 15.3213 114.068 15.5414V15.6006C114.068 16.0619 113.86 16.4217 113.445 16.6714C113.03 16.9211 112.432 17.0481 111.644 17.0481C109.182 17.0481 106.894 16.2016 104.775 14.5086L101.508 18.4152C102.822 19.5918 104.33 20.4721 106.034 21.0604ZM6.69919 17.2607L6.50426 16.7274L6.25003 16.0375H7.61444L11.1526 11.3141L7.13562 0.292969H0L6.35173 17.7262L6.69919 17.2649V17.2607ZM10.4534 10.9755L10.7035 11.6654H9.31784L9.06783 10.9755L8.8136 10.2857H10.1992L10.4534 10.9755ZM9.39835 8.10174L9.65258 8.79162H8.267L8.01274 8.10174L7.76276 7.41186H9.14834L9.39835 8.10174ZM8.34327 5.22795L8.59326 5.91782H7.20767L6.95766 5.22795L6.70343 4.53806H8.08901L8.34327 5.22795ZM7.03393 1.66003L7.28394 2.34991L7.53817 3.0398H6.15256L5.89833 2.34991L5.64832 1.66003H7.03393ZM1.22456 2.34991L0.974577 1.66003H2.36019L2.61441 2.34991L2.86443 3.0398H1.47882L1.22456 2.34991ZM2.27968 5.22371L2.02542 4.53383H3.41103L3.66102 5.22371L3.91103 5.91359H2.52542L2.27543 5.22371H2.27968ZM3.33476 8.09751L3.08475 7.40763H4.47036L4.72035 8.09751L4.9746 8.78739H3.58899L3.33476 8.09751ZM4.38985 10.9713L4.13562 10.2814H5.5212L5.77122 10.9713L6.0212 11.6612H4.63562L4.38561 10.9713H4.38985ZM5.44494 13.8451L5.19495 13.1552H6.58053L6.83054 13.8451L7.08477 14.535H5.69919L5.44494 13.8451ZM7.85677 21.6952L15.6492 0.304688H15.6534H22.7891L14.9966 21.6952H7.85677ZM15.7509 1.67599L15.5009 2.36587L15.2466 3.05575H16.6323L16.8865 2.36587L17.1365 1.67599H15.7509ZM14.7 4.54978L14.4458 5.23966L14.1958 5.92954H15.5814L15.8314 5.23966L16.0856 4.54978H14.7ZM13.6407 7.42358L13.3907 8.11346L13.1365 8.80334H14.5221L14.7763 8.11346L15.0263 7.42358H13.6407ZM10.3059 20.3028L10.5559 19.6129L10.8102 18.923H9.42458L9.17457 19.6129L8.92034 20.3028H10.3059ZM11.361 17.429L11.611 16.7391L11.8653 16.0492H10.4797L10.2254 16.7391L9.97543 17.429H11.361ZM12.4161 14.5552L12.6661 13.8653H12.6703L12.9204 13.1754H11.5348L11.2848 13.8653L11.0305 14.5552H12.4161ZM12.3356 10.9915L12.0856 11.6814H13.4712L13.7212 10.9915L13.9754 10.3016H12.5898L12.3356 10.9915ZM14.9754 20.307L15.2297 19.6171L15.4797 18.9272H14.0941L13.8441 19.6171L13.5899 20.307H14.9754ZM16.0348 17.4332L16.2848 16.7433L16.539 16.0534H15.1534L14.8992 16.7433L14.6492 17.4332H16.0348ZM17.0856 14.5594L17.3399 13.8695L17.5899 13.1796H16.2043L15.9543 13.8695L15.7 14.5594H17.0856ZM18.145 11.6856L18.395 10.9957H18.3907L18.645 10.3058H17.2594L17.0094 10.9957L16.7594 11.6856H18.145ZM19.1958 8.81181L19.45 8.12192L19.7001 7.43205H18.3145L18.0645 8.12192L17.8102 8.81181H19.1958ZM20.2551 5.93801L20.5051 5.24813H20.5009L20.7551 4.55825H19.3695L19.1196 5.24813L18.8695 5.93801H20.2551ZM19.9246 3.06421H21.3102L21.5645 2.37433L21.8145 1.68445H20.4289L20.1746 2.37433L19.9246 3.06421Z" fill="white"/>
</svg>
