<svg width="99" height="38" viewBox="0 0 99 38" fill="none" xmlns="http://www.w3.org/2000/svg">
<path fill-rule="evenodd" clip-rule="evenodd" d="M79.5879 0H76.0449V4.08231H79.5879V0ZM79.5879 8.0904H76.0449V25.7862H79.5879V8.0904ZM61.1794 20.5051C61.6616 22.3083 63.0286 23.378 65.4477 23.378C67.9944 23.378 68.8871 22.3607 68.8871 20.981C68.8871 19.6013 68.1299 18.8198 64.6985 18.2041C59.2744 17.1868 58.302 15.1784 58.302 12.8906C58.302 10.4281 60.0117 7.63379 64.9416 7.63379C69.8715 7.63379 71.7765 10.5765 71.9678 12.9124H68.4846C68.2614 11.9169 67.6078 10.4412 64.7822 10.4412C62.383 10.4412 61.8131 11.5895 61.8131 12.5413C61.8131 13.6939 62.4667 14.3358 65.6948 14.9427C71.4497 16.0385 72.446 18.0863 72.446 20.6754C72.446 23.8146 70.2421 26.2465 65.2644 26.2465C60.741 26.2465 58.1306 24.0067 57.6523 20.5007H61.1834L61.1794 20.5051ZM54.4015 20.6342V20.6344C54.4015 22.3546 54.4015 24.2799 54.4254 25.7906H50.9781C50.9143 25.3103 50.8824 24.2319 50.8665 23.1884C50.0455 25.0309 48.6108 26.249 45.558 26.249C42.5052 26.249 39.7832 24.3235 39.7832 19.2894V8.09473H43.3222V18.5647C43.3222 20.9922 44.1153 23.0355 46.6898 23.0355C49.6589 23.0355 50.8585 21.1799 50.8585 16.6436V8.09473H54.4015V20.6342ZM98.9961 20.182C98.2907 23.3387 95.9951 26.2509 91.3761 26.2509C85.9918 26.2509 83.2539 22.2602 83.2539 16.9991C83.2539 11.7379 86.1991 7.63379 91.4797 7.63379C96.7603 7.63379 98.7091 11.5938 98.9602 13.8075H95.4371C95.0067 12.275 93.9626 10.7163 91.4478 10.7163C88.5066 10.7163 86.8806 13.2442 86.8806 16.9161C86.8806 20.588 88.4548 23.1597 91.4159 23.1597C93.584 23.1597 94.7796 22.0332 95.469 20.1776H99.0001L98.9961 20.182ZM11.1312 0.975511L22.4775 8.34986H22.4815L33.8278 0.975511C34.334 0.643687 34.9716 1.04537 34.9716 1.68719V30.8222C34.9716 34.7823 31.9985 38.0001 28.4197 38.0001C24.8408 38.0001 21.9195 34.8347 21.8717 30.9226C21.8199 27.0062 24.7252 23.7186 28.3001 23.6487C29.6033 23.6225 30.8229 24.0198 31.8551 24.7184V6.22357L22.8641 12.0654C22.625 12.2182 22.33 12.2182 22.0909 12.0654L13.0999 6.22357V25.6309C13.0999 29.4163 10.2863 32.787 6.83492 32.9485C3.10462 33.1232 0.0159784 29.8573 3.69718e-05 25.8099C-0.0119191 21.9154 2.87747 18.6757 6.42843 18.6015C7.73165 18.5753 8.95515 18.9726 9.98736 19.6712V1.68719C9.98736 1.04537 10.625 0.648053 11.1312 0.975511Z" fill="white"/>
</svg>
