<svg width="102" height="24" viewBox="0 0 102 24" fill="none" xmlns="http://www.w3.org/2000/svg">
<path fill-rule="evenodd" clip-rule="evenodd" d="M5.75947 0L10.7428 11.2059L15.9628 0H21.3863V23.9911H15.6931V12.5165H15.6268L11.8218 20.2998H9.19528L5.75947 12.5165H5.69324V23.9911H0V0H5.75947ZM26.0397 23.9955V0.00439453H39.6836V5.07227H31.9033V9.30099H37.3599V14.4679H31.9033V18.9323H40.1568V24.0002H26.0445L26.0397 23.9955ZM60.0283 3.99301C60.0283 1.77729 58.9824 0 55.8826 0H43.5544V23.9911H49.418V15.1329H49.9575L54.638 23.9911H61.3392L56.3559 15.1329C59.0866 14.9632 60.0283 13.2849 60.0283 11.1729V3.99301ZM53.0857 10.065H49.4133V5.06316H53.0857C53.6583 5.06316 54.1647 5.56758 54.1647 6.17102V8.95717C54.1647 9.5606 53.6583 10.065 53.0857 10.065ZM64.1376 3.99301C64.1376 1.77729 65.1835 0 68.3164 0H76.5037C79.6035 0 80.6494 1.77729 80.6494 3.99301V7.44859L74.923 8.52345V5.06787H70.039V18.9279H74.923V14.7652L80.6494 15.84V20.0028C80.6494 22.2185 79.6035 23.9958 76.5037 23.9958H68.3164C65.1835 23.9958 64.1376 22.2185 64.1376 20.0028V3.99772V3.99301ZM96.136 0V9.29659H90.3765V0H84.5129V23.9911H90.3765V14.2938H96.136V23.9911H102V0H96.136Z" fill="white"/>
</svg>
