<svg width="103" height="28" viewBox="0 0 103 28" fill="none" xmlns="http://www.w3.org/2000/svg">
<path fill-rule="evenodd" clip-rule="evenodd" d="M57.1254 11.9193C57.2544 12.5939 57.3264 13.2875 57.3264 14C57.3264 14.7125 57.2544 15.4061 57.1254 16.0807L59.7344 18.8132L57.2089 23.1868L53.5343 22.2962C52.4877 23.2019 51.2667 23.9145 49.9319 24.3768L48.8663 28H43.8153L42.7497 24.3768C41.4111 23.9145 40.1939 23.2019 39.1473 22.2962L35.4727 23.1868L32.9472 18.8132L35.5562 16.0807C35.4273 15.4061 35.3552 14.7125 35.3552 14C35.3552 13.2875 35.4273 12.5939 35.5562 11.9193L32.9472 9.18679L35.4727 4.81321L39.1473 5.70384C40.1939 4.79805 41.4149 4.08554 42.7497 3.62317L43.8153 0H48.8663L49.9319 3.62317C51.2705 4.08554 52.4877 4.79805 53.5343 5.70384L57.2089 4.81321L59.7344 9.18679L57.1254 11.9193ZM41.5969 14C41.5969 16.6188 43.7205 18.7412 46.3408 18.7412C48.9611 18.7412 51.0847 16.6188 51.0847 14C51.0847 11.3812 48.9611 9.2588 46.3408 9.2588C43.7205 9.2588 41.5969 11.3812 41.5969 14ZM9.25641 17.1014L5.66914 3.66992H5.65775H0L6.2114 24.4691H11.7326L15.8167 12.4171L19.9007 24.4691H25.422L31.6334 3.66992H25.9756L22.3883 17.1014L17.9744 3.66992H13.6704L9.25641 17.1014ZM80.9034 24.4661H74.1687L69.0077 16.4656V24.4661H63.6002V3.66699H72.0186C73.179 3.66699 74.1877 3.83754 75.0561 4.17863C75.9206 4.51973 76.6336 4.9821 77.1948 5.57333C77.756 6.16077 78.1769 6.84295 78.4651 7.61231C78.7495 8.38545 78.8936 9.21166 78.8936 10.0947C78.8936 11.6751 78.5106 12.9599 77.7484 13.9415C76.9862 14.9269 75.8562 15.5939 74.3659 15.9426L80.9072 24.4661H80.9034ZM69.0077 12.9637H70.0278C71.0933 12.9637 71.9124 12.7439 72.485 12.3005C73.0538 11.8608 73.342 11.2241 73.342 10.3979C73.342 9.5717 73.0576 8.93499 72.485 8.49536C71.9162 8.05573 71.0971 7.83212 70.0278 7.83212H69.0077V12.9637ZM95.5487 3.67078L88.9543 12.2474L88.9506 12.2436V3.66699H83.5431V24.4661H88.9506V15.4461L95.9886 24.4661H103L93.9751 13.517L102.227 3.67078H95.5487Z" fill="white"/>
</svg>
