<svg width="111" height="22" viewBox="0 0 111 22" fill="none" xmlns="http://www.w3.org/2000/svg">
<path fill-rule="evenodd" clip-rule="evenodd" d="M65.5714 10.8671C65.5714 4.76483 60.8517 0 54.3384 0C47.8252 0 43.1055 4.61759 43.1055 10.8671C43.1055 17.1166 47.8252 22 54.3384 22C60.8517 22 65.5714 16.9693 65.5714 10.8671ZM60.0432 10.8671C60.0432 14.589 57.474 17.3865 54.3384 17.3865C51.2029 17.3865 48.6337 14.4417 48.6337 10.8671C48.6337 7.29243 51.2029 4.6135 54.3384 4.6135C57.474 4.6135 60.0432 7.1452 60.0432 10.8671ZM0.00821625 17.7716H1.76887L7.59262 0.356445H13.6873L19.511 17.7716H21.2717V21.6407H12.3411V17.7716H14.192L13.3835 14.9413H7.88813L7.0796 17.7716H8.93057V21.6407H0V17.7716H0.00821625ZM12.2262 10.8963L11.1222 6.96585C10.7651 5.65706 10.7035 4.73273 10.7035 4.73273H10.5845C10.5845 4.73273 10.523 5.65706 10.1659 6.96585L9.02906 10.8963H12.2262ZM23.0366 17.7716H25.4252V4.22557H23.0366V0.356445H33.0137C34.6882 0.356445 35.7307 0.417797 36.9291 0.802255C39.1699 1.57526 40.6638 3.42393 40.6638 5.89428C40.6638 7.73886 39.7978 9.52618 38.1234 10.4505V10.5119C40.6638 11.2849 41.5298 13.3708 41.5298 15.3953C41.5298 18.61 39.2889 20.7245 36.7813 21.3503C35.6445 21.6162 34.7498 21.6489 33.5842 21.6489H23.0407V17.7798L23.0366 17.7716ZM33.4036 8.60185C34.7169 8.60185 35.2874 7.67751 35.2874 6.54867C35.2874 5.8043 34.9878 4.99857 34.3024 4.7041C33.9125 4.55686 33.5555 4.52414 32.9891 4.52414H30.777V8.60185H33.4036ZM33.851 17.473C34.2409 17.473 34.5692 17.4117 34.836 17.2931C35.6732 16.9372 36.1206 15.9556 36.1206 14.9699C36.1206 13.7184 35.4024 12.7654 33.8797 12.7654H30.7729V17.4689H33.851V17.473ZM69.0356 4.22557H66.647V0.356445H76.7718V4.22557H74.3833V13.5139C74.3833 14.4669 74.5926 15.3012 74.9209 15.8656C75.4873 16.8186 76.6528 17.383 78.118 17.383C79.4929 17.383 80.5682 16.9086 81.2248 15.8943C81.6147 15.2685 81.7912 14.4955 81.7912 13.5139V4.22557H79.4026V0.356445H89.5274V4.22557H87.1388V13.5139C87.1388 15.6284 86.4822 17.6816 85.3782 19.0517C83.7365 21.0763 80.8965 22.0006 78.0893 22.0006C75.044 22.0006 72.3845 20.929 70.8291 19.1417C69.5732 17.7143 69.0356 15.747 69.0356 13.5139V4.22557ZM98.634 17.7716H96.2454H96.2412V21.6407H106.366V17.7716H103.978V4.52414H106.518V7.53027H111V0.356445H91.6118V7.53027H96.0935V4.52414H98.634V17.7716Z" fill="white"/>
</svg>
