<svg width="138" height="33" viewBox="0 0 138 33" fill="none" xmlns="http://www.w3.org/2000/svg">
<path fill-rule="evenodd" clip-rule="evenodd" d="M1.42518 1.83335C0.510913 1.83335 0 2.33978 0 3.25853V3.26301V24.5243C0 25.4744 0.506431 25.9495 1.42518 25.9495H2.88623C3.83636 25.9495 4.31141 25.4744 4.31141 24.5243V17.9003C4.31141 14.6063 6.2789 12.1592 9.30406 12.1592C11.4777 12.1592 12.02 13.5844 12.02 15.6908V24.5198C12.02 25.4699 12.495 25.945 13.4452 25.945H14.9062C15.8205 25.945 16.3314 25.4699 16.3314 24.5198V14.8034C16.3314 10.2186 14.1219 8.21532 10.2856 8.21532C7.30073 8.21532 5.1226 10.0528 4.27555 11.7155H4.20834C4.20834 11.7155 4.31141 11.1015 4.31141 10.2545V3.25853C4.31141 2.34426 3.83636 1.83335 2.88623 1.83335H1.42518ZM40.1518 12.2937H41.0705L41.066 12.2982V19.7692C41.066 24.4571 44.7321 26.1198 47.8245 26.1198C49.0121 26.1198 49.5903 25.712 49.5903 24.6946V23.6414C49.5903 22.6868 49.2183 22.3507 48.1651 22.2476C46.9729 22.1131 45.3774 21.6022 45.3774 19.0207V12.2937H47.9231C48.806 12.2937 49.3169 11.8186 49.3169 10.8685V10.2904C49.3169 9.37608 48.8104 8.86517 47.8917 8.86517H45.3774V5.33357C45.3774 4.4193 44.871 3.90838 43.9523 3.90838H42.5943C41.68 3.90838 41.1691 4.41482 41.1691 5.33357V8.86517H40.1831C39.233 8.86517 38.7579 9.3716 38.7579 10.2904V10.8685C38.7579 11.8186 39.233 12.2937 40.1518 12.2937ZM28.0868 0.755883C28.0807 0.951887 27.9988 3.60538 31.1345 6.98733H31.139C31.4492 7.32199 31.7495 7.64327 32.0394 7.9534C35.2588 11.3977 37.1938 13.4679 37.1938 17.2505V17.3804V17.4701C37.1938 22.4986 33.1154 26.5769 28.0869 26.5769C23.0585 26.5769 18.9801 22.4986 18.9801 17.4701V17.3804V17.2505C18.9801 15.3995 19.6434 13.6023 20.7683 11.8231C21.8932 10.0439 22.7268 9.04444 22.7268 9.04444C22.7351 9.09119 22.7442 9.16747 22.7553 9.26059C22.7803 9.471 22.8157 9.76741 22.8747 10.0035C23.3901 12.0158 24.878 12.4819 24.878 12.4819C24.878 12.4819 24.4343 11.0747 24.4971 9.1027C24.506 8.76657 24.5285 8.42148 24.5733 8.05846C25.008 4.49549 27.5178 1.42999 27.473 1.49722C27.7956 1.03112 28.1183 0.699471 28.0869 0.744288C28.0871 0.744613 28.087 0.748509 28.0868 0.755883ZM113.784 12.2945H114.703L114.699 12.299V19.77C114.699 24.4579 118.365 26.1206 121.457 26.1206C122.645 26.1206 123.223 25.7128 123.223 24.6954V23.6422C123.223 22.6876 122.851 22.3515 121.798 22.2484C120.606 22.1139 119.01 21.603 119.01 19.0215V12.2945H121.556C122.439 12.2945 122.95 11.8194 122.95 10.8693V10.2912C122.95 9.37688 122.443 8.86596 121.524 8.86596H119.01V5.33437C119.01 4.4201 118.504 3.90918 117.585 3.90918H116.227C115.313 3.90918 114.802 4.41561 114.802 5.33437V8.86596H113.816C112.866 8.86596 112.391 9.3724 112.391 10.2912V10.8693C112.391 11.8194 112.866 12.2945 113.784 12.2945ZM58.9756 22.0419L58.5678 22.6514L58.5723 22.647C58.0658 23.3954 58.1331 24.1439 58.9129 24.5831C59.9661 25.2957 61.9022 26.3489 64.6854 26.3489C68.692 26.3489 71.2735 24.0721 71.2735 21.0156C71.2735 17.5311 68.2838 16.492 65.8317 15.6398C64.1269 15.0473 62.682 14.5451 62.682 13.3743C62.682 12.2852 63.6008 11.6757 65.026 11.6757C66.4512 11.6757 67.5716 12.1821 68.32 12.5228C69.1671 12.8992 69.8124 12.7961 70.2203 11.9805L70.5609 11.371C70.9329 10.5911 70.8298 9.87854 70.05 9.4707C69.1357 8.96427 67.5357 8.21582 65.2276 8.21582C61.5929 8.21582 58.6037 10.0175 58.6037 13.4146C58.6037 16.9337 61.6163 17.9996 64.0736 18.869C65.7661 19.4678 67.1951 19.9735 67.1951 21.1232C67.1951 22.2078 66.2764 22.889 64.7839 22.889C63.1049 22.889 61.8553 22.2122 61.0353 21.7681L60.9117 21.7013C60.0647 21.2621 59.4866 21.3293 58.9756 22.0419ZM75.2885 8.62366C74.3742 8.62366 73.8633 9.13009 73.8633 10.0488V10.0533V31.3146C73.8633 32.2647 74.3697 32.7398 75.2885 32.7398H76.7495C77.6996 32.7398 78.1747 32.2647 78.1747 31.3146V25.2015C78.1747 24.3186 78.0716 23.7091 78.0716 23.7091H78.1388C78.1388 23.7091 79.5327 26.3578 83.1315 26.3578C87.6804 26.3578 91.0776 22.6559 91.0776 17.2868C91.0776 11.9177 88.0569 8.21582 83.369 8.21582C79.3265 8.21582 77.7982 11.2724 77.7982 11.2724H77.731C77.731 11.2724 77.7669 10.9631 77.7669 10.5911V9.81131C77.7669 9.13457 77.2918 8.62366 76.373 8.62366H75.2885ZM86.7034 17.3541C86.7034 20.7826 84.7359 22.7187 82.3561 22.7187H82.3517C79.5327 22.7187 78.0402 20.07 78.0402 17.3854C78.0402 13.5491 80.1825 11.9177 82.4234 11.9177C84.9376 11.9177 86.7034 13.9255 86.7034 17.3541ZM102.219 8.21582C107.485 8.21582 111.765 11.9849 111.765 17.2868C111.765 22.5887 107.485 26.3578 102.219 26.3578C96.9532 26.3578 92.709 22.6201 92.709 17.2868C92.709 11.9536 96.9532 8.21582 102.219 8.21582ZM102.219 22.6873C105.038 22.6873 107.382 20.5137 107.382 17.2868C107.382 14.06 105.038 11.8864 102.219 11.8864C99.4002 11.8864 97.0921 14.0958 97.0921 17.2868C97.0921 20.4778 99.4002 22.6873 102.219 22.6873ZM124.884 22.6514L125.292 22.0419C125.803 21.3293 126.381 21.2621 127.228 21.7013L127.352 21.7681C128.172 22.2122 129.421 22.889 131.1 22.889C132.593 22.889 133.512 22.2078 133.512 21.1232C133.512 19.9735 132.082 19.4678 130.39 18.869C127.933 17.9996 124.92 16.9337 124.92 13.4146C124.92 10.0175 127.909 8.21582 131.544 8.21582C133.852 8.21582 135.452 8.96427 136.366 9.4707C137.146 9.87854 137.249 10.5911 136.877 11.371L136.537 11.9805C136.129 12.7961 135.483 12.8992 134.636 12.5228C133.888 12.1821 132.768 11.6757 131.342 11.6757C129.917 11.6757 128.998 12.2852 128.998 13.3743C128.998 14.5451 130.443 15.0473 132.148 15.6398C134.6 16.492 137.59 17.5311 137.59 21.0156C137.59 24.0721 135.008 26.3489 131.002 26.3489C128.219 26.3489 126.283 25.2957 125.229 24.5831C124.449 24.1439 124.382 23.3954 124.889 22.647L124.884 22.6514Z" fill="white"/>
</svg>
