<svg width="92" height="56" viewBox="0 0 92 56" fill="none" xmlns="http://www.w3.org/2000/svg">
<path d="M45.9038 16.5717H50.3782L49.3669 24.2511H44.8925L42.2039 44.5447C41.8043 47.6282 40.2355 50.5154 37.7788 52.6857C35.3565 54.8216 32.3621 56 29.3429 56C23.0777 56 18.6378 50.8689 19.4419 44.5643L27.1624 44.5299C26.896 46.6217 28.3316 48.3255 30.3592 48.3255C31.3113 48.3255 32.2585 47.9523 33.028 47.2698C33.8371 46.5578 34.36 45.5758 34.4883 44.5496L37.172 24.256H32.6926L33.7088 16.5766H38.1882L38.8641 11.4553C39.2587 8.37177 40.8275 5.4797 43.2843 3.31434C45.7015 1.17843 48.696 0 51.7102 0C57.9705 0 62.4104 5.13108 61.6063 11.4357L53.8858 11.475C54.1522 9.38325 52.7215 7.67944 50.694 7.67944C49.7468 7.67944 48.8045 8.05261 48.035 8.73021C47.2259 9.44217 46.7079 10.4046 46.5797 11.4357L45.8989 16.5766L45.9038 16.5717ZM1.01625 33.4036L0 41.083H12.6242L13.6404 33.4036H11.1886L12.1407 26.1857C12.3479 24.639 13.1471 23.2003 14.4347 22.3116C15.2881 21.7224 16.3044 21.3738 17.3551 21.3738C19.9106 21.3738 21.7112 23.436 21.3757 25.9795L19.3778 41.0781H29.5649L30.5812 33.3987H28.1047L29.3182 24.2266C29.5748 22.2772 29.1258 20.4801 28.1639 19.0218C26.7382 16.8516 24.1729 15.4374 21.06 15.4374C17.9471 15.4374 15.0908 16.8123 13.0928 18.9335L13.4036 16.5668H3.2362L2.21996 24.2462H4.67178L3.46313 33.3987H1.01132L1.01625 33.4036ZM51.6066 33.4036L50.5904 41.083H63.2145L64.2308 33.4036H61.779L62.7656 25.9598C63.1109 23.4262 64.7586 21.3738 66.4557 21.3738C68.1527 21.3738 69.2676 23.436 68.9322 25.9795L67.9998 33.0108L66.9342 41.083H77.1065L78.1228 33.4036H75.6611L76.6428 25.9795C76.9783 23.436 78.6358 21.3738 80.3378 21.3738C82.0398 21.3738 83.1498 23.436 82.8143 25.9795L80.8163 41.0781H90.9837L92 33.3987H89.5482C89.5482 33.3987 90.7617 24.2364 90.7617 24.2266C91.4031 19.3705 88.3889 15.4374 84.0229 15.4374C81.0235 15.4374 78.1721 17.2935 76.4702 20.0333C75.4934 17.2984 73.1303 15.4374 70.1359 15.4374C67.7383 15.4374 65.4394 16.6306 63.7424 18.5014L63.9989 16.5668H53.8315L52.8153 24.2462H55.2671L54.0584 33.3987H51.6066V33.4036Z" fill="url(#paint0_linear_3158_5609)"/>
<path d="M45.9038 16.5717H50.3782L49.3669 24.2511H44.8925L42.2039 44.5447C41.8043 47.6282 40.2355 50.5154 37.7788 52.6857C35.3565 54.8216 32.3621 56 29.3429 56C23.0777 56 18.6378 50.8689 19.4419 44.5643L27.1624 44.5299C26.896 46.6217 28.3316 48.3255 30.3592 48.3255C31.3113 48.3255 32.2585 47.9523 33.028 47.2698C33.8371 46.5578 34.36 45.5758 34.4883 44.5496L37.172 24.256H32.6926L33.7088 16.5766H38.1882L38.8641 11.4553C39.2587 8.37177 40.8275 5.4797 43.2843 3.31434C45.7015 1.17843 48.696 0 51.7102 0C57.9705 0 62.4104 5.13108 61.6063 11.4357L53.8858 11.475C54.1522 9.38325 52.7215 7.67944 50.694 7.67944C49.7468 7.67944 48.8045 8.05261 48.035 8.73021C47.2259 9.44217 46.7079 10.4046 46.5797 11.4357L45.8989 16.5766L45.9038 16.5717ZM1.01625 33.4036L0 41.083H12.6242L13.6404 33.4036H11.1886L12.1407 26.1857C12.3479 24.639 13.1471 23.2003 14.4347 22.3116C15.2881 21.7224 16.3044 21.3738 17.3551 21.3738C19.9106 21.3738 21.7112 23.436 21.3757 25.9795L19.3778 41.0781H29.5649L30.5812 33.3987H28.1047L29.3182 24.2266C29.5748 22.2772 29.1258 20.4801 28.1639 19.0218C26.7382 16.8516 24.1729 15.4374 21.06 15.4374C17.9471 15.4374 15.0908 16.8123 13.0928 18.9335L13.4036 16.5668H3.2362L2.21996 24.2462H4.67178L3.46313 33.3987H1.01132L1.01625 33.4036ZM51.6066 33.4036L50.5904 41.083H63.2145L64.2308 33.4036H61.779L62.7656 25.9598C63.1109 23.4262 64.7586 21.3738 66.4557 21.3738C68.1527 21.3738 69.2676 23.436 68.9322 25.9795L67.9998 33.0108L66.9342 41.083H77.1065L78.1228 33.4036H75.6611L76.6428 25.9795C76.9783 23.436 78.6358 21.3738 80.3378 21.3738C82.0398 21.3738 83.1498 23.436 82.8143 25.9795L80.8163 41.0781H90.9837L92 33.3987H89.5482C89.5482 33.3987 90.7617 24.2364 90.7617 24.2266C91.4031 19.3705 88.3889 15.4374 84.0229 15.4374C81.0235 15.4374 78.1721 17.2935 76.4702 20.0333C75.4934 17.2984 73.1303 15.4374 70.1359 15.4374C67.7383 15.4374 65.4394 16.6306 63.7424 18.5014L63.9989 16.5668H53.8315L52.8153 24.2462H55.2671L54.0584 33.3987H51.6066V33.4036Z" fill="white"/>
<defs>
<linearGradient id="paint0_linear_3158_5609" x1="17.439" y1="2.44033" x2="73.3598" y2="58.6195" gradientUnits="userSpaceOnUse">
<stop offset="0.15" stop-color="#F4E832"/>
<stop offset="0.85" stop-color="#F28F1D"/>
</linearGradient>
</defs>
</svg>
