<?xml version="1.0" standalone="no"?>
<!DOCTYPE svg PUBLIC "-//W3C//DTD SVG 20010904//EN"
 "http://www.w3.org/TR/2001/REC-SVG-20010904/DTD/svg10.dtd">
<svg version="1.0" xmlns="http://www.w3.org/2000/svg"
 width="1024.000000pt" height="1024.000000pt" viewBox="0 0 1024.000000 1024.000000"
 preserveAspectRatio="xMidYMid meet">
<metadata>
Created by potrace 1.14, written by Peter Selinger 2001-2017
</metadata>
<g transform="translate(0.000000,1024.000000) scale(0.100000,-0.100000)"
fill="#000000" stroke="none">
<path d="M5600 8233 c-21 -4 -131 -26 -181 -38 -37 -8 -147 -45 -184 -61 -22
-10 -43 -17 -47 -16 -5 1 -8 -2 -8 -8 0 -5 -9 -10 -20 -10 -11 0 -20 -4 -20
-10 0 -5 -6 -10 -13 -10 -18 0 -150 -83 -227 -143 -103 -80 -197 -172 -278
-272 -10 -12 -92 -134 -109 -161 -13 -19 -86 -165 -88 -174 -1 -3 -7 -18 -14
-35 -7 -16 -14 -37 -16 -45 -2 -8 -4 -16 -5 -17 -2 -2 -3 -6 -5 -10 -1 -5 -5
-15 -8 -23 -4 -8 -9 -26 -11 -40 -3 -14 -9 -40 -15 -58 -5 -18 -10 -35 -10
-37 0 -7 -13 -96 -17 -120 -2 -11 -6 -40 -9 -65 -5 -40 -12 -87 -20 -145 -2
-11 -6 -45 -10 -76 -3 -31 -7 -65 -9 -75 -2 -11 -7 -44 -10 -74 -4 -30 -8 -64
-11 -75 -2 -11 -4 -25 -4 -31 -1 -8 -75 -11 -246 -11 -135 0 -248 -2 -251 -6
-3 -3 -8 -21 -10 -39 -10 -99 -13 -126 -18 -153 -5 -28 -14 -98 -21 -155 -8
-73 -18 -147 -21 -165 -2 -10 -6 -35 -8 -55 -3 -19 -8 -53 -11 -76 -3 -23 -8
-60 -10 -84 -2 -24 -7 -60 -10 -81 -4 -28 -2 -39 7 -40 7 0 119 -1 248 -2 150
-1 234 -6 234 -12 -1 -5 -5 -41 -9 -78 -3 -37 -8 -76 -10 -85 -4 -27 -14 -93
-20 -139 -3 -24 -7 -60 -10 -80 -3 -21 -7 -58 -10 -83 -3 -25 -8 -56 -10 -70
-5 -31 -13 -93 -19 -145 -3 -22 -8 -56 -10 -75 -10 -64 -28 -205 -31 -240 -4
-34 -10 -84 -19 -145 -3 -16 -8 -52 -11 -80 -3 -27 -8 -66 -11 -85 -4 -19 -8
-48 -10 -65 -1 -16 -5 -46 -8 -65 -2 -19 -7 -57 -11 -85 -3 -27 -8 -61 -11
-75 -2 -14 -7 -50 -10 -80 -9 -84 -12 -105 -14 -105 -1 0 -4 -22 -6 -50 -4
-45 -11 -90 -14 -90 0 0 -3 -18 -5 -40 -2 -22 -6 -58 -9 -80 -3 -22 -8 -60
-11 -85 -13 -101 -15 -116 -20 -140 -3 -14 -8 -40 -11 -58 -3 -18 -10 -35 -15
-38 -5 -3 -9 -13 -9 -22 0 -9 -11 -30 -25 -46 -14 -16 -25 -34 -25 -40 0 -6
-26 -36 -59 -66 -117 -111 -257 -154 -396 -123 -111 26 -195 95 -242 201 -26
60 -30 79 -32 158 l-1 51 -425 -1 c-233 -1 -428 -5 -431 -9 -10 -9 -9 -260 0
-312 4 -22 9 -51 11 -65 24 -141 80 -280 169 -415 42 -62 152 -186 202 -225
132 -103 259 -168 414 -210 47 -13 56 -15 130 -27 59 -10 301 -10 365 0 67 10
242 55 266 67 10 6 19 7 19 3 0 -4 4 -3 8 2 4 6 34 21 67 34 33 14 62 27 65
31 3 3 20 12 38 19 17 8 32 17 32 22 0 5 6 9 14 9 35 0 204 130 319 245 184
184 344 470 392 702 7 34 44 283 49 338 3 22 7 54 10 70 2 17 7 53 11 80 3 28
8 61 10 75 5 37 17 121 20 150 1 14 6 50 10 80 4 30 9 69 11 85 1 17 3 30 4
30 1 0 3 14 4 30 2 17 6 49 10 71 4 23 9 61 11 85 3 24 7 59 10 77 9 60 14 97
25 187 6 50 13 101 16 115 2 14 6 48 9 75 3 28 7 61 10 75 4 25 10 66 20 145
9 81 16 131 20 155 5 31 23 169 30 230 3 25 7 56 10 70 3 14 8 55 11 93 6 58
10 68 28 72 12 2 120 3 242 3 121 -1 225 2 231 5 6 4 14 37 18 74 4 37 11 78
16 91 6 17 6 21 -3 16 -6 -4 -8 -3 -5 3 9 14 19 81 32 198 3 22 7 51 9 65 3
14 8 48 11 75 8 78 14 128 19 150 2 11 7 45 10 76 4 31 8 66 11 77 2 11 -2 22
-8 24 -7 2 -119 3 -249 3 l-238 -1 5 35 c2 20 6 58 10 85 3 26 8 62 10 80 4
37 14 109 21 151 2 17 7 53 10 80 3 28 7 61 10 75 2 14 7 44 10 67 28 228 238
418 459 415 33 -1 70 -3 82 -6 35 -7 112 -44 129 -60 8 -9 21 -19 27 -23 24
-15 74 -89 90 -133 22 -60 36 -155 25 -174 -4 -8 -5 -17 -1 -19 13 -8 852 -1
859 6 10 10 10 248 0 322 -7 59 -36 178 -54 226 -5 13 -10 27 -11 32 -3 23
-81 163 -128 231 -63 90 -164 192 -243 247 -19 13 -37 26 -40 29 -15 15 -160
90 -160 83 0 -3 -6 0 -13 6 -18 14 -122 47 -212 67 -66 15 -334 26 -395 17z"/>
<path d="M2317 6524 c-3 -3 -32 -7 -64 -9 -52 -3 -112 -13 -183 -29 -14 -3
-38 -9 -55 -12 -16 -3 -35 -10 -40 -15 -6 -4 -22 -10 -36 -12 -77 -14 -309
-153 -401 -240 -82 -77 -79 -76 -72 -21 3 27 7 60 9 74 2 14 7 50 10 80 l6 55
-558 -2 c-307 0 -563 -1 -569 -2 -6 -1 -10 -11 -9 -23 1 -11 -2 -44 -7 -72 -7
-46 -12 -85 -23 -181 -2 -16 -6 -43 -9 -60 -3 -16 -10 -70 -16 -120 -6 -49
-13 -101 -16 -115 -2 -14 -7 -50 -10 -80 -3 -30 -9 -74 -13 -96 -5 -23 -8 -56
-7 -74 l1 -32 133 0 133 0 -6 -38 c-3 -20 -7 -55 -10 -76 -2 -21 -6 -52 -9
-69 -3 -16 -8 -52 -11 -80 -2 -27 -6 -59 -9 -70 -2 -11 -7 -45 -10 -76 -4 -31
-8 -65 -10 -76 -2 -10 -7 -46 -11 -78 -4 -33 -9 -73 -12 -90 -3 -16 -7 -43 -8
-60 -4 -45 -16 -135 -21 -159 -3 -12 -7 -46 -9 -76 -3 -29 -9 -58 -14 -63 -5
-5 -66 -9 -137 -10 l-128 -2 -7 -35 c-4 -19 -10 -60 -14 -90 -3 -30 -9 -73
-12 -95 -2 -22 -6 -51 -8 -65 -1 -14 -5 -43 -9 -65 -6 -43 -11 -77 -21 -170
-4 -33 -9 -69 -11 -80 -7 -37 -25 -180 -27 -215 l-2 -35 698 -1 c507 -1 700 2
702 10 3 9 20 129 41 301 2 17 6 46 9 65 3 19 8 53 10 75 3 22 7 56 10 75 5
37 13 94 19 145 12 94 17 132 22 153 5 26 13 25 -146 27 -74 2 -124 6 -123 12
2 10 30 226 39 303 3 25 7 56 9 70 2 14 7 48 10 75 4 28 9 64 11 80 3 17 7 46
9 65 2 19 7 55 10 80 3 25 8 63 10 85 4 33 13 76 38 170 2 6 15 36 29 67 65
141 181 245 339 304 64 23 89 27 179 27 85 0 116 -5 165 -23 229 -87 327 -298
271 -586 -2 -12 -7 -45 -11 -75 -3 -30 -8 -65 -10 -79 -4 -27 -15 -110 -20
-150 -5 -43 -17 -132 -20 -151 -2 -10 -7 -49 -10 -86 -4 -37 -9 -71 -12 -75
-2 -4 -6 -31 -8 -60 -5 -55 -11 -105 -21 -173 -4 -22 -8 -53 -10 -70 -1 -16
-3 -30 -4 -30 -1 0 -3 -22 -6 -49 -2 -27 -7 -60 -10 -75 -3 -14 -7 -42 -8 -61
-5 -51 -17 -144 -21 -150 -2 -3 -6 -34 -9 -70 -4 -36 -8 -77 -11 -90 -3 -14
-7 -50 -10 -81 l-5 -56 565 0 c311 0 565 3 566 6 0 3 2 13 4 22 1 8 6 42 9 75
4 32 9 71 11 85 8 43 15 102 20 154 3 28 7 61 10 75 3 14 7 45 10 70 3 25 8
61 11 80 3 19 7 55 10 80 2 25 10 82 17 126 l13 81 -135 0 -136 0 -1 39 c0 21
2 43 5 48 2 5 5 21 7 35 9 87 13 120 18 151 3 19 8 55 11 80 3 25 7 56 10 70
2 14 7 48 9 75 5 52 14 122 22 165 2 14 7 48 10 75 3 28 7 61 10 75 3 14 7 43
9 65 2 22 7 63 11 90 10 65 10 289 0 340 -22 111 -90 260 -158 347 -37 47
-149 158 -160 158 -3 0 -13 6 -20 13 -13 13 -108 72 -118 72 -3 1 -18 8 -35
17 -37 19 -148 55 -194 63 -19 3 -38 8 -42 11 -4 2 -49 6 -99 9 -50 2 -95 7
-99 9 -5 3 -11 3 -14 0z"/>
<path d="M7849 6526 c-2 -2 -44 -7 -92 -10 -114 -8 -162 -19 -272 -63 -109
-43 -228 -119 -315 -201 -36 -34 -68 -61 -71 -62 -4 0 -3 17 1 38 4 20 10 60
13 89 3 29 8 57 12 63 3 5 3 10 -2 11 -33 4 -1126 3 -1128 -1 -2 -3 -6 -26 -9
-50 -4 -25 -9 -56 -11 -70 -3 -14 -7 -45 -10 -70 -2 -25 -7 -61 -10 -80 -3
-19 -7 -55 -10 -80 -2 -25 -6 -59 -9 -75 -2 -17 -7 -50 -10 -75 -3 -25 -8 -54
-10 -65 -2 -11 -7 -49 -11 -85 -10 -78 -10 -81 -19 -147 l-7 -53 33 -1 c18 0
79 0 135 0 l102 2 -4 -48 c-3 -26 -7 -61 -10 -78 -2 -16 -7 -50 -10 -75 -3
-25 -8 -63 -11 -85 -13 -88 -22 -164 -29 -229 -3 -22 -6 -50 -9 -61 -2 -11 -7
-49 -11 -85 -4 -36 -9 -74 -11 -85 -3 -11 -6 -38 -9 -60 -3 -22 -7 -51 -9 -65
-1 -14 -6 -53 -11 -87 -6 -55 -10 -63 -28 -64 -12 0 -74 -1 -137 -2 l-115 -2
-12 -75 c-6 -41 -14 -102 -17 -135 -4 -34 -8 -70 -10 -80 -2 -11 -7 -47 -11
-80 -4 -32 -9 -68 -11 -80 -2 -11 -6 -40 -9 -65 -6 -54 -14 -114 -20 -149 -7
-45 -18 -135 -19 -161 l-1 -25 698 -1 c384 -1 699 2 701 5 5 7 12 59 21 136 3
28 7 59 9 70 2 11 7 47 11 80 4 32 8 66 10 75 3 18 13 88 20 150 3 25 7 61 10
80 3 19 7 55 10 80 3 25 8 63 11 85 3 22 6 51 7 65 l2 25 -120 2 c-159 2 -157
2 -151 12 6 10 10 32 26 166 10 84 14 113 25 190 2 17 7 50 10 75 9 64 14 104
21 148 3 20 7 55 9 77 2 22 5 54 8 70 3 17 8 53 12 80 27 215 147 417 292 490
47 24 70 30 123 29 57 0 72 -5 115 -33 28 -18 62 -49 77 -70 30 -41 67 -128
75 -176 12 -72 6 -269 -11 -350 -2 -11 -7 -47 -10 -80 -4 -33 -9 -71 -11 -85
-7 -43 -15 -103 -20 -155 -3 -27 -8 -61 -10 -75 -6 -36 -14 -99 -20 -145 -2
-22 -7 -56 -10 -75 -2 -19 -7 -55 -10 -80 -4 -25 -8 -56 -10 -70 -2 -14 -9
-68 -15 -120 -6 -52 -13 -106 -16 -120 -7 -42 -16 -113 -19 -145 -2 -16 -4
-30 -4 -30 -1 0 -4 -18 -7 -40 -2 -22 -6 -58 -9 -80 -2 -22 -7 -56 -10 -75 -9
-57 -16 -113 -21 -151 l-5 -36 561 0 c402 0 562 3 569 11 5 6 12 40 15 76 4
36 8 75 10 85 6 34 15 98 22 154 3 30 7 63 10 74 2 11 6 43 9 71 2 28 7 60 9
72 2 11 7 45 10 75 3 30 8 64 10 76 3 12 7 48 11 79 3 31 7 62 8 68 1 7 -35
12 -113 13 -172 2 -159 0 -155 26 2 12 6 40 9 62 8 66 17 138 22 175 13 92 22
166 22 180 0 8 3 26 6 40 3 14 8 48 11 75 3 28 7 64 10 80 5 34 11 76 20 150
31 247 143 443 297 521 67 34 164 38 218 10 43 -24 100 -76 100 -93 0 -7 4
-13 9 -13 5 0 18 -24 29 -52 35 -90 44 -137 44 -228 0 -59 -3 -94 -16 -185 -2
-16 -7 -55 -10 -86 -4 -31 -9 -67 -11 -80 -3 -13 -7 -48 -10 -79 -3 -31 -8
-67 -10 -80 -3 -14 -8 -45 -10 -70 -3 -25 -8 -63 -11 -85 -3 -22 -7 -49 -9
-60 -3 -26 -16 -123 -20 -155 -2 -14 -7 -50 -10 -80 -4 -30 -9 -63 -10 -72 -2
-9 -7 -48 -10 -85 -4 -37 -9 -70 -10 -73 -2 -3 -6 -33 -10 -65 -4 -33 -8 -71
-11 -85 -2 -14 -6 -50 -10 -80 -3 -30 -8 -64 -10 -75 -3 -11 -7 -40 -9 -65 -5
-41 -24 -190 -28 -215 -2 -10 1062 -19 1109 -10 18 4 23 15 29 62 4 32 9 66
11 78 3 11 7 42 9 69 2 27 6 60 9 75 3 14 8 49 11 76 3 28 8 61 10 75 2 14 6
48 10 75 3 28 11 82 16 120 12 80 20 146 22 190 l2 30 -120 2 c-66 0 -126 2
-133 2 -10 1 -12 12 -8 44 3 23 8 67 12 97 3 30 8 66 10 80 2 14 7 45 9 70 3
25 8 61 11 80 3 19 7 50 9 68 2 18 6 50 9 70 3 20 8 57 11 82 4 25 8 56 10 70
5 31 17 128 20 155 5 48 18 142 23 160 12 49 10 313 -3 375 -44 212 -150 391
-294 498 -20 15 -38 29 -41 32 -28 28 -200 98 -263 106 -23 3 -58 7 -77 10
-51 7 -49 7 -130 1 -169 -14 -347 -84 -492 -194 -93 -71 -190 -173 -250 -261
l-35 -52 -19 42 c-22 51 -80 153 -103 181 -82 101 -204 193 -311 235 -59 23
-149 45 -190 46 -14 1 -28 4 -31 9 -3 4 -7 5 -10 3z"/>
</g>
</svg>
