<svg width="50" height="64" viewBox="0 0 50 64" fill="none" xmlns="http://www.w3.org/2000/svg">
<g clip-path="url(#clip0_5320_1719)">
<path d="M25.0002 0C12.4711 0 2.27295 10.7915 2.27295 24.0496C2.27295 37.3076 25.0002 64 25.0002 64C25.0002 64 47.7275 37.3076 47.7275 24.0496C47.7275 10.7915 37.571 0 25.0002 0ZM34.4075 24.2698C34.4075 29.7316 30.2034 34.1803 25.0418 34.1803C19.8803 34.1803 15.6762 29.7316 15.6762 24.2698C15.6762 24.2257 15.6762 24.1817 15.6762 24.1817C15.6762 24.1376 15.6762 24.0936 15.6762 24.0496C15.6762 22.0234 16.3422 20.0853 17.5077 18.1473C18.6732 16.2092 19.5057 15.1081 19.5057 15.1081C19.5473 15.2842 19.589 15.7688 19.6722 16.1652C20.2133 18.3675 21.7535 18.852 21.7535 18.852C21.7535 18.852 21.2956 17.3104 21.3788 15.1521C21.3788 14.7997 21.4205 14.4033 21.4621 14.0069C21.92 10.1308 24.5007 6.78321 24.4591 6.8713C24.7921 6.34274 25.1251 5.99036 25.0835 6.03441C25.0835 6.03441 24.8753 9.02959 28.2054 12.8617C32.0765 17.2663 34.4491 19.5568 34.4491 24.0496C34.4491 24.0936 34.4491 24.1376 34.4491 24.1817C34.4075 24.2257 34.4075 24.2698 34.4075 24.2698Z" fill="url(#paint0_linear_5320_1719)"/>
</g>
<defs>
<linearGradient id="paint0_linear_5320_1719" x1="24.859" y1="0" x2="24.859" y2="64" gradientUnits="userSpaceOnUse">
<stop stop-color="#8A69FF"/>
<stop offset="1" stop-color="#4848AF"/>
</linearGradient>
<clipPath id="clip0_5320_1719">
<rect width="50" height="64" fill="white"/>
</clipPath>
</defs>
</svg>
