<svg width="34" height="49" viewBox="0 0 34 49" fill="none" xmlns="http://www.w3.org/2000/svg">
<path d="M17 0.333008C7.6282 0.333008 0 8.42661 0 18.3702C0 28.3137 17 48.333 17 48.333C17 48.333 34 28.3137 34 18.3702C34 8.42661 26.4029 0.333008 17 0.333008ZM24.0366 18.5353C24.0366 22.6317 20.8919 25.9682 17.0311 25.9682C13.1703 25.9682 10.0256 22.6317 10.0256 18.5353C10.0256 18.5023 10.0256 18.4693 10.0256 18.4693C10.0256 18.4362 10.0256 18.4032 10.0256 18.3702C10.0256 16.8506 10.5238 15.397 11.3956 13.9435C12.2674 12.4899 12.8901 11.664 12.8901 11.664C12.9212 11.7962 12.9524 12.1596 13.0147 12.4569C13.4194 14.1086 14.5714 14.472 14.5714 14.472C14.5714 14.472 14.2289 13.3158 14.2912 11.6971C14.2912 11.4328 14.3223 11.1355 14.3535 10.8382C14.696 7.93108 16.6264 5.42041 16.5952 5.48648C16.8443 5.09006 17.0934 4.82578 17.0623 4.85882C17.0623 4.85882 16.9066 7.1052 19.3974 9.97926C22.293 13.2828 24.0678 15.0006 24.0678 18.3702C24.0678 18.4032 24.0678 18.4362 24.0678 18.4693C24.0366 18.5023 24.0366 18.5353 24.0366 18.5353Z" fill="url(#paint0_linear_291_49783)"/>
<defs>
<linearGradient id="paint0_linear_291_49783" x1="6.44485" y1="2.42472" x2="41.409" y2="17.5695" gradientUnits="userSpaceOnUse">
<stop offset="0.22" stop-color="#00FFFF"/>
<stop offset="0.85" stop-color="#0094FF"/>
</linearGradient>
</defs>
</svg>
