<svg width="52" height="72" viewBox="0 0 52 72" fill="none" xmlns="http://www.w3.org/2000/svg">
<path d="M26.0014 0C11.9688 0 0.546875 12.1404 0.546875 27.0557C0.546875 41.9711 26.0014 72 26.0014 72C26.0014 72 51.456 41.9711 51.456 27.0557C51.456 12.1404 40.0807 0 26.0014 0ZM36.5376 27.3035C36.5376 33.448 31.8289 38.4529 26.048 38.4529C20.2672 38.4529 15.5585 33.448 15.5585 27.3035C15.5585 27.254 15.5585 27.2044 15.5585 27.2044C15.5585 27.1549 15.5585 27.1053 15.5585 27.0557C15.5585 24.7763 16.3045 22.596 17.6098 20.4157C18.9152 18.2354 19.8476 16.9966 19.8476 16.9966C19.8942 17.1948 19.9408 17.7398 20.0341 18.1858C20.6401 20.6635 22.3651 21.2085 22.3651 21.2085C22.3651 21.2085 21.8522 19.4742 21.9455 17.0461C21.9455 16.6497 21.9921 16.2037 22.0387 15.7577C22.5515 11.3971 25.442 7.63111 25.3954 7.73021C25.7683 7.13558 26.1413 6.73916 26.0947 6.78871C26.0947 6.78871 25.8616 10.1583 29.5912 14.4694C33.9268 19.4246 36.5842 22.0014 36.5842 27.0557C36.5842 27.1053 36.5842 27.1549 36.5842 27.2044C36.5376 27.254 36.5376 27.3035 36.5376 27.3035Z" fill="url(#paint0_linear_4899_481)"/>
<defs>
<linearGradient id="paint0_linear_4899_481" x1="10.1969" y1="3.13757" x2="62.5792" y2="25.7866" gradientUnits="userSpaceOnUse">
<stop offset="0.22" stop-color="#00FFFF"/>
<stop offset="0.85" stop-color="#0094FF"/>
</linearGradient>
</defs>
</svg>
