<svg width="37" height="49" viewBox="0 0 37 49" fill="none" xmlns="http://www.w3.org/2000/svg">
<g clip-path="url(#clip0_2351_775)">
<path d="M18.1294 -0.000488281C8.13712 -0.000488281 0.00390625 8.13273 0.00390625 18.125C0.00390625 28.1172 18.1294 48.2345 18.1294 48.2345C18.1294 48.2345 36.2548 28.1172 36.2548 18.125C36.2548 8.13273 28.1548 -0.000488281 18.1294 -0.000488281ZM25.6318 18.291C25.6318 22.4074 22.279 25.7602 18.1626 25.7602C14.0462 25.7602 10.6933 22.4074 10.6933 18.291C10.6933 18.2578 10.6933 18.2246 10.6933 18.2246C10.6933 18.1914 10.6933 18.1582 10.6933 18.125C10.6933 16.5979 11.2244 15.1373 12.1539 13.6766C13.0834 12.2159 13.7474 11.386 13.7474 11.386C13.7806 11.5188 13.8138 11.884 13.8802 12.1827C14.3117 13.8426 15.54 14.2077 15.54 14.2077C15.54 14.2077 15.1748 13.0459 15.2412 11.4192C15.2412 11.1536 15.2744 10.8549 15.3076 10.5561C15.6728 7.63478 17.731 5.11182 17.6978 5.17821C17.9634 4.77985 18.229 4.51428 18.1958 4.54747C18.1958 4.54747 18.0298 6.80486 20.6855 9.69298C23.7728 13.0127 25.665 14.7389 25.665 18.125C25.665 18.1582 25.665 18.1914 25.665 18.2246C25.6318 18.2578 25.6318 18.291 25.6318 18.291Z" fill="url(#paint0_linear_2351_775)"/>
</g>
<defs>
<linearGradient id="paint0_linear_2351_775" x1="4.19789" y1="6.42917" x2="32.0814" y2="34.3127" gradientUnits="userSpaceOnUse">
<stop offset="0.1485" stop-color="#FF004F"/>
<stop offset="0.5017" stop-color="#FF4D00"/>
<stop offset="0.8523" stop-color="#FF7400"/>
</linearGradient>
<clipPath id="clip0_2351_775">
<rect width="36.2841" height="48.2682" fill="white"/>
</clipPath>
</defs>
</svg>
