<svg width="49" height="64" viewBox="0 0 49 64" fill="none" xmlns="http://www.w3.org/2000/svg">
<g clip-path="url(#clip0_1831_629)">
<path d="M24.033 0C10.784 0 0 10.784 0 24.033C0 37.282 24.033 63.956 24.033 63.956C24.033 63.956 48.066 37.282 48.066 24.033C48.066 10.784 37.326 0 24.033 0ZM33.9807 24.2531C33.9807 29.7111 29.5351 34.1568 24.077 34.1568C18.619 34.1568 14.1733 29.7111 14.1733 24.2531C14.1733 24.2091 14.1733 24.1651 14.1733 24.1651C14.1733 24.121 14.1733 24.077 14.1733 24.033C14.1733 22.0083 14.8776 20.0715 16.11 18.1348C17.3425 16.1981 18.2228 15.0977 18.2228 15.0977C18.2669 15.2737 18.3109 15.7579 18.3989 16.1541C18.9711 18.3549 20.5997 18.8391 20.5997 18.8391C20.5997 18.8391 20.1155 17.2985 20.2036 15.1417C20.2036 14.7895 20.2476 14.3934 20.2916 13.9972C20.7758 10.1238 23.5048 6.77854 23.4608 6.86657C23.8129 6.33838 24.1651 5.98624 24.121 6.03026C24.121 6.03026 23.901 9.02338 27.4223 12.8528C31.5158 17.2545 34.0248 19.5433 34.0248 24.033C34.0248 24.077 34.0248 24.121 34.0248 24.1651C33.9807 24.2091 33.9807 24.2531 33.9807 24.2531Z" fill="url(#paint0_linear_1831_629)"/>
</g>
<defs>
<linearGradient id="paint0_linear_1831_629" x1="5.56091" y1="8.52525" x2="42.5324" y2="45.4967" gradientUnits="userSpaceOnUse">
<stop offset="0.1485" stop-color="#FF004F"/>
<stop offset="0.5017" stop-color="#FF4D00"/>
<stop offset="0.8523" stop-color="#FF7400"/>
</linearGradient>
<clipPath id="clip0_1831_629">
<rect width="48.11" height="64" fill="white"/>
</clipPath>
</defs>
</svg>
