<svg width="25" height="32" viewBox="0 0 25 32" fill="none" xmlns="http://www.w3.org/2000/svg">
<g clip-path="url(#clip0_1831_650)">
<path d="M12.0165 0C5.39202 0 0 5.39202 0 12.0165C0 18.641 12.0165 31.978 12.0165 31.978C12.0165 31.978 24.033 18.641 24.033 12.0165C24.033 5.39202 18.663 0 12.0165 0ZM16.9904 12.1265C16.9904 14.8556 14.7675 17.0784 12.0385 17.0784C9.30949 17.0784 7.08666 14.8556 7.08666 12.1265C7.08666 12.1045 7.08666 12.0825 7.08666 12.0825C7.08666 12.0605 7.08666 12.0385 7.08666 12.0165C7.08666 11.0041 7.43879 10.0358 8.05502 9.0674C8.67125 8.09904 9.11142 7.54883 9.11142 7.54883C9.13343 7.63686 9.15543 7.87895 9.19945 8.07703C9.48556 9.17744 10.2999 9.41953 10.2999 9.41953C10.2999 9.41953 10.0578 8.64924 10.1018 7.57084C10.1018 7.39477 10.1238 7.1967 10.1458 6.99862C10.3879 5.0619 11.7524 3.38927 11.7304 3.43329C11.9065 3.16919 12.0825 2.99312 12.0605 3.01513C12.0605 3.01513 11.9505 4.51169 13.7111 6.42641C15.7579 8.62724 17.0124 9.77166 17.0124 12.0165C17.0124 12.0385 17.0124 12.0605 17.0124 12.0825C16.9904 12.1045 16.9904 12.1265 16.9904 12.1265Z" fill="url(#paint0_linear_1831_650)"/>
</g>
<defs>
<linearGradient id="paint0_linear_1831_650" x1="2.78046" y1="4.26262" x2="21.2662" y2="22.7484" gradientUnits="userSpaceOnUse">
<stop offset="0.1485" stop-color="#FF004F"/>
<stop offset="0.5017" stop-color="#FF4D00"/>
<stop offset="0.8523" stop-color="#FF7400"/>
</linearGradient>
<clipPath id="clip0_1831_650">
<rect width="24.055" height="32" fill="white"/>
</clipPath>
</defs>
</svg>
