<svg width="73" height="97" viewBox="0 0 73 97" fill="none" xmlns="http://www.w3.org/2000/svg">
<g clip-path="url(#clip0_2351_712)">
<path d="M36.3857 0.0664062C16.4012 0.0664062 0.134766 16.3328 0.134766 36.3173C0.134766 56.3018 36.3857 96.5363 36.3857 96.5363C36.3857 96.5363 72.6366 56.3018 72.6366 36.3173C72.6366 16.3328 56.4366 0.0664062 36.3857 0.0664062ZM51.3906 36.6493C51.3906 44.8821 44.6849 51.5878 36.4521 51.5878C28.2193 51.5878 21.5135 44.8821 21.5135 36.6493C21.5135 36.5829 21.5135 36.5165 21.5135 36.5165C21.5135 36.4501 21.5135 36.3837 21.5135 36.3173C21.5135 33.2632 22.5758 30.3419 24.4348 27.4206C26.2938 24.4993 27.6217 22.8394 27.6217 22.8394C27.6881 23.105 27.7545 23.8353 27.8873 24.4329C28.7504 27.7525 31.207 28.4829 31.207 28.4829C31.207 28.4829 30.4767 26.1591 30.6094 22.9058C30.6094 22.3747 30.6758 21.7771 30.7422 21.1796C31.4726 15.3369 35.589 10.291 35.5226 10.4238C36.0537 9.62709 36.5849 9.09594 36.5185 9.16233C36.5185 9.16233 36.1865 13.6771 41.498 19.4533C47.6726 26.0927 51.457 29.5452 51.457 36.3173C51.457 36.3837 51.457 36.4501 51.457 36.5165C51.3906 36.5829 51.3906 36.6493 51.3906 36.6493Z" fill="url(#paint0_linear_2351_712)"/>
</g>
<defs>
<linearGradient id="paint0_linear_2351_712" x1="8.52274" y1="12.9257" x2="64.2897" y2="68.6928" gradientUnits="userSpaceOnUse">
<stop offset="0.1485" stop-color="#FF004F"/>
<stop offset="0.5017" stop-color="#FF4D00"/>
<stop offset="0.8523" stop-color="#FF7400"/>
</linearGradient>
<clipPath id="clip0_2351_712">
<rect width="72.5682" height="96.5363" fill="white" transform="translate(0.132812 0.0668945)"/>
</clipPath>
</defs>
</svg>
