<svg width="76" height="15" viewBox="0 0 76 15" fill="none" xmlns="http://www.w3.org/2000/svg">
<path fill-rule="evenodd" clip-rule="evenodd" d="M56.1279 14.7305C55.092 14.7305 54.1339 14.5473 53.2537 14.1837C52.3708 13.8174 51.6114 13.3218 50.9726 12.6916C50.334 12.0641 49.8321 11.3261 49.4671 10.4804C49.1022 9.63466 48.9224 8.7297 48.9224 7.76817V7.73047C48.9224 6.76894 49.1048 5.86129 49.4671 5.01019C49.8321 4.1564 50.3393 3.41304 50.9914 2.7801C51.6436 2.14447 52.4084 1.6462 53.2913 1.27991C54.1715 0.913614 55.1296 0.730469 56.1654 0.730469C57.2013 0.730469 58.1594 0.913614 59.0396 1.27991C59.9225 1.6462 60.682 2.14178 61.3207 2.76933C61.9594 3.39688 62.4612 4.13485 62.8262 4.98056C63.1911 5.82627 63.3709 6.73124 63.3709 7.69276V7.73047C63.3709 8.69199 63.1885 9.59965 62.8262 10.4534C62.4612 11.3072 61.954 12.0506 61.3019 12.6835C60.6498 13.3192 59.8849 13.8174 59.002 14.1837C58.1218 14.55 57.1637 14.7305 56.1279 14.7305ZM56.1574 11.3638C56.67 11.3638 57.1369 11.2668 57.5609 11.0756C57.9849 10.8844 58.3419 10.6231 58.6371 10.2972C58.9323 9.97133 59.163 9.58887 59.3294 9.15255C59.4958 8.71623 59.579 8.25567 59.579 7.76817V7.73047C59.579 7.24297 59.4958 6.78241 59.3294 6.34609C59.163 5.90977 58.9269 5.52462 58.6183 5.19334C58.3097 4.85936 57.9447 4.59272 57.5233 4.39611C57.0993 4.1968 56.6324 4.09715 56.1198 4.09715C55.6073 4.09715 55.143 4.19411 54.727 4.38534C54.3111 4.57656 53.9515 4.83782 53.6509 5.16371C53.3503 5.48961 53.1195 5.87206 52.9585 6.30838C52.7975 6.7447 52.717 7.20527 52.717 7.69276V7.73047C52.717 8.21796 52.8002 8.67852 52.9666 9.11485C53.133 9.55117 53.3664 9.93632 53.667 10.2703C53.9676 10.6043 54.3298 10.8709 54.7539 11.0675C55.1779 11.2668 55.6448 11.3665 56.1574 11.3665V11.3638ZM21.9409 0.997323H27.1149C28.3145 0.997323 29.3853 1.16162 30.3245 1.48751C31.2638 1.81341 32.0555 2.27397 32.7022 2.86381C33.3463 3.45365 33.8401 4.15661 34.1782 4.97C34.5163 5.78339 34.6854 6.67758 34.6854 7.65257V7.69028C34.6854 8.66527 34.5137 9.56485 34.1675 10.3917C33.8213 11.2186 33.3248 11.935 32.6727 12.5356C32.0206 13.1389 31.2182 13.6102 30.2682 13.9496C29.3155 14.289 28.2394 14.4587 27.0398 14.4587H21.9409V0.997323ZM27.1793 11.1539C28.2957 11.1539 29.192 10.8603 29.871 10.2705C30.55 9.68066 30.8908 8.84034 30.8908 7.75223V7.71452C30.8908 6.63718 30.55 5.79955 29.871 5.20432C29.192 4.6091 28.293 4.31013 27.1793 4.31013H25.6604V11.1566H27.1793V11.1539ZM15.75 0.99707H19.4856V14.4611H15.75V0.99707ZM47.3709 0.99707H36.6016V14.4611H47.4675V11.2883H40.262V9.15251H46.7V6.20869H40.262V4.16983H47.3709V0.99707ZM67.1547 14.1327C68.2362 14.507 69.3767 14.6929 70.5763 14.6929V14.6902C71.3921 14.6902 72.1328 14.5932 72.7983 14.3939C73.4638 14.1946 74.0328 13.9064 74.5051 13.5294C74.9774 13.1523 75.3451 12.6944 75.6081 12.1558C75.8684 11.6198 75.9999 11.0057 75.9999 10.3135V10.2758C75.9999 9.65095 75.8845 9.10959 75.6537 8.65441C75.4256 8.20193 75.0928 7.81409 74.6581 7.49358C74.2233 7.17307 73.6973 6.90105 73.0774 6.6775C72.4575 6.45395 71.7651 6.26003 70.9976 6.09304C70.5387 5.9907 70.1576 5.89374 69.8571 5.79678C69.5565 5.69982 69.323 5.60555 69.1486 5.50859C68.9742 5.41163 68.8534 5.30659 68.7836 5.19077C68.7139 5.07496 68.679 4.94029 68.679 4.78677V4.74907C68.679 4.50666 68.7917 4.30197 69.0144 4.13498C69.2372 3.968 69.5726 3.8845 70.0208 3.8845C70.6192 3.8845 71.2445 3.99762 71.8886 4.22117C72.5326 4.44741 73.1633 4.776 73.7751 5.21232L75.6349 2.57015C74.905 1.97761 74.0918 1.53052 73.1901 1.22617C72.2911 0.921824 71.266 0.770996 70.1147 0.770996C69.3096 0.770996 68.5877 0.87873 67.949 1.08881C67.3103 1.29889 66.7655 1.59516 66.312 1.98031C65.8585 2.36546 65.5123 2.81794 65.2761 3.34314C65.04 3.86834 64.9219 4.44472 64.9219 5.07227V5.10997C64.9219 5.79947 65.0507 6.38123 65.3137 6.84718C65.5767 7.31582 65.9336 7.70636 66.3872 8.01878C66.8407 8.33121 67.3747 8.58708 67.9866 8.78639C68.6011 8.98569 69.264 9.16615 69.9805 9.33314C70.4421 9.43818 70.8151 9.53514 71.1023 9.6321C71.3894 9.72636 71.6202 9.82602 71.792 9.92836C71.9637 10.0307 72.0818 10.1384 72.1462 10.2462C72.2106 10.3539 72.2428 10.4805 72.2428 10.6206V10.6583C72.2428 10.9518 72.1113 11.1808 71.8483 11.3397C71.5853 11.4986 71.2069 11.5794 70.7078 11.5794C69.1486 11.5794 67.6994 11.0407 66.3576 9.96338L64.2886 12.4493C65.1205 13.1981 66.0759 13.7583 67.1547 14.1327ZM4.2428 11.7141L4.11934 11.3748L3.95833 10.9357H4.82245L7.06328 7.92997L4.5192 0.916504H0L4.02274 12.0104L4.2428 11.7168V11.7141ZM6.62048 7.7145L6.77882 8.15352H5.90127L5.74293 7.7145L5.58192 7.27549H6.45947L6.62048 7.7145ZM5.95226 5.88572L6.11327 6.32474H5.23574L5.07471 5.88572L4.91639 5.44671H5.79392L5.95226 5.88572ZM5.28404 4.05694L5.44236 4.49596H4.56483L4.40649 4.05694L4.24548 3.61793H5.12301L5.28404 4.05694ZM4.4548 1.78645L4.61314 2.22547L4.77415 2.66449H3.8966L3.73559 2.22547L3.57725 1.78645H4.4548ZM0.775553 2.22547L0.617228 1.78645H1.49478L1.65579 2.22547L1.81413 2.66449H0.936579L0.775553 2.22547ZM1.44379 4.05425L1.28276 3.61524H2.16031L2.31863 4.05425L2.47697 4.49326H1.59942L1.4411 4.05425H1.44379ZM2.112 5.88303L1.95366 5.44402H2.83121L2.98954 5.88303L3.15056 6.32204H2.27301L2.112 5.88303ZM2.78022 7.71181L2.61921 7.27279H3.49674L3.65508 7.71181L3.81341 8.15082H2.93588L2.77754 7.71181H2.78022ZM3.44844 9.54059L3.29012 9.10157H4.16765L4.32599 9.54059L4.487 9.9796H3.60947L3.44844 9.54059ZM4.97559 14.5365L9.91076 0.924316H9.91345H14.4326L9.49747 14.5365H4.97559ZM9.97516 1.79696L9.81682 2.23598L9.65581 2.67499H10.5334L10.6944 2.23598L10.8527 1.79696H9.97516ZM9.30963 3.62574L9.14861 4.06476L8.99028 4.50377H9.86781L10.0262 4.06476L10.1872 3.62574H9.30963ZM8.63873 5.45452L8.48039 5.89354L8.31938 6.33255H9.19691L9.35793 5.89354L9.51626 5.45452H8.63873ZM6.52672 13.6504L6.68505 13.2114L6.84607 12.7723H5.96853L5.81019 13.2114L5.64918 13.6504H6.52672ZM7.19494 11.8216L7.35327 11.3826L7.51429 10.9436H6.63674L6.47573 11.3826L6.31739 11.8216H7.19494ZM7.86316 9.99281L8.02148 9.55379H8.02417L8.18251 9.11477H7.30496L7.14664 9.55379L6.98561 9.99281H7.86316ZM7.81217 7.72501L7.65383 8.16402H8.53138L8.68972 7.72501L8.85073 7.28599H7.97318L7.81217 7.72501ZM9.48406 13.6531L9.64508 13.214L9.80341 12.775H8.92588L8.76754 13.214L8.60653 13.6531H9.48406ZM10.155 11.8243L10.3133 11.3853L10.4743 10.9462H9.59678L9.43575 11.3853L9.27743 11.8243H10.155ZM10.8205 9.9955L10.9815 9.55648L11.1399 9.11747H10.2623L10.104 9.55648L9.94296 9.9955H10.8205ZM11.4914 8.16672L11.6497 7.7277H11.6471L11.8081 7.28869H10.9305L10.7722 7.7277L10.6139 8.16672H11.4914ZM12.1569 6.33794L12.318 5.89892L12.4763 5.45991H11.5987L11.4404 5.89892L11.2794 6.33794H12.1569ZM12.8278 4.50916L12.9862 4.07014H12.9835L13.1445 3.63113H12.267L12.1086 4.07014L11.9503 4.50916H12.8278ZM12.6185 2.68038H13.4961L13.6571 2.24136L13.8154 1.80235H12.9379L12.7769 2.24136L12.6185 2.68038Z" fill="white"/>
</svg>
