<svg width="56" height="14" viewBox="0 0 56 14" fill="none" xmlns="http://www.w3.org/2000/svg">
<path d="M3.17221 0.391602L5.90766 6.56647L8.77298 0.391602H11.75V13.6116H8.62492V7.28865H8.58855L6.49994 11.5775H5.05819L3.17221 7.28865H3.13585V13.6116H0.0107422V0.391602H3.17221Z" fill="white"/>
<path d="M14.3037 13.6145V0.394531H21.7931V3.18712H17.5223V5.51731H20.5175V8.36446H17.5223V10.8245H22.0528V13.6171H14.3063L14.3037 13.6145Z" fill="white"/>
<path d="M30.6851 0.391602C32.3867 0.391602 32.9608 1.37095 32.9608 2.5919V6.54829C32.9608 7.71208 32.4438 8.63689 30.9449 8.73041L33.6803 13.6116H30.0019L27.4327 8.73041H27.1366V13.6116H23.918V0.391602H30.6851ZM27.134 5.93782H29.1498C29.4642 5.93782 29.7421 5.65986 29.7421 5.32734V3.79207C29.7421 3.45955 29.4642 3.18159 29.1498 3.18159H27.134V5.93782Z" fill="white"/>
<path d="M35.2158 2.5919C35.2158 1.37095 35.7899 0.391602 37.5096 0.391602H42.0038C43.7053 0.391602 44.2794 1.37095 44.2794 2.5919V4.49606L41.1361 5.08835V3.18419H38.4552V10.8216H41.1361V8.52778L44.2794 9.12007V11.4139C44.2794 12.6348 43.7053 13.6142 42.0038 13.6142H37.5096C35.7899 13.6142 35.2158 12.6348 35.2158 11.4139V2.5945V2.5919Z" fill="white"/>
<path d="M52.7815 5.51438V0.391602H56.0001V13.6116H52.7815V8.26801H49.62V13.6116H46.4014V0.391602H49.62V5.51438H52.7815Z" fill="white"/>
</svg>
