<svg width="57" height="24" viewBox="0 0 57 24" fill="none" xmlns="http://www.w3.org/2000/svg">
<path d="M38.9315 14.2419L38.3655 14.3493C37.8336 14.4437 37.4536 14.559 37.223 14.6952C36.8326 14.9258 36.6387 15.2822 36.6387 15.767C36.6387 16.1967 36.7592 16.5085 37.0003 16.6972C37.2361 16.8911 37.5244 16.9881 37.8676 16.9881C38.41 16.9881 38.9105 16.8282 39.3691 16.5111C39.825 16.1915 40.0635 15.6124 40.0818 14.7686V13.8305C39.922 13.9301 39.7622 14.0113 39.5997 14.0742C39.4372 14.1371 39.2145 14.1947 38.9315 14.2471V14.2419Z" fill="white"/>
<path d="M51.0449 0H10.3374C7.51261 0 5.22503 2.29021 5.22503 5.11235V11.3908H5.21455V18.5496C5.21455 21.4347 2.88241 23.772 0 23.7825H5.24075C6.09499 23.7825 6.89944 23.5755 7.61218 23.2113C8.40091 23.7091 9.33639 24 10.3374 24H51.0449C53.8696 24 56.1572 21.7098 56.1572 18.8876V5.11497C56.1572 2.29021 53.867 0.00262093 51.0449 0.00262093V0ZM13.9325 15.4314C14.5378 16.1598 15.3056 16.5241 16.2384 16.5241C17.1713 16.5241 17.9234 16.2123 18.4238 15.586C18.7016 15.2506 18.9322 14.7448 19.113 14.074H21.812C21.5762 15.4969 20.9735 16.6525 20.0065 17.5434C19.0318 18.4343 17.7871 18.8798 16.2725 18.8798C14.3963 18.8798 12.9211 18.2771 11.8467 17.0744C10.7724 15.8637 10.2352 14.2077 10.2352 12.1009C10.2352 9.82378 10.8457 8.06813 12.0668 6.83393C13.1281 5.75958 14.4802 5.2224 16.1205 5.2224C18.3164 5.2224 19.9201 5.94301 20.9342 7.38159C21.4949 8.19129 21.7963 9.00098 21.8382 9.81592H19.113C18.9374 9.18965 18.7095 8.71798 18.4317 8.40092C17.9364 7.83492 17.2001 7.55192 16.228 7.55192C15.2558 7.55192 14.454 7.95283 13.8827 8.75205C13.3115 9.55126 13.0233 10.6833 13.0233 12.1454C13.0233 13.6076 13.3246 14.7055 13.9299 15.434L13.9325 15.4314ZM32.4062 18.5156H29.8303V12.6485C29.8303 12.1297 29.7412 11.7104 29.5657 11.3908C29.3351 10.9427 28.9001 10.7173 28.2555 10.7173C27.6109 10.7173 27.0816 10.9401 26.7383 11.3855C26.3924 11.831 26.2195 12.4677 26.2195 13.2932V18.5156H23.7065V5.51589H26.2195V10.1277C26.5863 9.56698 27.0082 9.17655 27.4903 8.95644C27.9699 8.73632 28.4782 8.62365 29.0075 8.62365C29.6024 8.62365 30.1448 8.72584 30.6322 8.93285C31.1196 9.13986 31.5178 9.45431 31.8323 9.87881C32.0969 10.2378 32.2594 10.6099 32.3197 10.9898C32.3773 11.3698 32.4088 11.9908 32.4088 12.8529V18.5182L32.4062 18.5156ZM43.1418 18.5156H40.3983C40.3223 18.3216 40.2673 18.1382 40.2385 17.9679C40.2096 17.7976 40.186 17.601 40.1677 17.3836C39.8192 17.7609 39.4183 18.0832 38.965 18.3479C38.4225 18.6597 37.8094 18.8169 37.1254 18.8169C36.2529 18.8169 35.5296 18.568 34.961 18.0701C34.3924 17.5722 34.1068 16.8647 34.1068 15.9502C34.1068 14.7632 34.5627 13.9063 35.4799 13.3744C35.9804 13.0861 36.7193 12.8791 37.6914 12.756L38.5509 12.6512C39.0174 12.5909 39.3501 12.5175 39.5519 12.4311C39.9109 12.2764 40.0917 12.038 40.0917 11.7131C40.0917 11.3174 39.9555 11.0449 39.6803 10.8955C39.4052 10.7462 39.0043 10.6702 38.4723 10.6702C37.8775 10.6702 37.4556 10.8169 37.2067 11.113C37.0285 11.3305 36.9106 11.6266 36.8529 11.9987H34.4186C34.471 11.1549 34.7068 10.4605 35.1261 9.91811C35.7917 9.06911 36.9368 8.64461 38.5588 8.64461C39.6148 8.64461 40.5529 8.85424 41.3731 9.2735C42.1933 9.69276 42.602 10.4841 42.602 11.6449V16.0708C42.602 16.3773 42.6073 16.7494 42.6204 17.187C42.6387 17.5172 42.6885 17.7425 42.7697 17.8605C42.851 17.9784 42.9767 18.0753 43.1418 18.1513V18.5234V18.5156ZM49.2578 10.754H47.6908V15.8506C47.6908 16.2463 47.7406 16.4926 47.8402 16.5896C47.9397 16.6865 48.2463 16.7363 48.7599 16.7363C48.8359 16.7363 48.9171 16.7363 49.0036 16.7311C49.0901 16.7285 49.1739 16.7232 49.2552 16.718V18.602L48.0603 18.6466C46.868 18.6885 46.0531 18.4815 45.6181 18.0282C45.3351 17.7399 45.1936 17.2945 45.1936 16.6918V10.754H43.8493V8.95644H45.1936V6.26531H47.6882V8.95644H49.2552V10.754H49.2578Z" fill="white"/>
</svg>
