<svg width="67" height="18" viewBox="0 0 67 18" fill="none" xmlns="http://www.w3.org/2000/svg">
<path fill-rule="evenodd" clip-rule="evenodd" d="M37.251 7.66242C37.3336 8.0961 37.3798 8.54196 37.3798 9C37.3798 9.45804 37.3336 9.9039 37.251 10.3376L38.9228 12.0942L37.3045 14.9058L34.9499 14.3332C34.2793 14.9155 33.4969 15.3736 32.6415 15.6708L31.9587 18H28.7222L28.0394 15.6708C27.1816 15.3736 26.4016 14.9155 25.731 14.3332L23.3765 14.9058L21.7582 12.0942L23.4299 10.3376C23.3473 9.9039 23.3011 9.45804 23.3011 9C23.3011 8.54196 23.3473 8.0961 23.4299 7.66242L21.7582 5.90579L23.3765 3.09421L25.731 3.66676C26.4016 3.08446 27.1841 2.62642 28.0394 2.32918L28.7222 0H31.9587L32.6415 2.32918C33.4993 2.62642 34.2793 3.08446 34.9499 3.66676L37.3045 3.09421L38.9228 5.90579L37.251 7.66242ZM27.3007 9C27.3007 10.6835 28.6614 12.0479 30.3405 12.0479C32.0195 12.0479 33.3802 10.6835 33.3802 9C33.3802 7.31646 32.0195 5.95208 30.3405 5.95208C28.6614 5.95208 27.3007 7.31646 27.3007 9ZM48.1721 15.7278H52.4876H52.49L48.2985 10.2484C49.2534 10.0242 49.9775 9.59543 50.4659 8.96197C50.9543 8.33095 51.1997 7.50501 51.1997 6.48904C51.1997 5.92136 51.1074 5.39023 50.9252 4.89321C50.7405 4.39862 50.4708 3.96007 50.1112 3.58243C49.7515 3.20236 49.2947 2.90512 48.7407 2.68584C48.1843 2.46657 47.5379 2.35693 46.7944 2.35693H41.4001V15.7278H44.8651V10.5846L48.1721 15.7278ZM45.5187 8.33338H44.8651V5.03452H45.5187C46.2039 5.03452 46.7288 5.17826 47.0933 5.46089C47.4602 5.74351 47.6424 6.15282 47.6424 6.68395C47.6424 7.21508 47.4577 7.62439 47.0933 7.90701C46.7263 8.19207 46.2015 8.33338 45.5187 8.33338ZM6.57778 10.994L4.27914 2.35944H4.27184H0.646484L4.62661 15.7303H8.16449L10.7814 7.98262L13.3984 15.7303H16.9363L20.9164 2.35944H17.2911L14.9924 10.994L12.164 2.35944H9.40615L6.57778 10.994ZM57.6463 7.8729L61.8719 2.35937H66.1508L60.8635 8.68909L66.6466 15.7278H62.1537L57.6439 9.92921V15.7278H54.1789V2.35693H57.6439V7.87047L57.6463 7.8729Z" fill="white"/>
</svg>
