<svg width="56" height="14" viewBox="0 0 56 14" fill="none" xmlns="http://www.w3.org/2000/svg">
<path fill-rule="evenodd" clip-rule="evenodd" d="M3.17221 0.391602L5.90766 6.56647L8.77298 0.391602H11.75V13.6116H8.62492V7.28865H8.58855L6.49994 11.5775H5.05819L3.17221 7.28865H3.13585V13.6116H0.0107422V0.391602H3.17221ZM14.3035 13.614V0.394043H21.7928V3.18663H17.5221V5.51682H20.5173V8.36397H17.5221V10.824H22.0526V13.6166H14.3061L14.3035 13.614ZM32.9608 2.5919C32.9608 1.37095 32.3867 0.391602 30.6851 0.391602H23.918V13.6116H27.1366V8.73041H27.4327L30.0019 13.6116H33.6803L30.9449 8.73041C32.4438 8.63689 32.9608 7.71208 32.9608 6.54829V2.5919ZM29.1498 5.93782H27.134V3.18159H29.1498C29.4642 3.18159 29.7421 3.45955 29.7421 3.79207V5.32734C29.7421 5.65986 29.4642 5.93782 29.1498 5.93782ZM35.2153 2.5919C35.2153 1.37095 35.7894 0.391602 37.5092 0.391602H42.0033C43.7048 0.391602 44.2789 1.37095 44.2789 2.5919V4.49606L41.1356 5.08835V3.18419H38.4547V10.8216H41.1356V8.52778L44.2789 9.12007V11.4139C44.2789 12.6348 43.7048 13.6142 42.0033 13.6142H37.5092C35.7894 13.6142 35.2153 12.6348 35.2153 11.4139V2.5945V2.5919ZM52.7817 0.391602V5.51438H49.6202V0.391602H46.4016V13.6116H49.6202V8.26801H52.7817V13.6116H56.0003V0.391602H52.7817Z" fill="white"/>
</svg>
