<svg width="70" height="14" viewBox="0 0 70 14" fill="none" xmlns="http://www.w3.org/2000/svg">
<path fill-rule="evenodd" clip-rule="evenodd" d="M41.3516 6.91541C41.3516 3.03216 38.3752 0 34.2677 0C30.1603 0 27.1839 2.93846 27.1839 6.91541C27.1839 10.8924 30.1603 14 34.2677 14C38.3752 14 41.3516 10.7987 41.3516 6.91541ZM37.8653 6.91541C37.8653 9.28388 36.2451 11.0641 34.2677 11.0641C32.2904 11.0641 30.6701 9.19019 30.6701 6.91541C30.6701 4.64064 32.2904 2.93586 34.2677 2.93586C36.2451 2.93586 37.8653 4.54694 37.8653 6.91541ZM0.00518143 11.3089H1.11551L4.78815 0.226562H8.63162L12.3043 11.3089H13.4146V13.7711H7.78268V11.3089H8.94996L8.44009 9.50784H4.97451L4.46462 11.3089H5.6319V13.7711H0V11.3089H0.00518143ZM7.71022 6.93376L7.014 4.43255C6.78883 3.59968 6.75 3.01147 6.75 3.01147H6.67495C6.67495 3.01147 6.63612 3.59968 6.41095 4.43255L5.69401 6.93376H7.71022ZM14.5274 11.3089H16.0337V2.68873H14.5274V0.226562H20.8192C21.8752 0.226562 22.5326 0.265604 23.2884 0.510259C24.7015 1.00217 25.6436 2.1786 25.6436 3.75064C25.6436 4.92446 25.0975 6.06185 24.0415 6.65006V6.6891C25.6436 7.18102 26.1897 8.5084 26.1897 9.79675C26.1897 11.8425 24.7766 13.1881 23.1952 13.5863C22.4783 13.7555 21.914 13.7763 21.179 13.7763H14.5299V11.3141L14.5274 11.3089ZM21.0651 5.47364C21.8933 5.47364 22.2531 4.88542 22.2531 4.16707C22.2531 3.69338 22.0642 3.18064 21.6319 2.99325C21.3861 2.89955 21.1609 2.87873 20.8037 2.87873H19.4087V5.47364H21.0651ZM21.3472 11.1189C21.5931 11.1189 21.8002 11.0799 21.9684 11.0044C22.4964 10.778 22.7785 10.1533 22.7785 9.52606C22.7785 8.72963 22.3256 8.1232 21.3654 8.1232H19.4061V11.1163H21.3472V11.1189ZM43.5361 2.68873H42.0297V0.226562H48.4148V2.68873H46.9085V8.59949C46.9085 9.20593 47.0405 9.73688 47.2475 10.0961C47.6047 10.7025 48.3397 11.0617 49.2637 11.0617C50.1308 11.0617 50.8089 10.7598 51.223 10.1143C51.4689 9.71606 51.5802 9.22415 51.5802 8.59949V2.68873H50.0738V0.226562H56.4589V2.68873H54.9526V8.59949C54.9526 9.9451 54.5384 11.2517 53.8422 12.1236C52.8069 13.4119 51.0159 14.0001 49.2456 14.0001C47.3252 14.0001 45.648 13.3182 44.6671 12.1808C43.8751 11.2725 43.5361 10.0206 43.5361 8.59949V2.68873ZM62.2018 11.3089H60.6955H60.6929V13.7711H67.0779V11.3089H65.5716V2.87873H67.1737V4.79172H70V0.226562H57.7734V4.79172H60.5997V2.87873H62.2018V11.3089Z" fill="white"/>
</svg>
