<svg width="53" height="32" viewBox="0 0 53 32" fill="none" xmlns="http://www.w3.org/2000/svg">
<path d="M26.1078 9.46953H28.6527L28.0775 13.8578H25.5327L24.0035 25.4541C23.7762 27.2161 22.884 28.8659 21.4867 30.1061C20.1091 31.3266 18.406 32 16.6888 32C13.1255 32 10.6003 29.068 11.0576 25.4653L15.4487 25.4457C15.2971 26.6409 16.1136 27.6146 17.2668 27.6146C17.8083 27.6146 18.347 27.4013 18.7847 27.0113C19.2449 26.6045 19.5423 26.0433 19.6153 25.4569L21.1416 13.8606H18.594L19.1719 9.47234H21.7196L22.104 6.5459C22.3285 4.78387 23.2207 3.13126 24.618 1.89391C25.9928 0.673389 27.6959 0 29.4103 0C32.9708 0 35.496 2.93205 35.0387 6.53468L30.6476 6.55712C30.7991 5.36186 29.9854 4.38825 28.8323 4.38825C28.2936 4.38825 27.7576 4.60149 27.3199 4.98869C26.8598 5.39553 26.5652 5.94546 26.4922 6.53468L26.105 9.47234L26.1078 9.46953ZM0.577991 19.0878L0 23.476H7.18001L7.758 19.0878H6.36352L6.90504 14.9633C7.02288 14.0794 7.47742 13.2573 8.20973 12.7495C8.69513 12.4128 9.27313 12.2136 9.87076 12.2136C11.3242 12.2136 12.3483 13.392 12.1575 14.8454L11.0211 23.4732H16.8151L17.3931 19.085H15.9846L16.6748 13.8438C16.8207 12.7299 16.5654 11.7029 16.0182 10.8696C15.2074 9.62946 13.7484 8.82139 11.9779 8.82139C10.2075 8.82139 8.5829 9.60701 7.44656 10.8191L7.62332 9.46673H1.8406L1.2626 13.855H2.65708L1.96966 19.085H0.575187L0.577991 19.0878ZM29.3513 19.0878L28.7733 23.476H35.9534L36.5313 19.0878H35.1369L35.698 14.8342C35.8944 13.3864 36.8316 12.2136 37.7968 12.2136C38.7619 12.2136 39.396 13.392 39.2053 14.8454L38.675 18.8633L38.0689 23.476H43.8544L44.4324 19.0878H43.0323L43.5907 14.8454C43.7815 13.392 44.7242 12.2136 45.6922 12.2136C46.6602 12.2136 47.2915 13.392 47.1007 14.8454L45.9644 23.4732H51.7471L52.3251 19.085H50.9306C50.9306 19.085 51.6209 13.8494 51.6209 13.8438C51.9856 11.0688 50.2713 8.82139 47.7882 8.82139C46.0822 8.82139 44.4605 9.88198 43.4925 11.4476C42.937 9.88479 41.593 8.82139 39.8899 8.82139C38.5263 8.82139 37.2188 9.5032 36.2536 10.5722L36.3995 9.46673H30.6167L30.0388 13.855H31.4332L30.7458 19.085H29.3513V19.0878Z" fill="url(#paint0_linear_2934_2333)"/>
<defs>
<linearGradient id="paint0_linear_2934_2333" x1="9.91846" y1="1.39448" x2="41.8736" y2="33.3468" gradientUnits="userSpaceOnUse">
<stop offset="0.15" stop-color="#F4E832"/>
<stop offset="0.85" stop-color="#F28F1D"/>
</linearGradient>
</defs>
</svg>
