<svg width="69" height="24" viewBox="0 0 69 24" fill="none" xmlns="http://www.w3.org/2000/svg">
<path d="M37.6411 13.032C37.6411 14.1185 37.6411 15.3346 37.6576 16.2887H35.2723C35.2282 15.9853 35.2062 15.3042 35.1951 14.6452C34.6271 15.8089 33.6343 16.5782 31.5221 16.5782C29.4098 16.5782 27.5264 15.3621 27.5264 12.1827V5.1123H29.9751V11.7249C29.9751 13.2581 30.5238 14.5487 32.3052 14.5487C34.3596 14.5487 35.1896 13.3767 35.1896 10.5116V5.1123H37.6411V13.032Z" fill="white"/>
<path d="M42.3291 12.9506C42.6628 14.0894 43.6086 14.765 45.2824 14.765C47.0445 14.765 47.6622 14.1225 47.6622 13.2511C47.6622 12.3797 47.1383 11.8861 44.764 11.4973C41.011 10.8548 40.3382 9.58634 40.3382 8.14138C40.3382 6.58612 41.5212 4.82129 44.9322 4.82129C48.3433 4.82129 49.6615 6.67988 49.7938 8.15517H47.3837C47.2293 7.52645 46.777 6.5944 44.8219 6.5944C43.1619 6.5944 42.7676 7.31963 42.7676 7.92078C42.7676 8.64877 43.2198 9.05413 45.4534 9.43743C49.4353 10.1296 50.1247 11.4229 50.1247 13.0581C50.1247 15.0408 48.5998 16.5767 45.1556 16.5767C42.0258 16.5767 40.2196 15.1621 39.8887 12.9478H42.3319L42.3291 12.9506Z" fill="white"/>
<path d="M52.6172 0H55.0687V2.57831H52.6172V0ZM52.6172 5.10975H55.0687V16.2861H52.6172V5.10975Z" fill="white"/>
<path d="M68.4958 12.7465C68.0078 14.7402 66.4194 16.5795 63.2234 16.5795C59.4979 16.5795 57.6035 14.0591 57.6035 10.7362C57.6035 7.41339 59.6413 4.82129 63.2951 4.82129C66.9488 4.82129 68.2973 7.32239 68.471 8.72047H66.0333C65.7355 7.75257 65.0131 6.76812 63.273 6.76812C61.238 6.76812 60.1129 8.36474 60.1129 10.6838C60.1129 13.0029 61.2021 14.6271 63.251 14.6271C64.7511 14.6271 65.5783 13.9157 66.0554 12.7437H68.4986L68.4958 12.7465Z" fill="white"/>
<path d="M15.5526 5.27275L7.70187 0.615239C7.35166 0.408422 6.91045 0.659359 6.91045 1.06472V12.4231C6.19625 11.9819 5.34968 11.7309 4.44796 11.7475C1.99098 11.7944 -0.00824708 13.8405 2.55815e-05 16.3002C0.0110558 18.8565 2.14815 20.9191 4.72922 20.8088C7.11726 20.7068 9.0641 18.5779 9.0641 16.1871V3.92982L15.2851 7.61942C15.4506 7.71594 15.6546 7.71594 15.8201 7.61942L22.0411 3.92982V15.6108C21.3269 15.1696 20.4831 14.9187 19.5814 14.9352C17.1079 14.9793 15.0976 17.0558 15.1335 19.5293C15.1666 22.0001 17.1878 23.9993 19.6641 23.9993C22.1404 23.9993 24.1975 21.967 24.1975 19.4659V1.06472C24.1975 0.659359 23.7563 0.405665 23.4061 0.615239L15.5554 5.27275H15.5526Z" fill="white"/>
</svg>
