<svg width="82" height="14" viewBox="0 0 82 14" fill="none" xmlns="http://www.w3.org/2000/svg">
<path fill-rule="evenodd" clip-rule="evenodd" d="M33.9662 0C30.0575 0 26.876 3.13983 26.876 7C26.876 10.8602 30.0575 14 33.9662 14C37.8749 14 41.0564 10.8602 41.0564 7C41.0564 3.13983 37.8749 0 33.9662 0ZM33.9662 12.4466C30.9252 12.4466 28.4516 10.0051 28.4516 7.00275C28.4516 4.00039 30.9252 1.55892 33.9662 1.55892C37.0072 1.55892 39.4808 4.00039 39.4808 7.00275C39.4808 10.0051 37.0072 12.4466 33.9662 12.4466ZM62.2857 13.9999C61.2583 13.9999 60.3079 13.8184 59.4347 13.4582C58.5615 13.0981 57.8068 12.6087 57.1733 11.9873C56.5397 11.3687 56.0412 10.6401 55.6803 9.80427C55.3195 8.96845 55.1377 8.07764 55.1377 7.12909V7.0906C55.1377 6.14206 55.3195 5.2485 55.6803 4.40718C56.0412 3.56586 56.5452 2.83176 57.1926 2.2049C57.8399 1.57803 58.6001 1.08589 59.4733 0.725716C60.3465 0.365543 61.2968 0.184082 62.3243 0.184082C63.3517 0.184082 64.302 0.365543 65.1752 0.725716C66.0484 1.08589 66.8032 1.57528 67.4367 2.19665C68.0702 2.81527 68.5688 3.54386 68.9297 4.37968C69.2905 5.2155 69.4723 6.10631 69.4723 7.05486V7.09335C69.4723 8.0419 69.2905 8.9382 68.9297 9.77677C68.5688 10.6181 68.0647 11.3522 67.4174 11.9763C66.7701 12.6004 66.0098 13.0953 65.1366 13.4555C64.2635 13.8157 63.3131 13.9971 62.2857 13.9971V13.9999ZM62.3132 10.6786C62.8201 10.6786 63.2856 10.5851 63.7043 10.3926C64.123 10.2029 64.4783 9.94724 64.7703 9.62556C65.0623 9.30388 65.2909 8.92721 65.4562 8.49555C65.6215 8.06664 65.7041 7.61024 65.7041 7.12909V7.0906C65.7041 6.60945 65.6215 6.1558 65.4562 5.72414C65.2909 5.29524 65.0568 4.91582 64.751 4.58589C64.4453 4.25596 64.0844 3.99477 63.6657 3.79956C63.247 3.60435 62.7815 3.50537 62.2747 3.50537C61.7679 3.50537 61.3051 3.59885 60.8919 3.78856C60.4787 3.97827 60.1234 4.23396 59.8231 4.55564C59.5256 4.87733 59.297 5.25399 59.1373 5.68565C58.9775 6.11456 58.8976 6.57096 58.8976 7.05211V7.0906C58.8976 7.57175 58.9802 8.0254 59.1455 8.45706C59.3108 8.88597 59.5422 9.26813 59.8424 9.59531C60.1427 9.92249 60.5008 10.1864 60.9194 10.3816C61.3381 10.5769 61.8036 10.6758 62.3105 10.6758L62.3132 10.6786ZM0 0.453524H5.70191C6.53929 0.453524 7.29953 0.558002 7.98266 0.766957C8.66579 0.975912 9.24976 1.27835 9.73181 1.67701C10.2139 2.07568 10.583 2.56507 10.8446 3.14795C11.1036 3.73082 11.233 4.38793 11.233 5.12202V5.16051C11.233 5.9441 11.0898 6.6342 10.8061 7.22807C10.5196 7.82194 10.1257 8.32234 9.61886 8.7265C9.11203 9.13066 8.50603 9.43585 7.80363 9.63655C7.10122 9.84001 6.33544 9.94174 5.51458 9.94174H3.69108V13.7359H0.00275723V0.456272L0 0.453524ZM5.43747 7.05486C6.0958 7.05486 6.61365 6.89814 6.98552 6.58746C7.36014 6.27678 7.54744 5.85337 7.54744 5.31998V5.28149C7.54744 4.70961 7.36014 4.27245 6.98552 3.97552C6.6109 3.67583 6.09029 3.52737 5.41818 3.52737H3.68834V7.05486H5.43747ZM12.7919 0.453613H16.4802V5.42455H21.2125V0.453613H24.9009V13.7333H21.2125V8.68535H16.4802V13.7333H12.7919V0.453613ZM42.3098 3.67867H46.3011V13.7333H49.9895V3.67867H53.9808V0.453613H42.3098V3.67867ZM73.2241 13.4085C74.2956 13.7769 75.4277 13.9612 76.6177 13.9612L76.6232 13.9667C77.433 13.9667 78.1685 13.8677 78.8268 13.6725C79.4852 13.4773 80.0498 13.1913 80.5181 12.8201C80.9864 12.4462 81.3527 11.9953 81.6117 11.4647C81.8706 10.9341 82.0001 10.3292 82.0001 9.64733V9.60884C82.0001 8.99022 81.8871 8.45683 81.6585 8.00868C81.4299 7.56052 81.0993 7.17836 80.6696 6.86217C80.2399 6.54599 79.7165 6.27655 79.1023 6.0566C78.4853 5.83664 77.7994 5.64419 77.0391 5.47922C76.5819 5.37749 76.2045 5.27851 75.907 5.18503C75.6095 5.09155 75.3754 4.99808 75.2046 4.90185C75.0338 4.80562 74.9126 4.70114 74.8437 4.58841C74.7749 4.47294 74.7391 4.34096 74.7391 4.18975V4.15126C74.7391 3.91206 74.8493 3.71135 75.0724 3.54639C75.2927 3.38142 75.626 3.29894 76.0695 3.29894C76.6645 3.29894 77.2843 3.41166 77.9233 3.63162C78.5651 3.85157 79.1877 4.17875 79.7964 4.60766L81.6392 2.00122C80.9175 1.41559 80.1077 0.972937 79.2152 0.673251C78.32 0.373565 77.3036 0.225098 76.1632 0.225098C75.3644 0.225098 74.6482 0.332325 74.0146 0.53853C73.3811 0.744736 72.8384 1.03892 72.3895 1.41834C71.9377 1.79776 71.5961 2.24591 71.362 2.7628C71.1251 3.27969 71.0094 3.84882 71.0094 4.46744V4.50593C71.0094 5.18778 71.1389 5.75966 71.3978 6.21881C71.6567 6.68071 72.0121 7.06563 72.4611 7.37357C72.9101 7.68425 73.4389 7.93719 74.0477 8.1324C74.6564 8.32761 75.3148 8.50632 76.0255 8.67129C76.4827 8.77302 76.8546 8.87199 77.1383 8.96547C77.422 9.0617 77.6506 9.15793 77.8214 9.25966C77.9922 9.36139 78.1106 9.46587 78.174 9.57309C78.2373 9.68032 78.2704 9.80404 78.2704 9.94151V9.98001C78.2704 10.2714 78.1409 10.4969 77.8792 10.6536C77.6176 10.8103 77.2402 10.8901 76.7471 10.8901C75.2018 10.8901 73.764 10.3567 72.4335 9.2954L70.3814 11.7479C71.205 12.4847 72.1526 13.0401 73.2241 13.4085ZM29.7101 6.99993C29.7101 4.68492 31.619 2.79883 33.9659 2.79883C36.3128 2.79883 38.2217 4.68492 38.2217 6.99993C38.2217 9.31493 36.3128 11.201 33.9659 11.201C31.619 11.201 29.7101 9.31493 29.7101 6.99993ZM32.5473 6.99993C32.5473 7.78076 33.1836 8.41587 33.9659 8.41587C34.7482 8.41587 35.3845 7.78076 35.3845 6.99993C35.3845 6.21909 34.7482 5.58398 33.9659 5.58398C33.1836 5.58398 32.5473 6.21909 32.5473 6.99993Z" fill="white"/>
</svg>
