<svg width="73" height="17" viewBox="0 0 73 17" fill="none" xmlns="http://www.w3.org/2000/svg">
<path fill-rule="evenodd" clip-rule="evenodd" d="M67.7311 16.2961C70.05 16.2667 72.1106 13.9772 72.9971 12.4332H73L71.5969 11.0595C70.6518 12.5212 69.2223 13.9508 68.3916 13.9508C66.8447 13.9508 67.0178 11.8902 68.8201 6.76801H71.3386L72.0255 4.79253H69.5364C69.9943 3.56263 70.5079 2.21825 71.1097 0.700684H68.5912L67.0736 4.79253H65.6705L65.013 6.76801H66.3867C66.0344 7.79543 65.7193 8.79491 65.4728 9.73613C63.7564 12.7278 61.9645 14.1801 59.4008 14.1801C57.9126 14.1801 56.9116 13.2086 56.9116 11.462C56.9116 9.14606 58.3441 6.71267 59.9174 6.71267C60.9741 6.71267 61.4056 8.00128 60.8039 9.77422H63.3224C64.2089 7.197 63.0347 4.50824 60.2315 4.50824C57.2076 4.50824 54.708 7.49172 54.3989 11.0158C53.1998 12.7902 51.9498 13.9512 51.0786 13.9512C49.9338 13.9512 50.562 12.0344 53.195 4.79297H50.7351L50.2772 6.05222C49.8751 5.25381 48.7303 4.50824 47.5298 4.50824C44.5563 4.50824 42.1553 7.66756 41.7513 11.1282C40.5733 12.8405 39.3719 13.9537 38.5187 13.9537C36.9718 13.9537 37.145 11.8931 38.9473 6.77094H41.4658L42.1527 4.79546H39.6635C40.1214 3.56556 40.6351 2.22118 41.2369 0.703613H38.7183L37.2008 4.79546H35.7977L35.1402 6.77094H36.5139C36.1435 7.85097 35.8143 8.90142 35.5629 9.88628C34.1714 12.2098 32.6558 13.9475 31.5911 13.9475C31.1625 13.9475 30.9042 13.6892 30.9042 13.2313C30.9042 12.5841 31.3855 11.6374 31.9096 10.6064L31.9096 10.6064C32.5431 9.36016 33.2392 7.99091 33.2231 6.87926C33.1967 5.44975 32.2515 4.50458 30.8778 4.50458C29.3603 4.50458 27.7869 5.44975 26.6421 7.25204L27.4992 4.79224H25.0659C24.6666 5.94561 24.2701 7.10152 23.8764 8.25917C23.0078 9.03966 21.8072 9.21238 20.7428 8.8584V8.65879C20.7428 6.5982 19.5129 4.50824 16.9944 4.50824C13.7358 4.50824 11.2712 7.52613 10.8281 11.044C9.3491 13.1521 7.73848 14.1801 5.58147 14.1801C4.09326 14.1801 3.0923 13.2086 3.0923 11.462C3.0923 9.14606 4.52473 6.71267 6.09807 6.71267C7.15479 6.71267 7.58629 8.00128 6.98454 9.77422H9.50306C10.3895 7.197 9.21539 4.50824 6.41215 4.50824C3.17742 4.50824 0.544434 7.91616 0.544434 11.7497C0.544434 14.641 2.49056 16.2995 5.06485 16.2995C7.83013 16.2995 9.64445 15.2216 10.9764 13.6756C11.4666 15.2406 12.7515 16.2995 14.5639 16.2995C17.5404 16.2995 19.6861 13.8103 20.4581 10.919C21.3521 11.1159 22.2523 11.0049 23.0421 10.7274C22.4509 12.4868 21.8663 14.2489 21.2881 16.0111H23.8066C24.7782 12.3184 27.1265 6.76771 29.7301 6.76771C30.3318 6.76771 30.5314 7.11115 30.5314 7.65418C30.5314 8.32543 30.0889 9.20031 29.6031 10.1608L29.6031 10.1609C29.0118 11.3299 28.3564 12.6259 28.3564 13.836L28.3593 13.833C28.3593 15.2919 29.2458 16.2929 30.8484 16.2929C32.3538 16.2929 33.8591 15.0346 35.063 13.503C35.1422 15.2148 35.9194 16.299 37.8583 16.299C39.2871 16.299 40.7149 15.1389 41.8819 13.6906C42.3046 15.2764 43.4074 16.2995 44.9526 16.2995C46.6991 16.2995 47.6413 15.2692 48.2431 14.3827C48.3575 15.2398 48.9593 16.2995 50.4181 16.2995C51.9237 16.2995 53.4292 15.0113 54.6288 13.4553C55.242 15.2834 56.8721 16.2995 58.8871 16.2995C61.7467 16.2995 63.5894 15.1469 64.9333 13.5158C65.0156 15.2086 65.7875 16.2816 67.7018 16.2961H67.7311ZM18.2272 8.79969C18.2272 7.59914 17.7136 6.65397 16.6246 6.65397C14.8516 6.65397 13.2489 9.51591 13.2489 11.8906C13.2489 13.2937 13.9064 14.0363 14.881 14.0363C16.6275 14.0363 18.2302 11.1744 18.2302 8.79969H18.2272ZM47.7294 6.74202C48.5865 6.74202 49.3321 7.25571 49.6462 7.94257V7.94551C48.472 11.8935 47.3008 13.9541 45.7833 13.9541C44.7236 13.9541 44.2099 13.009 44.2099 11.9787C44.2099 9.48949 45.613 6.74202 47.7294 6.74202Z" fill="white"/>
</svg>
