<svg width="104" height="16" viewBox="0 0 104 16" fill="none" xmlns="http://www.w3.org/2000/svg">
<path fill-rule="evenodd" clip-rule="evenodd" d="M58.013 13.5151C58.013 13.9697 58.305 14.3127 58.5505 14.6012C58.7288 14.8106 58.8825 14.9912 58.8825 15.165C58.8825 15.3409 58.7213 15.5 58.4362 15.5H54.8747C54.5925 15.5 54.4284 15.3437 54.4284 15.165C54.4284 14.9914 54.5818 14.8114 54.7598 14.6027C55.0055 14.3145 55.2979 13.9716 55.2979 13.5151V2.83668C54.2241 2.83668 54.0584 2.97676 53.6653 3.30899L53.5963 3.36711C53.5319 3.42107 53.4731 3.47131 53.4186 3.51778C53.0956 3.79351 52.9279 3.93663 52.6865 3.93663C52.4648 3.93663 52.3208 3.76075 52.3208 3.52345V0.952262C52.3208 0.636796 52.4417 0.5 52.7671 0.5C52.872 0.5 52.9703 0.518285 53.1035 0.543064C53.3835 0.595133 53.8177 0.675879 54.7912 0.675879H58.5169C58.8422 0.675879 59.3662 0.617253 59.7722 0.558626C60.1148 0.519542 60.3193 0.5 60.4402 0.5C60.7655 0.5 60.9872 0.695422 60.9872 1.01089V3.4062C60.9872 3.72167 60.7655 3.93663 60.4402 3.93663C60.1782 3.93663 60.0141 3.78029 59.6714 3.38666C59.6394 3.35252 59.6099 3.32035 59.5821 3.29004C59.2577 2.93617 59.1664 2.83668 58.0101 2.83668V13.5151H58.013ZM29.6562 15.4979C29.3741 15.4979 29.21 15.3416 29.21 15.1629C29.21 14.9894 29.3634 14.8094 29.5414 14.6006C29.7871 14.3125 30.0795 13.9696 30.0795 13.513V2.65875C30.0795 2.20418 29.7875 1.86115 29.5419 1.57264C29.3637 1.36326 29.21 1.18259 29.21 1.00884C29.21 0.832956 29.3712 0.673828 29.6562 0.673828H36.742C37.2286 0.673828 37.4301 0.869249 37.4301 1.34105V3.58002C37.4301 3.87316 37.3696 3.97366 37.2084 4.09091C36.8831 4.32542 35.3052 5.36674 35.0634 5.36674C34.9022 5.36674 34.7179 5.2104 34.7179 4.99264V2.83463H33.0566C32.9155 2.83463 32.7946 2.95188 32.7946 3.06914V7.8793L34.597 6.77935C34.7783 6.6621 34.9626 6.58393 35.1239 6.58393C35.3657 6.58393 35.5097 6.77936 35.5097 6.99711V8.80336C35.5097 9.13837 35.4291 9.29471 35.1239 9.47059L32.7946 10.9028V13.0998C32.7946 13.2366 32.9155 13.3344 33.0566 13.3344H34.7179V12.0976C34.7179 11.8045 34.7783 11.704 34.9396 11.5867C35.2621 11.3522 36.8427 10.3109 37.0846 10.3109C37.2458 10.3109 37.4301 10.4672 37.4301 10.685V14.8279C37.4301 15.2997 37.2286 15.4952 36.742 15.4952H29.6562V15.4979ZM19.9416 15.1426C19.9416 15.3575 19.7804 15.4971 19.4953 15.4971H16.1756C15.8503 15.4971 15.7092 15.3408 15.7092 15.1426C15.7092 15.0006 15.8158 14.8791 15.9331 14.7453C16.0766 14.5817 16.2361 14.3999 16.2361 14.1403C16.2361 14.0035 15.5681 11.3542 15.5681 11.3542L11.9029 13.2777V13.8081C11.9029 14.2747 12.1739 14.5523 12.3853 14.7688C12.5205 14.9072 12.6313 15.0206 12.6313 15.1426C12.6313 15.338 12.4902 15.4971 12.1649 15.4971H8.56297C8.27793 15.4971 8.1167 15.3603 8.1167 15.1426C8.1167 15.0031 8.27087 14.8489 8.45883 14.6609C8.69604 14.4237 8.98707 14.1327 9.08987 13.7495C9.25111 13.1409 12.0036 2.65791 12.0036 2.05211C12.0036 1.84387 11.8404 1.62438 11.6956 1.42977C11.5803 1.27476 11.4767 1.13554 11.4767 1.03033C11.4767 0.815369 11.638 0.675781 11.923 0.675781H16.1123C16.3973 0.675781 16.5586 0.812578 16.5586 1.03033C16.5586 1.13396 16.4557 1.27247 16.3408 1.42708C16.1958 1.62236 16.0317 1.84332 16.0317 2.05211C16.0317 2.66071 18.5222 12.2978 18.7439 13.0823C18.9443 13.82 19.3511 14.3119 19.6341 14.6541C19.8105 14.8674 19.9387 15.0225 19.9387 15.1426H19.9416ZM14.9606 9.01749L13.9874 4.69867L12.6515 10.2151L14.9606 9.01749ZM7.7134 13.906C7.7134 14.6514 6.94465 15.4972 5.70947 15.4972H1.92331C0.829211 15.4972 0 14.9668 0 13.9869V2.18904C0 1.20635 0.829211 0.678711 1.92331 0.678711H5.50505C6.69993 0.678711 7.50897 1.48273 7.50897 2.28954V4.17397C7.50897 4.4671 7.44852 4.5676 7.28729 4.68485C6.96194 4.91936 5.38412 5.96068 5.14227 5.96068C4.98103 5.96068 4.79676 5.80434 4.79676 5.58658V3.09356C4.79676 2.95677 4.67584 2.83951 4.53476 2.83951H2.9771C2.83601 2.83951 2.7151 2.95677 2.7151 3.09356V13.0852C2.7151 13.222 2.83601 13.3392 2.9771 13.3392H4.73917C4.88025 13.3392 5.00119 13.222 5.00119 13.0852V11.4548C5.00119 11.1617 5.06166 11.0612 5.2229 10.9439C5.54825 10.7094 7.12604 9.6681 7.3679 9.6681C7.52913 9.6681 7.71052 9.82444 7.71052 10.0422V13.9087L7.7134 13.906ZM20.4858 10.2933V13.8863V13.8891C20.4858 14.6959 21.2949 15.4999 22.4898 15.4999H26.0715C27.0418 15.4999 27.9948 14.6931 27.9948 13.8891V9.84664C27.9948 9.00074 27.6292 8.6099 26.9612 8.17718L23.581 5.91866C23.2556 5.68416 23.1952 5.52503 23.1952 5.25144V2.83659H25.0782V4.15149C25.0782 4.66238 25.2423 4.83826 25.4237 4.95551C25.4635 4.98058 25.5131 5.01263 25.5706 5.04974C26.0124 5.33499 26.9164 5.91866 27.347 5.91866C27.5514 5.91866 27.7933 5.68416 27.7933 5.32961V2.28661C27.7933 1.4798 27.0044 0.675781 25.7894 0.675781H22.4092C21.3352 0.675781 20.4858 1.20342 20.4858 2.18611V6.09175C20.4858 6.95719 20.9926 7.36757 21.58 7.76121L24.9198 10.0002C25.1847 10.1761 25.2855 10.3547 25.2855 10.6088V13.3363H23.2009V11.491C23.2009 10.9801 23.0368 10.8042 22.8554 10.6869C22.5301 10.4497 21.4187 9.7238 21.0127 9.7238C20.7277 9.7238 20.4858 9.93876 20.4858 10.2933ZM43.9253 10.2933V13.8863V13.8891C43.9253 14.6959 44.7343 15.4999 45.9292 15.4999H49.511C50.4813 15.4999 51.4343 14.6931 51.4343 13.8891V9.84664C51.4343 9.00074 51.0686 8.6099 50.4006 8.17718L47.0204 5.91866C46.6951 5.68416 46.6346 5.52503 46.6346 5.25144V2.83659H48.5176V4.15149C48.5176 4.66238 48.6817 4.83826 48.8631 4.95551C48.9029 4.98057 48.9525 5.01262 49.01 5.04972C49.4518 5.33496 50.3559 5.91866 50.7865 5.91866C50.9909 5.91866 51.2327 5.68416 51.2327 5.32961V2.28661C51.2327 1.4798 50.4438 0.675781 49.2288 0.675781H45.8486C44.7747 0.675781 43.9253 1.20342 43.9253 2.18611V6.09175C43.9253 6.95719 44.432 7.36757 45.0194 7.76121L48.3593 10.0002C48.6242 10.1761 48.7249 10.3547 48.7249 10.6088V13.3363H46.6404V11.491C46.6404 10.9801 46.4763 10.8042 46.2949 10.6869C45.9695 10.4497 44.8582 9.7238 44.4522 9.7238C44.1672 9.7238 43.9253 9.93876 43.9253 10.2933ZM68.3758 15.4971C69.6109 15.4971 70.3797 14.6708 70.3797 13.8863L70.3826 13.8891V2.66071C70.3826 2.20417 70.675 1.86123 70.9207 1.57309C71.0986 1.36435 71.2521 1.18437 71.2521 1.01079C71.2521 0.83212 71.088 0.675781 70.8058 0.675781H67.2442C66.9592 0.675781 66.798 0.834912 66.798 1.01079C66.798 1.18455 66.9517 1.36521 67.1299 1.5746C67.3755 1.8631 67.6675 2.20613 67.6675 2.66071V13.2023C67.6675 13.2805 67.607 13.3391 67.5264 13.3391H65.3209C65.2403 13.3391 65.1798 13.2805 65.1798 13.2023V2.66071C65.1798 2.20417 65.4722 1.86123 65.7179 1.57309C65.8959 1.36435 66.0493 1.18437 66.0493 1.01079C66.0493 0.83212 65.8852 0.675781 65.6031 0.675781H62.0415C61.7564 0.675781 61.5952 0.834912 61.5952 1.01079C61.5952 1.18455 61.749 1.36521 61.9272 1.5746C62.1728 1.8631 62.4647 2.20613 62.4647 2.66071V13.9868C62.4647 15.0058 63.3343 15.4971 64.3881 15.4971H68.3758ZM72.5044 15.4979C72.2222 15.4979 72.0581 15.3416 72.0581 15.1629C72.0581 14.9894 72.2116 14.8094 72.3895 14.6006C72.6352 14.3125 72.9276 13.9696 72.9276 13.513V2.65875C72.9276 2.20418 72.6357 1.86115 72.3901 1.57264C72.2119 1.36326 72.0581 1.18259 72.0581 1.00884C72.0581 0.832956 72.2194 0.673828 72.5044 0.673828H78.355C79.8521 0.673828 80.5604 1.34105 80.5604 2.53871V13.9625C80.5604 14.9647 79.7312 15.4924 78.6371 15.4924H72.5044V15.4979ZM77.566 13.3399C77.7877 13.3399 77.8511 13.3008 77.8511 13.0663V3.11381C77.8511 2.95747 77.7302 2.84021 77.566 2.84021H75.6427V13.3427H77.566V13.3399ZM85.7335 14.6011C85.4879 14.3126 85.1959 13.9696 85.1959 13.515V2.66071C85.1959 2.20417 85.4883 1.86123 85.734 1.57309L85.734 1.57306C85.912 1.36433 86.0655 1.18436 86.0655 1.01079C86.0655 0.83212 85.9014 0.675781 85.6192 0.675781H82.0576C81.7726 0.675781 81.6113 0.834911 81.6113 1.01079C81.6113 1.18455 81.7651 1.36521 81.9433 1.5746C82.1889 1.8631 82.4808 2.20613 82.4808 2.66071V13.515C82.4808 13.9715 82.1884 14.3145 81.9428 14.6026C81.7648 14.8113 81.6113 14.9913 81.6113 15.1649C81.6113 15.3436 81.7754 15.4999 82.0576 15.4999H85.6192C85.9042 15.4999 86.0655 15.3408 86.0655 15.1649C86.0655 14.9911 85.9117 14.8105 85.7335 14.6011ZM87.3213 15.4979C87.0391 15.4979 86.875 15.3416 86.875 15.1629C86.875 14.9894 87.0285 14.8094 87.2064 14.6006C87.4521 14.3125 87.7445 13.9696 87.7445 13.513V2.65875C87.7445 2.20418 87.4526 1.86115 87.207 1.57264C87.0288 1.36326 86.875 1.18259 86.875 1.00884C86.875 0.832956 87.0362 0.673828 87.3213 0.673828H94.407C94.8936 0.673828 95.0951 0.869249 95.0951 1.34105V3.58002C95.0951 3.87316 95.0347 3.97366 94.8735 4.09091C94.5481 4.32542 92.9703 5.36674 92.7284 5.36674C92.5672 5.36674 92.3829 5.2104 92.3829 4.99264V2.83463H90.7216C90.5805 2.83463 90.4596 2.95188 90.4596 3.06914V7.8793L92.262 6.77935C92.4434 6.6621 92.6277 6.58393 92.7889 6.58393C93.0308 6.58393 93.1747 6.77936 93.1747 6.99711V8.80336C93.1747 9.13837 93.0941 9.29471 92.7889 9.47059L90.4596 10.9028V13.0998C90.4596 13.2366 90.5805 13.3344 90.7216 13.3344H92.3829V12.0976C92.3829 11.8045 92.4434 11.704 92.6046 11.5867C92.9271 11.3522 94.5078 10.3109 94.7496 10.3109C94.9109 10.3109 95.0951 10.4672 95.0951 10.685V14.8279C95.0951 15.2997 94.8936 15.4952 94.407 15.4952H87.3213V15.4979ZM96.4912 10.2933V13.8863V13.8891C96.4912 14.6959 97.3003 15.4999 98.4951 15.4999H102.077C103.047 15.4999 104 14.6931 104 13.8891V9.84664C104 9.00074 103.635 8.6099 102.967 8.17718L99.5864 5.91866C99.261 5.68416 99.2005 5.52503 99.2005 5.25144V2.83659H101.084V4.15149C101.084 4.66238 101.248 4.83826 101.429 4.95551C101.469 4.98058 101.518 5.01264 101.576 5.04976C102.018 5.33501 102.922 5.91866 103.352 5.91866C103.557 5.91866 103.799 5.68416 103.799 5.32961V2.28661C103.799 1.4798 103.01 0.675781 101.795 0.675781H98.4145C97.3406 0.675781 96.4912 1.20342 96.4912 2.18611V6.09175C96.4912 6.95719 96.9979 7.36757 97.5853 7.76121L100.925 10.0002C101.19 10.1761 101.291 10.3547 101.291 10.6088V13.3363H99.2063V11.491C99.2063 10.9801 99.0422 10.8042 98.8608 10.6869C98.5354 10.4497 97.4241 9.7238 97.0181 9.7238C96.7331 9.7238 96.4912 9.93876 96.4912 10.2933Z" fill="white"/>
</svg>
