<svg width="96" height="23" viewBox="0 0 96 23" fill="none" xmlns="http://www.w3.org/2000/svg">
<path fill-rule="evenodd" clip-rule="evenodd" d="M0.994392 0.762696C0.356479 0.762696 0 1.11605 0 1.75709V1.76022V16.5948C0 17.2578 0.353352 17.5892 0.994392 17.5892H2.01381C2.67674 17.5892 3.0082 17.2578 3.0082 16.5948V11.9731C3.0082 9.67472 4.38097 7.96736 6.49171 7.96736C8.00832 7.96736 8.38669 8.96176 8.38669 10.4315V16.5917C8.38669 17.2546 8.71815 17.5861 9.38108 17.5861H10.4005C11.0384 17.5861 11.3949 17.2546 11.3949 16.5917V9.81231C11.3949 6.61336 9.85327 5.21558 7.17653 5.21558C5.09393 5.21558 3.57418 6.49766 2.98318 7.65779H2.93628C2.93628 7.65779 3.0082 7.22938 3.0082 6.63838V1.75709C3.0082 1.11918 2.67674 0.762696 2.01381 0.762696H0.994392ZM28.015 8.06117H28.6561L28.6529 8.0643V13.2771C28.6529 16.5479 31.2109 17.7081 33.3685 17.7081C34.1972 17.7081 34.6006 17.4235 34.6006 16.7137V15.9788C34.6006 15.3127 34.341 15.0782 33.6061 15.0063C32.7744 14.9125 31.6611 14.556 31.6611 12.7548V8.06117H33.4373C34.0533 8.06117 34.4098 7.72971 34.4098 7.06678V6.66339C34.4098 6.02548 34.0564 5.669 33.4154 5.669H31.6611V3.2049C31.6611 2.56699 31.3078 2.21051 30.6668 2.21051H29.7193C29.0813 2.21051 28.7249 2.56386 28.7249 3.2049V5.669H28.0369C27.374 5.669 27.0425 6.02235 27.0425 6.66339V7.06678C27.0425 7.72971 27.374 8.06117 28.015 8.06117ZM19.5969 0.010916C19.5927 0.147651 19.5355 1.99908 21.7234 4.35878H21.7266C21.943 4.59228 22.1526 4.81645 22.3548 5.03284C24.6011 7.43604 25.9512 8.88044 25.9512 11.5197V11.6103V11.6729C25.9512 15.1814 23.1056 18.027 19.5971 18.027C16.0885 18.027 13.243 15.1814 13.243 11.6729V11.6103V11.5197C13.243 10.2282 13.7058 8.97427 14.4907 7.73284C15.2755 6.49141 15.8572 5.79408 15.8572 5.79408C15.8629 5.8267 15.8693 5.87993 15.877 5.94491C15.8945 6.09172 15.9192 6.29853 15.9603 6.46326C16.3199 7.8673 17.3581 8.19251 17.3581 8.19251C17.3581 8.19251 17.0485 7.21062 17.0923 5.83473C17.0986 5.6002 17.1142 5.35942 17.1455 5.10614C17.4488 2.62015 19.1999 0.481264 19.1687 0.528169C19.3938 0.202958 19.619 -0.0284416 19.5971 0.00282866C19.5972 0.00305539 19.5971 0.00577258 19.5969 0.010916ZM79.3905 8.06264H80.0316L80.0285 8.06577V13.2785C80.0285 16.5494 82.5864 17.7095 84.744 17.7095C85.5727 17.7095 85.9761 17.425 85.9761 16.7151V15.9803C85.9761 15.3142 85.7165 15.0797 84.9817 15.0078C84.1499 14.914 83.0367 14.5575 83.0367 12.7563V8.06264H84.8128C85.4288 8.06264 85.7853 7.73118 85.7853 7.06825V6.66486C85.7853 6.02695 85.432 5.67047 84.7909 5.67047H83.0367V3.20637C83.0367 2.56846 82.6833 2.21198 82.0423 2.21198H81.0948C80.4569 2.21198 80.1004 2.56533 80.1004 3.20637V5.67047H79.4124C78.7495 5.67047 78.418 6.02382 78.418 6.66486V7.06825C78.418 7.73118 78.7495 8.06264 79.3905 8.06264ZM41.1502 14.864L40.8657 15.2892L40.8688 15.2861C40.5154 15.8083 40.5624 16.3305 41.1065 16.637C41.8413 17.1342 43.1922 17.869 45.1341 17.869C47.9296 17.869 49.7308 16.2805 49.7308 14.1479C49.7308 11.7166 47.6448 10.9916 45.9339 10.397C44.7445 9.98358 43.7363 9.63318 43.7363 8.81629C43.7363 8.05643 44.3773 7.63115 45.3717 7.63115C46.3661 7.63115 47.1479 7.9845 47.6701 8.22216C48.2611 8.48483 48.7114 8.41291 48.9959 7.84379L49.2336 7.41851C49.4931 6.87441 49.4212 6.37721 48.8771 6.09265C48.2392 5.7393 47.1228 5.21708 45.5124 5.21708C42.9764 5.21708 40.8907 6.47415 40.8907 8.84443C40.8907 11.2998 42.9927 12.0435 44.7072 12.6501C45.8881 13.0679 46.8852 13.4207 46.8852 14.2229C46.8852 14.9797 46.2442 15.455 45.2029 15.455C44.0313 15.455 43.1595 14.9828 42.5874 14.6729L42.5011 14.6263C41.9101 14.3199 41.5067 14.3668 41.1502 14.864ZM52.5321 5.50164C51.8941 5.50164 51.5377 5.855 51.5377 6.49604V6.49916V21.3338C51.5377 21.9967 51.891 22.3282 52.5321 22.3282H53.5515C54.2144 22.3282 54.5459 21.9967 54.5459 21.3338V17.0685C54.5459 16.4525 54.474 16.0272 54.474 16.0272H54.5208C54.5208 16.0272 55.4934 17.8753 58.0044 17.8753C61.1783 17.8753 63.5486 15.2924 63.5486 11.5462C63.5486 7.80001 61.441 5.21708 58.1701 5.21708C55.3495 5.21708 54.2832 7.34972 54.2832 7.34972H54.2363C54.2363 7.34972 54.2613 7.13395 54.2613 6.87441V6.3303C54.2613 5.85812 53.9298 5.50164 53.2888 5.50164H52.5321ZM60.4966 11.5931C60.4966 13.9853 59.1238 15.3361 57.4634 15.3361H57.4603C55.4934 15.3361 54.4521 13.4881 54.4521 11.615C54.4521 8.93825 55.9468 7.80001 57.5103 7.80001C59.2645 7.80001 60.4966 9.20092 60.4966 11.5931ZM71.3209 5.21708C74.9952 5.21708 77.9815 7.84691 77.9815 11.5462C77.9815 15.2455 74.9952 17.8753 71.3209 17.8753C67.6467 17.8753 64.6854 15.2673 64.6854 11.5462C64.6854 7.82502 67.6467 5.21708 71.3209 5.21708ZM71.3209 15.3143C73.2878 15.3143 74.9233 13.7976 74.9233 11.5462C74.9233 9.29473 73.2878 7.77812 71.3209 7.77812C69.354 7.77812 67.7436 9.31974 67.7436 11.5462C67.7436 13.7726 69.354 15.3143 71.3209 15.3143ZM87.1355 15.2892L87.42 14.864C87.7765 14.3668 88.1799 14.3199 88.7709 14.6263L88.8572 14.6729C89.4293 14.9828 90.3011 15.455 91.4726 15.455C92.5139 15.455 93.155 14.9797 93.155 14.2229C93.155 13.4207 92.1579 13.0679 90.977 12.6501C89.2625 12.0435 87.1605 11.2998 87.1605 8.84443C87.1605 6.47415 89.2462 5.21708 91.7822 5.21708C93.3926 5.21708 94.509 5.7393 95.1469 6.09265C95.691 6.37721 95.7629 6.87441 95.5034 7.41851L95.2657 7.84379C94.9812 8.41291 94.5309 8.48483 93.9399 8.22216C93.4176 7.9845 92.6359 7.63115 91.6415 7.63115C90.6471 7.63115 90.0061 8.05643 90.0061 8.81629C90.0061 9.63318 91.0142 9.98358 92.2037 10.397C93.9146 10.9916 96.0006 11.7166 96.0006 14.1479C96.0006 16.2805 94.1994 17.869 91.4038 17.869C89.462 17.869 88.1111 17.1342 87.3762 16.637C86.8321 16.3305 86.7852 15.8083 87.1386 15.2861L87.1355 15.2892Z" fill="white"/>
</svg>
