<svg width="51" height="15" viewBox="0 0 51 15" fill="none" xmlns="http://www.w3.org/2000/svg">
<path fill-rule="evenodd" clip-rule="evenodd" d="M6.79822 14.38V12.6377H8.50526V7.38H5.09119V9.13771H6.79822V12.6377H1.69206V2.13771H6.79822V3.88H8.50526V2.13771H6.79822V0.380005H1.69206V2.13771H0V12.6377H1.69206V14.38H6.79822ZM16.9905 7.38H15.2985V3.88H16.9905V7.38ZM11.8844 7.38H10.1923V14.38H11.8993V10.88H16.9905V14.38H18.6976V7.38H16.9905V9.13771H11.8844V7.38ZM13.5914 3.88V0.380005H15.2985V3.88H13.5914ZM13.5914 3.88H11.8844V7.38H13.5914V3.88ZM27.1828 7.38V5.63771H28.8749V3.88H30.5819V14.38H32.289V0.380005H30.5819V2.13771H28.8749V3.88H27.1828V5.63771H25.4758V3.88H23.7837V2.13771H22.0767V0.380005H20.3846V14.38H22.0916V3.88H23.7837V5.63771H25.4758V7.38H27.1828ZM40.7823 14.38H33.9841V0.380005H40.7823V2.13771H35.6762V5.63771H39.0902V7.38H35.6762V12.6377H40.7823V14.38ZM49.293 12.6377V7.38H51V12.6377H49.293ZM44.1868 12.6377H49.293V14.38H44.1868V12.6377ZM44.1868 12.6377H42.4947V10.88H44.1868V12.6377ZM44.1868 2.1223H42.4947V5.63771H44.1868V7.38H49.293V5.6223H44.1868V2.1223ZM49.293 2.1223H44.1868V0.380005H49.293V2.1223ZM49.293 2.1223H51V3.88H49.293V2.1223Z" fill="white"/>
</svg>
