<svg width="73" height="12" viewBox="0 0 73 12" fill="none" xmlns="http://www.w3.org/2000/svg">
<path fill-rule="evenodd" clip-rule="evenodd" d="M6.51367 0.559998C3.33116 0.559998 0.959473 2.94951 0.959473 6.0806C0.959473 9.45887 3.63522 11.56 6.65557 11.56C8.64211 11.56 10.2232 10.6124 10.9327 9.93266L10.0205 8.07872C9.45294 8.53191 8.25696 9.35588 6.79746 9.35588C5.0339 9.35588 3.55413 8.18172 3.55413 6.0188C3.55413 4.10307 4.70957 2.78472 6.59476 2.78472C7.4664 2.78472 8.52048 3.09371 8.52048 3.81468V4.51505H10.7503V3.07311C10.7503 1.21917 8.23669 0.559998 6.51367 0.559998ZM12.1411 8.36711C12.1411 5.15363 16.2966 4.82404 17.9588 4.82404H18.6075V4.47386C18.6075 3.1349 17.7764 2.66112 16.702 2.66112C15.9114 2.66112 15.2222 2.90831 14.6749 3.1555C14.3506 3.2997 14.0465 3.48509 13.783 3.67048L12.8303 1.85775C13.1546 1.61056 13.5195 1.38397 13.9452 1.19857C14.6547 0.868986 15.6885 0.559998 16.925 0.559998C19.7021 0.559998 21.1819 2.00195 21.1819 4.70045V8.90269C21.1819 9.21168 21.3237 9.35588 21.6278 9.35588H22.5603V11.3128H20.1278C19.175 11.3128 18.8102 10.7978 18.8102 10.2004V10.0769C18.8102 9.91206 18.8304 9.78846 18.8507 9.68547C18.871 9.62367 18.871 9.58247 18.871 9.54127H18.8304C18.648 9.91206 18.4048 10.2416 18.1007 10.5506C17.5534 11.0656 16.7831 11.56 15.5668 11.56C13.783 11.56 12.1411 10.5094 12.1411 8.36711ZM14.7357 8.16112C14.7357 8.96449 15.283 9.60307 16.2358 9.60307C17.6345 9.60307 18.6277 8.07872 18.6277 6.76037V6.41018H18.202C17.1682 6.41018 14.7357 6.57498 14.7357 8.16112ZM32.7717 6.06C32.7717 2.82592 34.9204 0.559998 38.0218 0.559998C41.0016 0.559998 42.6233 2.76412 42.6233 5.54502C42.6233 5.68921 42.6233 5.9158 42.603 6.1012L42.5625 6.43078H35.4069C35.569 8.34651 36.9474 9.35588 38.5083 9.35588C39.3799 9.35588 40.0894 9.10869 40.6367 8.7997C40.9611 8.6349 41.2449 8.44951 41.5084 8.24352L42.5016 10.0975C42.1976 10.3652 41.8124 10.5918 41.3867 10.8184C40.657 11.2098 39.6232 11.56 38.3259 11.56C34.9001 11.56 32.7717 9.02629 32.7717 6.06ZM35.4677 4.88584H39.9678C39.907 3.42329 39.0759 2.57872 37.961 2.57872C36.6434 2.57872 35.7109 3.48509 35.4677 4.88584ZM49.3251 0.559998C46.2237 0.559998 44.075 2.82592 44.075 6.06C44.075 9.02629 46.2034 11.56 49.6292 11.56C50.9265 11.56 51.9604 11.2098 52.6901 10.8184C53.1158 10.5918 53.5009 10.3652 53.805 10.0975L52.8117 8.24352C52.5482 8.44951 52.2644 8.6349 51.9401 8.7997C51.3928 9.10869 50.6833 9.35588 49.8116 9.35588C48.2508 9.35588 46.8724 8.34651 46.7102 6.43078H53.8658L53.9063 6.1012C53.9266 5.9158 53.9266 5.68921 53.9266 5.54502C53.9266 2.76412 52.305 0.559998 49.3251 0.559998ZM51.2711 4.88584H46.771C47.0143 3.48509 47.9467 2.57872 49.2643 2.57872C50.3792 2.57872 51.2103 3.42329 51.2711 4.88584ZM64.4052 9.02629V7.81093H66.5944V8.42891C66.5944 9.14989 67.5472 9.52067 68.6215 9.52067C69.6553 9.52067 70.3851 9.17048 70.3851 8.44951C70.3851 7.65456 69.5636 7.36396 68.361 6.93851C68.2547 6.90093 68.1455 6.86229 68.0337 6.82217C66.5336 6.26599 64.7701 5.58621 64.7701 3.56749C64.7701 1.34277 66.9796 0.559998 68.8445 0.559998C70.3445 0.559998 72.5743 1.15738 72.5743 2.74352V4.08247H70.3648V3.48509C70.3648 2.92891 69.7567 2.61992 68.8445 2.61992C68.0337 2.61992 67.3445 2.90831 67.3445 3.56749C67.3445 4.43266 68.358 4.80344 69.5134 5.13303C71.0946 5.62741 72.9595 6.30719 72.9595 8.36711C72.9595 10.5094 70.9729 11.56 68.6012 11.56C66.7363 11.56 64.4052 10.736 64.4052 9.02629ZM55.6014 11.3128V9.35583H57.1014V3.21725C57.1014 2.90826 56.9595 2.76407 56.6554 2.76407H55.5V0.807138H58.196C59.1082 0.807138 59.5744 1.23972 59.5744 2.08429V2.70227C59.5744 2.88766 59.5744 3.03186 59.5542 3.17605C59.5339 3.23785 59.5339 3.29965 59.5339 3.36145H59.5744C60.0609 1.8577 61.2569 0.662944 62.8583 0.662944C63.0002 0.662944 63.1016 0.662943 63.1826 0.683542C63.2434 0.704141 63.284 0.704141 63.3245 0.704141V3.27905C63.2637 3.27905 63.2029 3.27905 63.1421 3.25845C63.0002 3.23785 62.8786 3.23785 62.6961 3.23785C60.6082 3.23785 59.6758 5.09178 59.6758 7.06931V9.35583H61.1556V11.3128H55.6014ZM23.9681 9.35583V11.3128H29.5223V9.35583H28.0425V7.06931C28.0425 5.09178 28.9749 3.23785 31.0628 3.23785C31.2453 3.23785 31.3669 3.23785 31.5088 3.25845C31.5696 3.27905 31.6304 3.27905 31.6912 3.27905V0.704141C31.6507 0.704141 31.6101 0.704141 31.5493 0.683542C31.4682 0.662943 31.3669 0.662944 31.225 0.662944C29.6236 0.662944 28.4276 1.8577 27.9411 3.36145H27.9006C27.9006 3.29965 27.9006 3.23785 27.9209 3.17605C27.9411 3.03186 27.9411 2.88766 27.9411 2.70227V2.08429C27.9411 1.23972 27.4749 0.807138 26.5627 0.807138H23.8667V2.76407H25.0221C25.3262 2.76407 25.4681 2.90826 25.4681 3.21725V9.35583H23.9681Z" fill="white"/>
</svg>
