<svg width="100" height="35" viewBox="0 0 100 35" fill="none" xmlns="http://www.w3.org/2000/svg">
<path fill-rule="evenodd" clip-rule="evenodd" d="M86.0621 12.5056C87.2508 12.5084 98.6348 12.5084 98.6348 12.5084L98.6377 12.5113C99.3614 12.497 99.6462 13.4755 99.0126 13.836C97.9576 14.4482 96.9027 15.0605 95.8535 15.6871C92.8309 17.4839 89.8142 19.2921 86.8526 21.1919C87.0677 25.1517 87.492 29.0971 87.9599 33.0369C88.0064 33.4231 87.7303 33.7751 87.3409 33.8237C87.1258 33.8523 86.9224 33.7779 86.7712 33.6434C86.7712 33.6434 78.9736 26.9713 78.2761 26.3734C77.3606 26.8769 76.4538 27.3919 75.5528 27.9212C73.4545 29.1572 71.359 30.439 69.3159 31.7637C68.2987 32.4418 67.3018 33.1485 66.3689 33.961C65.3284 34.8165 64.0002 33.3545 65.0058 32.4189C65.0959 32.3388 65.2034 32.2787 65.3081 32.2358C66.738 31.675 68.101 30.9397 69.4234 30.1872C72.321 28.4963 75.2099 26.7739 77.9912 24.897C78.2586 24.7139 78.6103 24.754 78.837 24.9657C78.837 24.9657 84.5101 29.821 86.4079 31.4461C86.1609 27.9155 85.8615 24.3877 85.3907 20.88C85.3529 20.5968 85.4954 20.3336 85.7337 20.2048C86.7974 19.604 87.8524 18.9888 88.9016 18.3651C90.997 17.1119 93.0838 15.8416 95.1589 14.557C95.493 14.351 95.8243 14.1422 96.1555 13.9334L96.1557 13.9332H85.4082C85.0332 13.9332 84.7252 13.6471 84.6903 13.2838L83.7661 3.26416L77.8576 13.5699C77.7239 13.7988 77.4797 13.9304 77.2298 13.9304H66.18C66.1361 14.0062 66.0913 14.0834 66.0456 14.162C65.9311 14.3592 65.8114 14.5653 65.6888 14.7801C63.8142 18.0647 62.0414 21.9472 62.0414 23.6381C62.0414 23.8016 62.1124 23.9754 62.1764 24.1321C62.229 24.2606 62.2768 24.3776 62.2768 24.4679C62.2768 24.7683 61.9774 25.2318 61.4746 25.2318C60.873 25.2318 60.5388 24.7683 60.5388 23.8384C60.5388 23.2519 60.7248 22.4365 61.0242 21.5066C59.5565 22.8542 57.8766 24.0358 56.7577 24.0358C56.0544 24.0358 55.2842 23.4379 55.2842 22.2762C55.2842 20.8142 56.9902 17.564 57.2576 17.0662C57.6615 16.4052 57.9958 15.8731 58.4637 15.8731C58.9316 15.8731 59.3007 16.1363 59.3007 16.5683C59.3007 16.9545 59.1373 17.1818 58.9668 17.4189C58.9327 17.4664 58.8982 17.5143 58.8648 17.564C57.8941 19.1233 56.9582 21.4122 56.9582 22.076C56.9582 22.3106 57.1239 22.6081 57.4261 22.6081C58.3271 22.6081 60.7393 20.3507 61.8757 18.8257C61.9891 18.6856 62.1082 18.5425 62.2245 18.408C62.6575 17.4238 63.82 14.9804 64.4449 13.9275H63.0121C62.0065 13.9275 60.998 14.0448 60.0476 14.3624C59.9459 14.3967 59.85 14.4139 59.7715 14.4139C59.2368 14.4139 59.0362 13.7187 59.0362 13.2208C59.0362 12.6915 59.5739 12.0277 60.3092 12.0277C60.4255 12.0277 60.5417 12.0449 60.6492 12.0878C61.4252 12.4054 62.2797 12.4998 63.1225 12.4998H65.2645C65.362 12.3264 65.4541 12.1618 65.5417 12.0053C66.0887 11.0283 66.4593 10.3663 66.8601 9.83614C67.4297 9.04075 67.8307 8.64305 68.3335 8.64305C68.9352 8.64305 69.1706 8.90914 69.1706 9.40697C69.1706 9.839 69.0369 10.1022 68.3684 10.6344C68.072 10.8432 67.6477 11.4612 67.0199 12.5056H76.8113L83.6295 0.609052C83.7952 0.317219 84.1497 0.156997 84.4607 0.242831C84.7717 0.328664 84.9635 0.589025 84.9897 0.866553C84.9897 0.866553 85.9546 11.3411 86.0621 12.5056ZM40.6914 19.8899C42.5659 17.6668 44.7079 15.7756 46.6144 15.7756V15.787C47.4834 15.787 48.0531 16.4193 48.0531 17.3807C48.0531 20.1674 45.4752 23.9498 42.9321 23.9498C41.694 23.9498 41.3918 23.3861 41.3918 22.7882C41.3918 22.3905 41.7609 21.9585 42.2957 21.9585C42.4468 21.9585 42.5972 22.0414 42.7476 22.1244C42.898 22.2074 43.0484 22.2903 43.1995 22.2903C44.4376 22.2903 46.3122 19.4693 46.3122 17.91C46.3122 17.5781 46.0128 17.3778 45.7106 17.3778C45.0741 17.3778 43.6355 18.671 41.9963 20.4621C41.3598 21.1573 40.6565 22.3848 40.6565 22.8826C40.6565 23.4462 39.9183 24.11 39.5172 24.11C39.0842 24.11 38.7151 23.9126 38.7151 22.751C38.7151 22.1187 38.7587 21.4721 38.8342 20.8169C37.2241 22.4792 34.9572 24.1787 32.0887 24.1787C31.0366 24.1787 30.1414 23.3976 30.0542 22.0672C28.758 23.2145 27.3514 24.1443 26.2644 24.1443C24.9246 24.1443 23.7533 23.183 23.7533 21.5894C23.7533 21.4861 23.7589 21.3774 23.7645 21.2659V21.2659V21.2659L23.765 21.2575C22.1926 22.7624 20.0769 24.1758 17.4641 24.1758C16.4963 24.1758 15.6534 23.5092 15.4645 22.359C12.503 25.3346 8.53586 28.5218 4.94946 28.5218C2.13614 28.5218 0.363281 26.7966 0.363281 23.678C0.363281 15.0861 10.4017 5.86184 16.3597 5.86184C17.9669 5.86184 19.1032 6.59143 19.1032 8.28234C19.1032 11.1349 15.4558 15.0832 13.6829 15.0832C12.9825 15.0832 12.6803 14.8486 12.6803 14.3851C12.6803 13.9874 12.8488 13.4238 13.8864 13.192C15.3599 12.8601 17.3013 10.3052 17.3013 8.31382C17.3013 7.75018 16.9671 7.35248 16.2638 7.35248C11.5468 7.35248 2.2088 16.1418 2.2088 23.5406C2.2088 25.4318 3.28124 26.891 4.98724 26.891C9.21303 26.891 13.7033 22.7166 16.1359 19.8412C17.4408 17.2348 19.5799 15.9444 21.2161 15.9444C21.9194 15.9444 22.6896 16.4766 22.6896 17.2061C22.6896 18.9314 19.8792 20.8884 17.6704 21.3862C17.2345 21.4864 17.1008 21.7181 17.1008 21.9499C17.1008 22.216 17.4001 22.8454 18.0366 22.8454C20.7569 22.8454 22.9454 20.4506 24.1747 18.9743C24.91 16.2162 26.4911 12.7857 27.8745 10.4368C29.8799 7.05207 31.3882 5.42695 33.2948 5.42695C34.0998 5.42695 34.6346 6.09073 34.6346 6.78598C34.6346 7.74732 34.1667 9.77012 31.7573 12.8229C29.8828 15.1776 28.2756 16.571 26.5027 17.9643C25.968 18.8942 25.5 20.7196 25.5 21.4148C25.5 22.2446 25.8662 22.7081 26.5027 22.7081C27.6798 22.7081 29.7374 20.8855 30.9901 19.4092C32.3095 17.0888 34.2975 15.9387 35.8407 15.9387C36.544 15.9387 37.3142 16.4708 37.3142 17.2004C37.3142 18.9257 34.5038 20.8827 32.295 21.3805C31.8591 21.4806 31.7254 21.7124 31.7254 21.9442C31.7254 22.2102 32.0247 22.8397 32.6612 22.8397C35.4716 22.8397 37.7153 20.2847 38.9185 18.8255L38.9718 18.7606L38.9718 18.7605L38.9718 18.7605C39.0653 18.6464 39.1605 18.5302 39.2556 18.4221C39.9125 15.5696 41.1041 12.7028 42.4322 10.268C44.4056 6.68298 46.0797 4.99207 47.9862 4.99207C48.7884 4.99207 49.358 5.69018 49.358 6.41976C49.358 9.04054 46.5476 13.6526 41.3598 17.6668C41.0924 18.1303 40.7262 19.4264 40.6914 19.8899ZM47.4195 6.5199C46.9487 6.5199 45.4112 7.78165 43.9377 10.6342H43.9406C42.8362 12.7571 42.1009 14.6483 41.7987 15.478C45.4112 12.8229 47.8554 7.97907 47.8554 6.91759C47.8554 6.68584 47.7218 6.5199 47.4195 6.5199ZM35.6721 17.7669C35.6721 17.5666 35.6053 17.435 35.4048 17.435H35.4019C34.5997 17.435 32.8269 19.1918 32.1904 20.1874C33.3965 19.9557 35.6721 18.3306 35.6721 17.7669ZM32.6961 7.0492C32.2921 7.0492 30.8215 8.21082 29.1475 11.1635V11.1606C27.7757 13.584 27.3397 14.8772 27.1392 15.6068C27.8077 15.0775 29.2143 13.6841 30.5861 11.8587C32.3618 9.53551 33.0303 8.04201 33.0303 7.34676C33.0303 7.14934 32.9315 7.0492 32.6961 7.0492ZM17.8422 19.8037L17.8419 19.804L17.839 19.8012C17.7373 19.9385 17.6443 20.0673 17.5687 20.1846C18.7748 19.9528 21.0505 18.3277 21.0505 17.7641C21.0505 17.5638 20.9836 17.4322 20.7831 17.4322C20.2396 17.4322 19.2486 18.2419 18.4697 19.0716C18.3854 19.1746 18.2895 19.289 18.1732 19.4235C18.0687 19.5464 17.9555 19.675 17.8422 19.8037ZM54.5432 15.6755C55.2811 15.6755 55.8158 16.1072 55.8162 16.9363C55.8159 18.0656 55.5483 19.0259 54.5781 19.0259C54.2119 19.0259 53.9096 18.7598 53.9096 18.3621C53.9096 18.1918 53.9868 17.9774 54.0528 17.794C54.102 17.6571 54.1451 17.5375 54.1451 17.4666C54.1451 17.3665 54.1131 17.3006 53.9445 17.3006C53.5086 17.3006 51.3666 19.3235 50.2622 20.9171C49.96 21.3491 49.5938 22.0787 49.2915 22.8083C49.0241 23.4721 48.7219 24.1015 48.5213 24.1015C48.1203 24.1015 47.6523 23.7353 47.6523 23.2718C47.6523 22.9056 48.1203 21.5465 48.655 20.3191C49.2218 18.9916 49.6897 17.7641 49.8582 17.1662C50.1256 16.305 50.361 15.8071 50.8958 15.8071C51.3288 15.8071 51.6311 16.0389 51.6311 16.4051C51.6311 16.6369 51.3637 17.3665 51.0615 18.1304C52.4361 16.737 53.6742 15.6755 54.5432 15.6755ZM68.7666 16.5712C68.7666 16.1391 68.3975 15.8759 67.9295 15.8759C67.4616 15.8759 67.1274 16.4081 66.7263 17.069C66.4589 17.5668 64.7529 20.817 64.7529 22.2791C64.7529 23.4407 65.5231 24.0387 66.2264 24.0387C67.2233 24.0387 68.6677 23.0974 70.0105 21.9357C70.0482 23.3405 70.9666 24.1703 72.0478 24.1703C75.361 24.1703 77.8749 21.9014 79.4938 20.0474C79.735 20.3307 80.075 20.5452 80.4122 20.7226C80.9149 20.9887 81.5166 21.3206 81.5166 21.9157C81.5166 22.4794 81.0806 23.0115 80.4471 23.0115C79.9123 23.0115 79.61 22.7454 79.61 22.2819C79.61 21.8184 79.2758 21.6525 78.9067 21.6525C78.4388 21.6525 78.1045 22.0187 78.1045 22.5166C78.1045 23.3463 78.9735 24.176 80.2465 24.176C82.2199 24.176 83.2575 22.9142 83.2575 21.7555C83.2575 20.5327 82.3457 20.0596 81.6493 19.6982L81.5834 19.664C81.1823 19.4637 80.8481 19.2005 80.8481 18.9344C80.8481 18.1047 82.3536 17.1749 82.7895 17.1749C82.9901 17.1749 83.0918 17.275 83.0918 17.4066C83.0918 17.5323 83.0094 17.658 82.9225 17.7906C82.8254 17.9388 82.7227 18.0956 82.7227 18.2707C82.7227 18.7342 82.9901 18.9659 83.458 18.9659C84.1933 18.9659 84.6641 17.7728 84.6641 17.0089C84.6641 16.3108 83.9288 15.7815 83.2923 15.7815C82.0281 15.7815 79.9588 16.883 79.331 18.2964C79.2044 18.4329 79.0797 18.5848 78.9553 18.7363L78.8747 18.8343C77.6715 20.2935 75.4278 22.8484 72.6174 22.8484C71.9809 22.8484 71.6816 22.219 71.6816 21.9529C71.6816 21.7212 71.8153 21.4894 72.2512 21.3893C74.46 20.8914 77.2704 18.9344 77.2704 17.2092C77.2704 16.4796 76.5003 15.9474 75.7969 15.9474C74.3205 15.9474 72.4401 17.0003 71.1236 19.1204C69.9204 20.6254 67.7435 22.6167 66.8949 22.6167C66.5926 22.6167 66.427 22.3191 66.427 22.0845C66.427 21.4207 67.3628 19.1319 68.3335 17.5725C68.367 17.5229 68.4014 17.475 68.4356 17.4275C68.6061 17.1903 68.7694 16.963 68.7694 16.5769L68.7666 16.5712ZM75.3581 17.4352C75.5586 17.4352 75.6255 17.5668 75.6255 17.7671C75.6255 18.3307 73.3498 19.9559 72.1437 20.1876C72.7802 19.1919 74.553 17.4352 75.3552 17.4352H75.3581Z" fill="white"/>
</svg>
