<svg width="54" height="24" viewBox="0 0 54 24" fill="none" xmlns="http://www.w3.org/2000/svg">
<path d="M6.60386 17.9439C8.26298 12.9441 9.97939 7.93186 11.7556 2.93957H16.8525L17.8664 0H4.36928L3.35539 2.93957H8.4C6.64622 7.93436 4.94973 12.9466 3.24329 17.9439H6.60137H6.60386Z" fill="white"/>
<path d="M47.8252 12.9492C46.9409 14.1973 45.8223 15.3158 45.3017 15.3158C45.0949 15.3158 44.9629 15.1588 44.9629 14.8998C44.9629 13.9631 46.9907 11.31 46.9384 9.35942C46.9135 8.16366 46.0017 7.2793 44.8309 7.2793C43.66 7.2793 42.1529 8.05903 41.2934 9.59359C41.4504 8.26829 40.7204 7.2793 39.4724 7.2793C38.3538 7.2793 37.183 7.90458 35.8328 9.62099L36.6125 7.54087H33.5708C33.1672 8.70424 32.7761 9.8726 32.38 11.041C31.1718 13.567 29.7494 15.3158 28.8625 15.3158C27.9756 15.3158 28.733 13.4424 30.9426 7.54087H27.8735L27.5098 8.58217C27.1187 7.87967 26.1322 7.28179 25.1183 7.28179C22.6819 7.28179 20.5096 9.94235 19.9192 12.8695C18.5242 15.0542 17.2612 15.7069 15.3405 15.7069C14.0152 15.7069 13.3127 15.2137 13.1034 14.3542C15.5223 14.8998 19.137 13.6268 19.137 10.478C19.137 8.81385 17.9412 7.2793 15.8611 7.2793C12.2987 7.2793 9.98447 10.5826 9.98447 13.9631C9.98447 16.8503 12.1692 18.203 14.6928 18.203C17.2163 18.203 18.8156 17.3635 20.0039 16.1204C20.4224 17.4532 21.3691 18.203 22.677 18.203C23.9848 18.203 24.9663 17.4756 25.6165 16.4617C25.7984 17.4233 26.6304 18.203 27.8013 18.203C28.6707 18.203 29.5252 17.7721 30.3198 17.1169C30.2252 17.3909 30.133 17.6674 30.0383 17.944H33.1075C33.9146 15.3706 35.5787 10.037 37.5293 10.037C37.8407 10.037 38.0499 10.3235 38.0499 10.6623C38.0499 11.4694 37.4769 12.7698 35.6833 17.944H38.6752C39.3777 15.5774 41.3009 10.037 43.1493 10.037C43.513 10.037 43.6426 10.2961 43.6426 10.61C43.6426 11.6762 41.7692 13.8859 41.7692 15.8638C41.7692 17.1891 42.5764 18.2055 44.2405 18.2055C46.4501 18.2055 48.6623 16.0731 49.4669 14.6158C50.5531 13.0737 51.7189 14.3617 50.9541 15.8962C49.6936 18.4248 47.0306 19.9444 44.2081 19.9444H5.4356C2.97931 19.9444 0.794559 21.5063 -0.00012207 23.8331L41.7194 24C46.8188 24.0224 49.8032 22.3683 52.3766 17.5329C54.9649 12.6727 50.1321 10.2288 47.8277 12.9492H47.8252ZM15.6294 9.72562C16.0978 9.72562 16.3843 10.0121 16.3569 10.5826C16.3045 11.7783 14.5881 12.5581 13.1582 12.5082C13.497 10.9488 14.4835 9.72562 15.6294 9.72562ZM23.9001 15.3432C23.225 15.3432 22.9385 14.7976 22.9385 14.0702C22.9385 12.3289 23.9798 9.98719 25.487 9.98719C26.0325 9.98719 26.476 10.2463 26.8646 10.6374C25.8507 13.8884 24.8368 15.3457 23.9001 15.3457V15.3432Z" fill="white"/>
</svg>
