<svg width="52" height="32" viewBox="0 0 52 32" fill="none" xmlns="http://www.w3.org/2000/svg">
<path d="M25.9456 9.46953H28.4747L27.9031 13.8578H25.374L23.8544 25.4541C23.6285 27.2161 22.7418 28.8659 21.3532 30.1061C19.9841 31.3266 18.2916 32 16.5851 32C13.0439 32 10.5344 29.068 10.9889 25.4653L15.3527 25.4457C15.2021 26.6409 16.0135 27.6146 17.1595 27.6146C17.6977 27.6146 18.233 27.4013 18.668 27.0113C19.1253 26.6045 19.4209 26.0433 19.4934 25.4569L21.0102 13.8606H18.4784L19.0528 9.47234H21.5846L21.9666 6.5459C22.1897 4.78387 23.0764 3.13126 24.465 1.89391C25.8313 0.673389 27.5238 0 29.2275 0C32.7659 0 35.2755 2.93205 34.821 6.53468L30.4572 6.55712C30.6078 5.36186 29.7991 4.38825 28.6531 4.38825C28.1178 4.38825 27.5852 4.60149 27.1502 4.98869C26.6929 5.39553 26.4001 5.94546 26.3276 6.53468L25.9428 9.47234L25.9456 9.46953ZM0.5744 19.0878L0 23.476H7.13539L7.7098 19.0878H6.32399L6.86214 14.9633C6.97925 14.0794 7.43096 13.2573 8.15872 12.7495C8.64111 12.4128 9.21551 12.2136 9.80943 12.2136C11.2538 12.2136 12.2715 13.392 12.0819 14.8454L10.9527 23.4732H16.7106L17.285 19.085H15.8852L16.5712 13.8438C16.7162 12.7299 16.4624 11.7029 15.9187 10.8696C15.1129 9.62946 13.6629 8.82139 11.9035 8.82139C10.144 8.82139 8.52957 9.60701 7.40029 10.8191L7.57596 9.46673H1.82916L1.25476 13.855H2.64057L1.95742 19.085H0.571613L0.5744 19.0878ZM29.169 19.0878L28.5946 23.476H35.73L36.3044 19.0878H34.9185L35.4762 14.8342C35.6714 13.3864 36.6027 12.2136 37.5619 12.2136C38.5211 12.2136 39.1513 13.392 38.9617 14.8454L38.4347 18.8633L37.8324 23.476H43.582L44.1564 19.0878H42.765L43.3199 14.8454C43.5095 13.392 44.4464 12.2136 45.4083 12.2136C46.3703 12.2136 46.9977 13.392 46.8081 14.8454L45.6788 23.4732H51.4256L52 19.085H50.6142C50.6142 19.085 51.3001 13.8494 51.3001 13.8438C51.6626 11.0688 49.9589 8.82139 47.4912 8.82139C45.7959 8.82139 44.1842 9.88198 43.2223 11.4476C42.6702 9.88479 41.3345 8.82139 39.642 8.82139C38.2869 8.82139 36.9875 9.5032 36.0283 10.5722L36.1733 9.46673H30.4265L29.8521 13.855H31.2379L30.5548 19.085H29.169V19.0878Z" fill="url(#paint0_linear_40_30908)"/>
<defs>
<linearGradient id="paint0_linear_40_30908" x1="9.85683" y1="1.39448" x2="41.8113" y2="33.1476" gradientUnits="userSpaceOnUse">
<stop stop-color="#169A00"/>
<stop offset="0.37" stop-color="#0DD300"/>
<stop offset="0.48" stop-color="#2DDB00"/>
<stop offset="0.73" stop-color="#73EE01"/>
<stop offset="0.91" stop-color="#9FFA02"/>
<stop offset="1" stop-color="#B0FF03"/>
</linearGradient>
</defs>
</svg>
