<svg width="73" height="20" viewBox="0 0 73 20" fill="none" xmlns="http://www.w3.org/2000/svg">
<path fill-rule="evenodd" clip-rule="evenodd" d="M40.4846 8.51381C40.576 8.99567 40.627 9.49107 40.627 10C40.627 10.5089 40.576 11.0043 40.4846 11.4862L42.3337 13.438L40.5437 16.562L37.9395 15.9258C37.1977 16.5728 36.3323 17.0818 35.3863 17.412L34.6311 20H31.0512L30.296 17.412C29.3473 17.0818 28.4846 16.5728 27.7428 15.9258L25.1385 16.562L23.3486 13.438L25.1977 11.4862C25.1063 11.0043 25.0552 10.5089 25.0552 10C25.0552 9.49107 25.1063 8.99567 25.1977 8.51381L23.3486 6.56199L25.1385 3.43801L27.7428 4.07417C28.4846 3.42718 29.35 2.91825 30.296 2.58798L31.0512 0H34.6311L35.3863 2.58798C36.335 2.91825 37.1977 3.42718 37.9395 4.07417L40.5437 3.43801L42.3337 6.56199L40.4846 8.51381ZM29.479 10C29.479 11.8706 30.984 13.3866 32.8411 13.3866C34.6983 13.3866 36.2033 11.8706 36.2033 10C36.2033 8.1294 34.6983 6.61343 32.8411 6.61343C30.984 6.61343 29.479 8.1294 29.479 10ZM6.56036 12.2157L4.01793 2.62172H4.00986H0L4.40225 17.4782H8.31535L11.2099 8.86969L14.1044 17.4782H18.0175L22.4197 2.62172H18.4099L15.8674 12.2157L12.7391 2.62172H9.6887L6.56036 12.2157ZM57.3394 17.4758H52.5662L48.9084 11.7611V17.4758H45.076V2.61928H51.0424C51.8648 2.61928 52.5797 2.7411 53.1951 2.98474C53.8079 3.22837 54.3132 3.55864 54.7109 3.98095C55.1087 4.40054 55.407 4.88782 55.6113 5.43736C55.8128 5.98961 55.915 6.57975 55.915 7.21051C55.915 8.33936 55.6435 9.25707 55.1033 9.95821C54.5631 10.6621 53.7622 11.1385 52.706 11.3876L57.3421 17.4758H57.3394ZM48.9084 9.25978H49.6314C50.3866 9.25978 50.9671 9.10276 51.3729 8.78603C51.7761 8.47201 51.9803 8.01722 51.9803 7.42707C51.9803 6.83693 51.7788 6.38214 51.3729 6.06811C50.9698 5.75409 50.3893 5.59437 49.6314 5.59437H48.9084V9.25978ZM67.7198 2.62198L63.0461 8.74814L63.0434 8.74543V2.61928H59.2109V17.4758H63.0434V11.0329L68.0316 17.4758H73.0009L66.6045 9.65501L72.4526 2.62198H67.7198Z" fill="white"/>
</svg>
