<svg width="111" height="16" viewBox="0 0 111 16" fill="none" xmlns="http://www.w3.org/2000/svg">
<path fill-rule="evenodd" clip-rule="evenodd" d="M61.9175 13.8911C61.9175 14.3763 62.2292 14.7424 62.4913 15.0503C62.6815 15.2738 62.8456 15.4666 62.8456 15.6521C62.8456 15.8398 62.6735 16.0096 62.3693 16.0096H58.568C58.2668 16.0096 58.0916 15.8428 58.0916 15.6521C58.0916 15.4668 58.2554 15.2747 58.4454 15.0519C58.7076 14.7444 59.0197 14.3784 59.0197 13.8911V2.49396C57.8736 2.49396 57.6967 2.64346 57.2772 2.99806L57.2035 3.0601C57.1348 3.11769 57.072 3.17131 57.0139 3.22091C56.6691 3.5152 56.4902 3.66794 56.2325 3.66794C55.9959 3.66794 55.8422 3.48023 55.8422 3.22696V0.482703C55.8422 0.146003 55.9713 0 56.3185 0C56.4305 0 56.5354 0.0195113 56.6776 0.0459532L56.6776 0.0459548L56.6776 0.0459565L56.6776 0.0459582L56.6776 0.04596L56.6776 0.0459619C56.9764 0.101537 57.4398 0.187717 58.4788 0.187717H62.4553C62.8026 0.187717 63.3619 0.125145 63.7951 0.0625723C64.1608 0.0208572 64.379 0 64.5081 0C64.8553 0 65.092 0.208576 65.092 0.545276V3.10181C65.092 3.43851 64.8553 3.66794 64.5081 3.66794C64.2284 3.66794 64.0533 3.50108 63.6876 3.08095C63.6535 3.04464 63.6221 3.0104 63.5926 2.97815L63.5923 2.97784C63.246 2.60014 63.1486 2.49396 61.9145 2.49396V13.8911H61.9175ZM31.6533 16.0076C31.3521 16.0076 31.177 15.8407 31.177 15.65C31.177 15.4648 31.3407 15.2727 31.5307 15.0499C31.7929 14.7423 32.105 14.3763 32.105 13.889V2.30419C32.105 1.81901 31.7934 1.4529 31.5313 1.14497C31.3411 0.921495 31.177 0.728667 31.177 0.543215C31.177 0.355497 31.349 0.185659 31.6533 0.185659H39.2159C39.7353 0.185659 39.9504 0.394234 39.9504 0.897794V3.28747C39.9504 3.60033 39.8859 3.7076 39.7138 3.83274C39.3665 4.08303 37.6825 5.19444 37.4244 5.19444C37.2523 5.19444 37.0556 5.02758 37.0556 4.79517V2.4919H35.2825C35.1319 2.4919 35.0028 2.61705 35.0028 2.74219V7.87612L36.9266 6.70214C37.1202 6.577 37.3168 6.49357 37.4889 6.49357C37.7471 6.49357 37.9007 6.70214 37.9007 6.93456V8.86238C37.9007 9.21994 37.8147 9.3868 37.4889 9.57452L35.0028 11.1031V13.4481C35.0028 13.5941 35.1319 13.6983 35.2825 13.6983H37.0556V12.3784C37.0556 12.0655 37.1202 11.9582 37.2922 11.8331C37.6364 11.5828 39.3235 10.4714 39.5816 10.4714C39.7537 10.4714 39.9504 10.6383 39.9504 10.8707V15.2925C39.9504 15.796 39.7353 16.0046 39.2159 16.0046H31.6533V16.0076ZM21.2843 15.6281C21.2843 15.8576 21.1122 16.0066 20.8079 16.0066H17.2648C16.9175 16.0066 16.7669 15.8397 16.7669 15.6281C16.7669 15.4767 16.8807 15.3469 17.006 15.2041C17.1591 15.0295 17.3293 14.8355 17.3293 14.5584C17.3293 14.4124 16.6164 11.5848 16.6164 11.5848L12.7044 13.6377V14.2039C12.7044 14.7019 12.9937 14.9981 13.2194 15.2292C13.3636 15.3769 13.4819 15.498 13.4819 15.6281C13.4819 15.8367 13.3313 16.0066 12.9841 16.0066H9.13973C8.8355 16.0066 8.66342 15.8605 8.66342 15.6281C8.66342 15.4793 8.82797 15.3147 9.02858 15.1141C9.28176 14.8609 9.59237 14.5503 9.7021 14.1413C9.87418 13.4917 12.812 2.30316 12.812 1.65658C12.812 1.43432 12.6377 1.20006 12.4832 0.992347C12.3601 0.826912 12.2496 0.678315 12.2496 0.566029C12.2496 0.336596 12.4217 0.187613 12.7259 0.187613H17.1972C17.5014 0.187613 17.6735 0.333617 17.6735 0.566029C17.6735 0.676629 17.5637 0.824465 17.4411 0.989483C17.2863 1.19791 17.1111 1.43374 17.1111 1.65658C17.1111 2.30614 19.7693 12.5919 20.0059 13.4292C20.2198 14.2165 20.654 14.7416 20.956 15.1068C21.1443 15.3344 21.2812 15.5 21.2812 15.6281H21.2843ZM15.9679 9.09079L14.9293 4.48128L13.5034 10.3691L15.9679 9.09079ZM8.23258 14.3083C8.23258 15.1039 7.41208 16.0067 6.09376 16.0067H2.05277C0.885024 16.0067 0 15.4406 0 14.3947V1.80273C0 0.7539 0.885024 0.190746 2.05277 0.190746H5.87559C7.15089 0.190746 8.01439 1.04888 8.01439 1.91V3.92126C8.01439 4.23413 7.94987 4.34139 7.77779 4.46654C7.43054 4.71683 5.74652 5.82823 5.48839 5.82823C5.3163 5.82823 5.11963 5.66137 5.11963 5.42896V2.76814C5.11963 2.62214 4.99057 2.49699 4.83999 2.49699H3.17748C3.0269 2.49699 2.89785 2.62214 2.89785 2.76814V13.4323C2.89785 13.5783 3.0269 13.7034 3.17748 13.7034H5.05816C5.20874 13.7034 5.33782 13.5783 5.33782 13.4323V11.6922C5.33782 11.3793 5.40235 11.272 5.57444 11.1469C5.92169 10.8966 7.60569 9.7852 7.86382 9.7852C8.03591 9.7852 8.22951 9.95206 8.22951 10.1845V14.3113L8.23258 14.3083ZM21.8657 10.4525V14.2873V14.2903C21.8657 15.1514 22.7292 16.0095 24.0045 16.0095H27.8273C28.8629 16.0095 29.8801 15.1484 29.8801 14.2903V9.97575C29.8801 9.07292 29.4898 8.65577 28.7769 8.19392L25.1692 5.78339C24.8219 5.5331 24.7574 5.36326 24.7574 5.07125V2.49386H26.7672V3.89727C26.7672 4.44255 26.9423 4.63026 27.1359 4.75541C27.1784 4.78216 27.2313 4.81636 27.2926 4.85595L27.2927 4.85598C27.7642 5.16043 28.7291 5.78339 29.1887 5.78339C29.4069 5.78339 29.665 5.5331 29.665 5.15468V1.90687C29.665 1.04575 28.823 0.187613 27.5262 0.187613H23.9185C22.7722 0.187613 21.8657 0.750767 21.8657 1.7996V5.96813C21.8657 6.89182 22.4066 7.32982 23.0335 7.74995L26.5981 10.1396C26.8809 10.3273 26.9884 10.518 26.9884 10.7892V13.7003H24.7635V11.7308C24.7635 11.1855 24.5884 10.9978 24.3948 10.8726C24.0475 10.6194 22.8614 9.84464 22.4281 9.84464C22.1238 9.84464 21.8657 10.0741 21.8657 10.4525ZM46.8827 10.4525V14.2873V14.2903C46.8827 15.1514 47.7462 16.0095 49.0215 16.0095H52.8443C53.8799 16.0095 54.8971 15.1484 54.8971 14.2903V9.97575C54.8971 9.07292 54.5068 8.65577 53.7939 8.19392L50.1862 5.78339C49.8389 5.5331 49.7744 5.36326 49.7744 5.07125V2.49386H51.7842V3.89727C51.7842 4.44255 51.9593 4.63026 52.1529 4.75541C52.1953 4.78216 52.2483 4.81637 52.3097 4.85597C52.7812 5.16042 53.7461 5.78339 54.2057 5.78339C54.4239 5.78339 54.682 5.5331 54.682 5.15468V1.90687C54.682 1.04575 53.84 0.187613 52.5432 0.187613H48.9355C47.7892 0.187613 46.8827 0.750767 46.8827 1.7996V5.96813C46.8827 6.89182 47.4235 7.32982 48.0504 7.74995L51.6151 10.1396C51.8978 10.3273 52.0054 10.518 52.0054 10.7892V13.7003H49.7806V11.7308C49.7806 11.1855 49.6054 10.9978 49.4118 10.8726C49.0645 10.6194 47.8784 9.84464 47.4451 9.84464C47.1408 9.84464 46.8827 10.0741 46.8827 10.4525ZM72.9786 16.0066C74.297 16.0066 75.1175 15.1246 75.1175 14.2873L75.1205 14.2903V2.30614C75.1205 1.81888 75.4326 1.45286 75.6948 1.14532C75.8848 0.922529 76.0486 0.730432 76.0486 0.545172C76.0486 0.354474 75.8734 0.187613 75.5723 0.187613H71.771C71.4667 0.187613 71.2946 0.357454 71.2946 0.545172C71.2946 0.730623 71.4588 0.923452 71.649 1.14693C71.9111 1.45485 72.2227 1.82097 72.2227 2.30614V13.5573C72.2227 13.6407 72.1581 13.7033 72.0721 13.7033H69.7182C69.6321 13.7033 69.5676 13.6407 69.5676 13.5573V2.30614C69.5676 1.81888 69.8797 1.45286 70.1419 1.14532C70.3319 0.922529 70.4956 0.730432 70.4956 0.545172C70.4956 0.354474 70.3205 0.187613 70.0193 0.187613H66.218C65.9138 0.187613 65.7417 0.357454 65.7417 0.545172C65.7417 0.730623 65.9058 0.923452 66.096 1.14693C66.3581 1.45485 66.6698 1.82097 66.6698 2.30614V14.3946C66.6698 15.4821 67.5978 16.0066 68.7225 16.0066H72.9786ZM77.3859 16.0076C77.0847 16.0076 76.9096 15.8407 76.9096 15.65C76.9096 15.4648 77.0733 15.2727 77.2633 15.0499C77.5255 14.7423 77.8376 14.3763 77.8376 13.889V2.30419C77.8376 1.81901 77.526 1.4529 77.2639 1.14497C77.0737 0.921495 76.9096 0.728667 76.9096 0.543215C76.9096 0.355497 77.0817 0.185659 77.3859 0.185659H83.6302C85.2282 0.185659 85.9842 0.897794 85.9842 2.17606V14.3688C85.9842 15.4385 85.0991 16.0016 83.9314 16.0016H77.3859V16.0076ZM82.7882 13.7043C83.0248 13.7043 83.0925 13.6626 83.0925 13.4123V2.78987C83.0925 2.62301 82.9634 2.49786 82.7882 2.49786H80.7355V13.7073H82.7882V13.7043ZM91.5038 15.0502C91.2417 14.7423 90.9301 14.3762 90.9301 13.891V2.30614C90.9301 1.81888 91.2421 1.45286 91.5044 1.14532C91.6943 0.922529 91.8581 0.730432 91.8581 0.545172C91.8581 0.354474 91.683 0.187613 91.3818 0.187613H87.5805C87.2763 0.187613 87.1042 0.357454 87.1042 0.545172C87.1042 0.730623 87.2683 0.923452 87.4585 1.14693C87.7206 1.45485 88.0322 1.82097 88.0322 2.30614V13.891C88.0322 14.3783 87.7201 14.7443 87.4579 15.0518C87.268 15.2746 87.1042 15.4667 87.1042 15.652C87.1042 15.8427 87.2793 16.0095 87.5805 16.0095H91.3818C91.686 16.0095 91.8581 15.8397 91.8581 15.652C91.8581 15.4665 91.694 15.2737 91.5038 15.0502ZM93.1991 16.0076C92.8979 16.0076 92.7228 15.8407 92.7228 15.65C92.7228 15.4648 92.8866 15.2727 93.0765 15.0499C93.3388 14.7423 93.6508 14.3763 93.6508 13.889V2.30419C93.6508 1.81901 93.3392 1.4529 93.0771 1.14497C92.8869 0.921495 92.7228 0.728667 92.7228 0.543215C92.7228 0.355497 92.8949 0.185659 93.1991 0.185659H100.762C101.281 0.185659 101.496 0.394234 101.496 0.897794V3.28747C101.496 3.60033 101.432 3.7076 101.26 3.83274C100.912 4.08303 99.2284 5.19444 98.9702 5.19444C98.7981 5.19444 98.6015 5.02758 98.6015 4.79517V2.4919H96.8283C96.6777 2.4919 96.5487 2.61705 96.5487 2.74219V7.87612L98.4724 6.70214C98.666 6.577 98.8626 6.49357 99.0347 6.49357C99.2929 6.49357 99.4465 6.70214 99.4465 6.93456V8.86238C99.4465 9.21994 99.3605 9.3868 99.0347 9.57452L96.5487 11.1031V13.4481C96.5487 13.5941 96.6777 13.6983 96.8283 13.6983H98.6015V12.3784C98.6015 12.0655 98.666 11.9582 98.8381 11.8331C99.1823 11.5828 100.869 10.4714 101.127 10.4714C101.3 10.4714 101.496 10.6383 101.496 10.8707V15.2925C101.496 15.796 101.281 16.0046 100.762 16.0046H93.1991V16.0076ZM102.986 10.4525V14.2873V14.2903C102.986 15.1514 103.849 16.0095 105.125 16.0095H108.947C109.983 16.0095 111 15.1484 111 14.2903V9.97575C111 9.07292 110.61 8.65577 109.897 8.19392L106.289 5.78339C105.942 5.5331 105.877 5.36326 105.877 5.07125V2.49386H107.887V3.89727C107.887 4.44255 108.062 4.63026 108.256 4.75541C108.298 4.78216 108.351 4.81637 108.413 4.85597C108.884 5.16042 109.849 5.78339 110.309 5.78339C110.527 5.78339 110.785 5.5331 110.785 5.15468V1.90687C110.785 1.04575 109.943 0.187613 108.646 0.187613H105.039C103.892 0.187613 102.986 0.750767 102.986 1.7996V5.96813C102.986 6.89182 103.527 7.32982 104.154 7.74995L107.718 10.1396C108.001 10.3273 108.109 10.518 108.109 10.7892V13.7003H105.884V11.7308C105.884 11.1855 105.708 10.9978 105.515 10.8726C105.168 10.6194 103.981 9.84464 103.548 9.84464C103.244 9.84464 102.986 10.0741 102.986 10.4525Z" fill="white"/>
</svg>
