<svg width="69" height="16" viewBox="0 0 69 16" fill="none" xmlns="http://www.w3.org/2000/svg">
<path fill-rule="evenodd" clip-rule="evenodd" d="M4.17314 0L7.49538 7.47059L10.9754 0H14.591V15.994H10.7955V8.34431H10.7514L8.21472 13.5332H6.46369L4.17314 8.34431H4.12899V15.994H0.333496V0H4.17314ZM17.693 15.997V0.00292969H26.7889V3.38151H21.6021V6.20066H25.2398V9.64524H21.6021V12.6215H27.1044V16.0001H17.6962L17.693 15.997ZM40.3521 2.66201C40.3521 1.18486 39.6548 0 37.5883 0H29.3695V15.994H33.2785V10.0886H33.6382L36.7585 15.994H41.226L37.9038 10.0886C39.7242 9.97546 40.3521 8.8566 40.3521 7.44859V2.66201ZM35.7237 6.71002H33.2754V3.37544H35.7237C36.1054 3.37544 36.443 3.71172 36.443 4.11401V5.97145C36.443 6.37373 36.1054 6.71002 35.7237 6.71002ZM43.0918 2.66201C43.0918 1.18486 43.7891 0 45.8777 0H51.3358C53.4024 0 54.0996 1.18486 54.0996 2.66201V4.96573L50.2821 5.6823V3.37858H47.0261V12.6186H50.2821V9.84346L54.0996 10.56V13.3352C54.0996 14.8123 53.4024 15.9972 51.3358 15.9972H45.8777C43.7891 15.9972 43.0918 14.8123 43.0918 13.3352V2.66515V2.66201ZM64.4238 0V6.19773H60.5842V0H56.6751V15.994H60.5842V9.52917H64.4238V15.994H68.3329V0H64.4238Z" fill="white"/>
</svg>
