<svg width="87" height="16" viewBox="0 0 87 16" fill="none" xmlns="http://www.w3.org/2000/svg">
<path fill-rule="evenodd" clip-rule="evenodd" d="M64.2516 16C63.0658 16 61.9691 15.7907 60.9614 15.3751C59.9507 14.9565 59.0813 14.3901 58.3502 13.6699C57.619 12.9527 57.0445 12.1093 56.6267 11.1427C56.2089 10.1762 56.0031 9.14198 56.0031 8.04309V8C56.0031 6.90111 56.212 5.86379 56.6267 4.89111C57.0445 3.91535 57.6252 3.06579 58.3717 2.34244C59.1182 1.616 59.9937 1.04655 61.0044 0.627932C62.0121 0.209309 63.1088 0 64.2946 0C65.4804 0 66.5771 0.209309 67.5848 0.627932C68.5955 1.04655 69.4649 1.61293 70.196 2.33013C70.9272 3.04733 71.5016 3.89073 71.9194 4.85725C72.3372 5.82378 72.543 6.85802 72.543 7.95691V8C72.543 9.09888 72.3342 10.1362 71.9194 11.112C71.5016 12.0877 70.921 12.9373 70.1745 13.6606C69.428 14.3871 68.5525 14.9565 67.5417 15.3751C66.5341 15.7938 65.4374 16 64.2516 16ZM64.2854 12.1524C64.8721 12.1524 65.4067 12.0416 65.8921 11.823C66.3774 11.6045 66.786 11.3059 67.124 10.9334C67.4619 10.561 67.7261 10.1239 67.9165 9.62524C68.107 9.12659 68.2022 8.60023 68.2022 8.04309V8C68.2022 7.44286 68.107 6.91651 67.9165 6.41785C67.7261 5.9192 67.4557 5.47903 67.1024 5.10042C66.7492 4.71874 66.3314 4.414 65.849 4.1893C65.3637 3.96152 64.8291 3.84763 64.2424 3.84763C63.6556 3.84763 63.1241 3.95845 62.648 4.17699C62.1718 4.39554 61.7602 4.69411 61.4161 5.06656C61.072 5.43901 60.8078 5.87611 60.6235 6.37476C60.4392 6.87341 60.347 7.39977 60.347 7.95691V8C60.347 8.55714 60.4422 9.08349 60.6327 9.58214C60.8232 10.0808 61.0904 10.521 61.4345 10.9027C61.7786 11.2843 62.1933 11.5891 62.6787 11.8138C63.1641 12.0416 63.6986 12.1554 64.2854 12.1554V12.1524ZM25.1182 0.304912H31.0411C32.4143 0.304912 33.64 0.492676 34.7152 0.865127C35.7905 1.23758 36.6967 1.76393 37.4371 2.43804C38.1744 3.11214 38.7396 3.91553 39.1267 4.84512C39.5138 5.77471 39.7073 6.79664 39.7073 7.91091V7.95401C39.7073 9.06828 39.5107 10.0964 39.1144 11.0413C38.7181 11.9863 38.1498 12.8051 37.4033 13.4915C36.6568 14.181 35.7382 14.7197 34.6507 15.1075C33.5602 15.4954 32.3283 15.6893 30.9551 15.6893H25.1182V0.304912ZM31.1148 11.9125C32.3928 11.9125 33.4188 11.5769 34.1961 10.9028C34.9733 10.2287 35.3634 9.26836 35.3634 8.0248V7.98171C35.3634 6.75047 34.9733 5.79317 34.1961 5.11291C33.4188 4.43265 32.3897 4.09098 31.1148 4.09098H29.376V11.9155H31.1148V11.9125ZM18.0295 0.304692H22.3058V15.6922H18.0295V0.304692ZM54.2273 0.304692H41.8992V15.6922H54.3379V12.0661H46.0895V9.6252H53.4593V6.26083H46.0895V3.9307H54.2273V0.304692ZM76.8744 15.3166C78.1124 15.7444 79.4181 15.9568 80.7913 15.9568V15.9537C81.7252 15.9537 82.573 15.8429 83.3349 15.6151C84.0968 15.3874 84.7481 15.058 85.2887 14.6271C85.8294 14.1961 86.2503 13.6728 86.5514 13.0572C86.8493 12.4447 86.9999 11.7429 86.9999 10.9518V10.9087C86.9999 10.1946 86.8678 9.57589 86.6036 9.05569C86.3425 8.53856 85.9615 8.09532 85.4639 7.72902C84.9662 7.36273 84.3641 7.05184 83.6544 6.79635C82.9448 6.54087 82.1522 6.31925 81.2736 6.12841C80.7483 6.01144 80.312 5.90063 79.968 5.78981C79.6239 5.679 79.3566 5.57127 79.1569 5.46046C78.9572 5.34965 78.819 5.2296 78.7391 5.09724C78.6593 4.96488 78.6193 4.81098 78.6193 4.63553V4.59243C78.6193 4.3154 78.7484 4.08147 79.0033 3.89062C79.2583 3.69978 79.6423 3.60436 80.1553 3.60436C80.8404 3.60436 81.5562 3.73364 82.2935 3.98912C83.0308 4.24768 83.7527 4.62321 84.4531 5.12187L86.5821 2.10224C85.7465 1.42506 84.8157 0.914094 83.7834 0.566268C82.7543 0.218442 81.5808 0.046067 80.2629 0.046067C79.3412 0.046067 78.5149 0.169191 77.7837 0.409284C77.0526 0.649376 76.4289 0.987969 75.9098 1.42814C75.3906 1.86831 74.9943 2.38543 74.724 2.98566C74.4536 3.58589 74.3185 4.24461 74.3185 4.9618V5.0049C74.3185 5.79289 74.4659 6.45776 74.767 6.99028C75.068 7.52587 75.4766 7.97219 75.9958 8.32925C76.515 8.68631 77.1263 8.97873 77.8267 9.20651C78.5302 9.43429 79.289 9.64053 80.1093 9.83137C80.6376 9.95141 81.0647 10.0622 81.3934 10.173C81.7221 10.2808 81.9863 10.3947 82.1829 10.5116C82.3795 10.6286 82.5147 10.7517 82.5884 10.8748C82.6621 10.998 82.699 11.1426 82.699 11.3027V11.3458C82.699 11.6813 82.5485 11.943 82.2474 12.1246C81.9464 12.3062 81.5132 12.3985 80.9418 12.3985C79.1569 12.3985 77.498 11.7829 75.962 10.5516L73.5935 13.3927C74.5458 14.2485 75.6394 14.8887 76.8744 15.3166ZM4.85691 12.5528L4.71559 12.165L4.53127 11.6633H5.52047L8.08564 8.2281L5.17332 0.212714H0L4.605 12.8914L4.85691 12.5559V12.5528ZM7.57874 7.98186L7.76 8.48359H6.75544L6.57418 7.98186L6.38986 7.48012H7.39443L7.57874 7.98186ZM6.81381 5.89182L6.99812 6.39355H5.99357L5.80924 5.89182L5.628 5.39009H6.63255L6.81381 5.89182ZM6.04887 3.80179L6.23011 4.30352H5.22556L5.0443 3.80179L4.85999 3.30005H5.86453L6.04887 3.80179ZM5.0996 1.20694L5.28086 1.70867L5.46517 2.21041H4.46061L4.27629 1.70867L4.09503 1.20694H5.0996ZM0.887808 1.70867L0.706568 1.20694H1.71113L1.89545 1.70867L2.07671 2.21041H1.07214L0.887808 1.70867ZM1.65276 3.79871L1.46843 3.29698H2.473L2.65424 3.79871L2.8355 4.30044H1.83093L1.64969 3.79871H1.65276ZM2.4177 5.88874L2.23644 5.38701H3.24101L3.42225 5.88874L3.60658 6.39047H2.60202L2.4177 5.88874ZM3.18264 7.97878L2.99832 7.47705H4.00287L4.18413 7.97878L4.36537 8.48051H3.36082L3.17957 7.97878H3.18264ZM3.94758 10.0688L3.76634 9.56708H4.77088L4.95214 10.0688L5.13646 10.5705H4.13191L3.94758 10.0688ZM5.69604 15.7783L11.3456 0.221582H11.3486H16.5219L10.8724 15.7783H5.69604ZM11.4193 1.21889L11.238 1.72062L11.0537 2.22235H12.0583L12.2426 1.72062L12.4238 1.21889H11.4193ZM10.6574 3.30892L10.4731 3.81066L10.2918 4.31239H11.2964L11.4776 3.81066L11.662 3.30892H10.6574ZM9.8894 5.39896L9.70814 5.90069L9.52383 6.40242H10.5284L10.7127 5.90069L10.8939 5.39896H9.8894ZM7.4717 14.7656L7.65294 14.2639L7.83727 13.7622H6.83271L6.65145 14.2639L6.46713 14.7656H7.4717ZM8.23664 12.6756L8.41788 12.1739L8.60221 11.6721H7.59764L7.41333 12.1739L7.23207 12.6756H8.23664ZM9.00157 10.5856L9.18281 10.0838H9.18589L9.36715 9.5821H8.36258L8.18134 10.0838L7.99701 10.5856H9.00157ZM8.9432 7.9938L8.76195 8.49553H9.76651L9.94777 7.9938L10.1321 7.49207H9.12752L8.9432 7.9938ZM10.8571 14.7687L11.0414 14.267L11.2227 13.7653H10.2181L10.0369 14.267L9.85254 14.7687H10.8571ZM11.6251 12.6787L11.8064 12.1769L11.9907 11.6752H10.9861L10.8018 12.1769L10.6206 12.6787H11.6251ZM12.387 10.5886L12.5713 10.0869L12.7526 9.58518H11.748L11.5667 10.0869L11.3824 10.5886H12.387ZM13.155 8.49861L13.3362 7.99688H13.3332L13.5175 7.49515H12.5129L12.3317 7.99688L12.1504 8.49861H13.155ZM13.9169 6.40858L14.1012 5.90685L14.2824 5.40511H13.2779L13.0966 5.90685L12.9123 6.40858H13.9169ZM14.6849 4.31854L14.8661 3.81681H14.8631L15.0474 3.31508H14.0428L13.8616 3.81681L13.6803 4.31854H14.6849ZM14.4452 2.22851H15.4498L15.6341 1.72678L15.8154 1.22504H14.8108L14.6265 1.72678L14.4452 2.22851Z" fill="white"/>
</svg>
