<svg width="74" height="15" viewBox="0 0 74 15" fill="none" xmlns="http://www.w3.org/2000/svg">
<path fill-rule="evenodd" clip-rule="evenodd" d="M43.7144 7.4093C43.7144 3.24871 40.5679 0 36.2257 0C31.8836 0 28.7371 3.14833 28.7371 7.4093C28.7371 11.6703 31.8836 14.9999 36.2257 14.9999C40.5679 14.9999 43.7144 11.5699 43.7144 7.4093ZM40.0289 7.4093C40.0289 9.94692 38.3161 11.8543 36.2257 11.8543C34.1354 11.8543 32.4226 9.84653 32.4226 7.4093C32.4226 4.97207 34.1354 3.14554 36.2257 3.14554C38.3161 3.14554 40.0289 4.87168 40.0289 7.4093ZM15.3577 12.1166H16.9501V2.88076H15.3577V0.242752H22.0091C23.1254 0.242752 23.8204 0.284582 24.6194 0.54671C26.1133 1.07375 27.1092 2.3342 27.1092 4.01851C27.1092 5.27617 26.5319 6.49479 25.4156 7.12501V7.16684C27.1092 7.69388 27.6865 9.11607 27.6865 10.4964C27.6865 12.6883 26.1926 14.13 24.5208 14.5566C23.7629 14.7379 23.1665 14.7602 22.3894 14.7602H15.3604V12.1222L15.3577 12.1166ZM22.269 5.86456C23.1446 5.86456 23.5249 5.23434 23.5249 4.46469C23.5249 3.95716 23.3252 3.40781 22.8683 3.20703C22.6083 3.10664 22.3703 3.08433 21.9927 3.08433H20.518V5.86456H22.269ZM22.5673 11.913C22.8272 11.913 23.0461 11.8712 23.2239 11.7903C23.7821 11.5477 24.0803 10.8785 24.0803 10.2064C24.0803 9.3531 23.6015 8.70335 22.5864 8.70335H20.5152V11.9102H22.5673V11.913ZM0.00547753 12.1166H1.17926L5.06178 0.242767H9.12489L13.0074 12.1166H14.1812V14.7546H8.22744V12.1166H9.46142L8.92242 10.1869H5.25878L4.71976 12.1166H5.95375V14.7546H0V12.1166H0.00547753ZM8.15084 7.42898L7.41483 4.74914C7.17679 3.85679 7.13574 3.22657 7.13574 3.22657H7.0564C7.0564 3.22657 7.01535 3.85679 6.77731 4.74914L6.01941 7.42898H8.15084ZM46.0238 2.88076H44.4314V0.242752H51.1813V2.88076H49.5889V9.21367C49.5889 9.86341 49.7285 10.4323 49.9474 10.8171C50.325 11.4669 51.102 11.8517 52.0788 11.8517C52.9954 11.8517 53.7122 11.5282 54.15 10.8366C54.4099 10.41 54.5276 9.88293 54.5276 9.21367V2.88076H52.9352V0.242752H59.6851V2.88076H58.0927V9.21367C58.0927 10.6554 57.6549 12.0552 56.9189 12.9894C55.8245 14.3698 53.9311 15 52.0596 15C50.0294 15 48.2565 14.2694 47.2195 13.0508C46.3822 12.0776 46.0238 10.7362 46.0238 9.21367V2.88076ZM65.7562 12.1166H64.1637H64.161V14.7546H70.911V12.1166H69.3186V3.08433H71.0122V5.13395H74V0.242752H61.0747V5.13395H64.0625V3.08433H65.7562V12.1166Z" fill="white"/>
</svg>
