<svg width="62" height="38" viewBox="0 0 62 38" fill="none" xmlns="http://www.w3.org/2000/svg">
<path d="M30.9362 11.3808H33.9192L33.245 16.5004H30.262L28.4696 30.0295C28.2032 32.0852 27.1574 34.0099 25.5195 35.4568C23.9047 36.8807 21.9084 37.6663 19.8956 37.6663C15.7188 37.6663 12.7589 34.2456 13.2949 30.0426L18.442 30.0196C18.2644 31.4141 19.2214 32.55 20.5731 32.55C21.2079 32.55 21.8393 32.3012 22.3524 31.8462C22.8917 31.3716 23.2404 30.7169 23.3259 30.0327L25.115 16.5037H22.1287L22.8062 11.3841H25.7925L26.2431 7.96989C26.5062 5.91418 27.552 3.98614 29.1898 2.54256C30.8014 1.11863 32.7977 0.333008 34.8072 0.333008C38.9807 0.333008 41.9406 3.75373 41.4045 7.9568L36.2575 7.98299C36.4351 6.58851 35.4814 5.45263 34.1297 5.45263C33.4982 5.45263 32.87 5.70141 32.357 6.15315C31.8176 6.62779 31.4723 7.26938 31.3868 7.9568L30.9329 11.3841L30.9362 11.3808ZM1.01118 22.6021L0.333679 27.7217H8.74979L9.42729 22.6021H7.79274L8.42748 17.7901C8.56561 16.759 9.0984 15.7999 9.95679 15.2074C10.5258 14.8146 11.2033 14.5822 11.9038 14.5822C13.6074 14.5822 14.8078 15.957 14.5842 17.6527L13.2522 27.7184H20.0436L20.7211 22.5988H19.0701L19.8792 16.4841C20.0502 15.1845 19.7509 13.9864 19.1096 13.0142C18.1591 11.5674 16.4489 10.6246 14.3737 10.6246C12.2984 10.6246 10.3942 11.5412 9.06223 12.9553L9.26942 11.3775H2.49115L1.81365 16.4971H3.4482L2.64243 22.5988H1.00789L1.01118 22.6021ZM34.7381 22.6021L34.0606 27.7217H42.4767L43.1542 22.6021H41.5197L42.1774 17.6396C42.4076 15.9505 43.5061 14.5822 44.6375 14.5822C45.7688 14.5822 46.5121 15.957 46.2885 17.6527L45.6669 22.3402L44.9565 27.7217H51.738L52.4155 22.6021H50.7744L51.4289 17.6527C51.6525 15.957 52.7576 14.5822 53.8922 14.5822C55.0269 14.5822 55.7668 15.957 55.5432 17.6527L54.2112 27.7184H60.9895L61.667 22.5988H60.0325C60.0325 22.5988 60.8415 16.4906 60.8415 16.4841C61.2691 13.2466 59.2596 10.6246 56.349 10.6246C54.3494 10.6246 52.4484 11.862 51.3138 13.6886C50.6626 11.8653 49.0872 10.6246 47.0909 10.6246C45.4926 10.6246 43.96 11.4201 42.8286 12.6672L42.9996 11.3775H36.2214L35.5439 16.4971H37.1784L36.3726 22.5988H34.7381V22.6021Z" fill="url(#paint0_linear_452_1672)"/>
<defs>
<linearGradient id="paint0_linear_452_1672" x1="11.9597" y1="1.9599" x2="49.2402" y2="39.4127" gradientUnits="userSpaceOnUse">
<stop stop-color="#00FF80"/>
<stop offset="0.79" stop-color="#00C7FF"/>
</linearGradient>
</defs>
</svg>
