<svg width="61" height="37" viewBox="0 0 61 37" fill="none" xmlns="http://www.w3.org/2000/svg">
<path d="M30.4362 10.9491H33.403L32.7324 16.0231H29.7657L27.983 29.4313C27.7181 31.4687 26.6779 33.3762 25.049 34.8102C23.4429 36.2214 21.4575 37 19.4556 37C15.3015 37 12.3577 33.6098 12.8908 29.4443L18.0099 29.4216C17.8332 30.8036 18.7851 31.9293 20.1294 31.9293C20.7607 31.9293 21.3888 31.6828 21.899 31.2318C22.4355 30.7614 22.7822 30.1126 22.8672 29.4345L24.6466 16.0263H21.6766L22.3504 10.9524H25.3204L25.7686 7.5687C26.0302 5.53134 27.0704 3.62052 28.6993 2.18983C30.3021 0.778606 32.2876 0 34.2861 0C38.437 0 41.3808 3.39018 40.8477 7.55572L35.7286 7.58167C35.9052 6.19965 34.9567 5.07392 33.6123 5.07392C32.9843 5.07392 32.3595 5.32047 31.8493 5.76817C31.3128 6.23858 30.9694 6.87444 30.8843 7.55572L30.4329 10.9524L30.4362 10.9491ZM0.673815 22.0702L0 27.1441H8.37037L9.04418 22.0702H7.41852L8.04982 17.3013C8.1872 16.2794 8.71709 15.3288 9.57081 14.7416C10.1367 14.3523 10.8105 14.122 11.5072 14.122C13.2016 14.122 14.3955 15.4845 14.173 17.165L12.8483 27.1409H19.6028L20.2766 22.067H18.6346L19.4393 16.0068C19.6094 14.7189 19.3117 13.5315 18.6739 12.568C17.7286 11.1341 16.0277 10.1997 13.9637 10.1997C11.8997 10.1997 10.0058 11.1081 8.68111 12.5096L8.88718 10.9459H2.14574L1.47193 16.0198H3.09759L2.29621 22.067H0.670546L0.673815 22.0702ZM34.2174 22.0702L33.5436 27.1441H41.914L42.5878 22.0702H40.9621L41.6163 17.152C41.8453 15.478 42.9378 14.122 44.063 14.122C45.1882 14.122 45.9274 15.4845 45.705 17.165L45.0868 21.8107L44.3803 27.1441H51.125L51.7988 22.0702H50.1666L50.8175 17.165C51.0399 15.4845 52.139 14.122 53.2675 14.122C54.396 14.122 55.1319 15.4845 54.9095 17.165L53.5848 27.1409H60.3262L61 22.067H59.3743C59.3743 22.067 60.179 16.0133 60.179 16.0068C60.6042 12.7983 58.6057 10.1997 55.7109 10.1997C53.7221 10.1997 51.8315 11.426 50.703 13.2363C50.0554 11.4293 48.4886 10.1997 46.5031 10.1997C44.9135 10.1997 43.3892 10.9881 42.264 12.2241L42.4341 10.9459H35.6926L35.0188 16.0198H36.6445L35.8431 22.067H34.2174V22.0702Z" fill="url(#paint0_linear_40_42290)"/>
<defs>
<linearGradient id="paint0_linear_40_42290" x1="47.2057" y1="0.961792" x2="42.0869" y2="28.8769" gradientUnits="userSpaceOnUse">
<stop stop-color="#396EF9"/>
<stop offset="1" stop-color="#F00296"/>
</linearGradient>
</defs>
</svg>
