<svg width="56" height="25" viewBox="0 0 56 25" fill="none" xmlns="http://www.w3.org/2000/svg">
<path d="M38.565 14.7942L38.014 14.9016C37.4962 14.996 37.1263 15.1113 36.9018 15.2475C36.5218 15.4781 36.333 15.8345 36.333 16.3193C36.333 16.749 36.4503 17.0608 36.685 17.2495C36.9146 17.4434 37.1952 17.5404 37.5293 17.5404C38.0574 17.5404 38.5446 17.3805 38.991 17.0635C39.4348 16.7438 39.6669 16.1647 39.6848 15.3209V14.3828C39.5292 14.4824 39.3736 14.5636 39.2154 14.6265C39.0573 14.6894 38.8405 14.747 38.565 14.7995V14.7942Z" fill="white"/>
<path d="M50.357 0.551758H10.73C7.9802 0.551758 5.75333 2.84196 5.75333 5.66411V11.9425H5.74313V19.1014C5.74313 21.9864 3.4729 24.3238 0.666992 24.3343H5.76864C6.6002 24.3343 7.3833 24.1273 8.07713 23.763C8.84492 24.2609 9.75558 24.5518 10.73 24.5518H50.357C53.1068 24.5518 55.3337 22.2615 55.3337 19.4394V5.66673C55.3337 2.84197 53.1042 0.554379 50.357 0.554379V0.551758ZM14.2297 15.9831C14.8189 16.7116 15.5663 17.0758 16.4744 17.0758C17.3825 17.0758 18.1146 16.764 18.6018 16.1377C18.8722 15.8023 19.0967 15.2966 19.2727 14.6258H21.9C21.6705 16.0486 21.0838 17.2042 20.1425 18.0952C19.1936 18.9861 17.982 19.4315 16.5076 19.4315C14.6812 19.4315 13.2451 18.8289 12.1993 17.6261C11.1534 16.4155 10.6305 14.7594 10.6305 12.6526C10.6305 10.3755 11.2248 8.61989 12.4135 7.38569C13.4466 6.31134 14.7628 5.77416 16.3597 5.77416C18.4972 5.77416 20.0583 6.49476 21.0455 7.93335C21.5914 8.74304 21.8847 9.55274 21.9255 10.3677H19.2727C19.1018 9.74141 18.8799 9.26974 18.6095 8.95267C18.1274 8.38667 17.4106 8.10367 16.4642 8.10367C15.5179 8.10367 14.7373 8.50459 14.1812 9.30381C13.6252 10.103 13.3446 11.235 13.3446 12.6972C13.3446 14.1594 13.6379 15.2573 14.2272 15.9858L14.2297 15.9831ZM32.213 19.0673H29.7055V13.2003C29.7055 12.6815 29.6188 12.2622 29.4479 11.9425C29.2235 11.4944 28.8 11.2691 28.1725 11.2691C27.545 11.2691 27.0297 11.4918 26.6956 11.9373C26.3589 12.3827 26.1905 13.0195 26.1905 13.8449V19.0673H23.7443V6.06764H26.1905V10.6795C26.5476 10.1187 26.9583 9.72831 27.4277 9.50819C27.8945 9.28808 28.3893 9.17541 28.9046 9.17541C29.4836 9.17541 30.0117 9.2776 30.4861 9.48461C30.9606 9.69162 31.3483 10.0061 31.6544 10.4306C31.912 10.7896 32.0702 11.1617 32.1288 11.5416C32.1849 11.9216 32.2156 12.5426 32.2156 13.4047V19.0699L32.213 19.0673ZM42.6637 19.0673H39.993C39.919 18.8734 39.8655 18.69 39.8374 18.5197C39.8094 18.3493 39.7864 18.1528 39.7685 17.9353C39.4293 18.3126 39.039 18.635 38.5977 18.8996C38.0697 19.2114 37.4728 19.3687 36.807 19.3687C35.9576 19.3687 35.2536 19.1197 34.7001 18.6219C34.1465 18.124 33.8685 17.4165 33.8685 16.502C33.8685 15.3149 34.3123 14.4581 35.2051 13.9261C35.6923 13.6379 36.4117 13.4309 37.358 13.3077L38.1947 13.2029C38.6487 13.1427 38.9727 13.0693 39.1691 12.9828C39.5186 12.8282 39.6946 12.5898 39.6946 12.2648C39.6946 11.8692 39.5619 11.5966 39.2941 11.4473C39.0263 11.2979 38.636 11.2219 38.1182 11.2219C37.5391 11.2219 37.1284 11.3687 36.8861 11.6648C36.7127 11.8823 36.5979 12.1784 36.5418 12.5504H34.172C34.2231 11.7067 34.4526 11.0123 34.8608 10.4699C35.5087 9.62087 36.6234 9.19637 38.2023 9.19637C39.2303 9.19637 40.1435 9.406 40.9419 9.82526C41.7403 10.2445 42.1383 11.0359 42.1383 12.1967V16.6225C42.1383 16.9291 42.1434 17.3012 42.1561 17.7388C42.174 18.069 42.2224 18.2943 42.3015 18.4122C42.3806 18.5301 42.503 18.6271 42.6637 18.7031V19.0752V19.0673ZM48.6173 11.3058H47.092V16.4024C47.092 16.7981 47.1404 17.0444 47.2374 17.1413C47.3343 17.2383 47.6327 17.2881 48.1327 17.2881C48.2067 17.2881 48.2857 17.2881 48.3699 17.2828C48.4541 17.2802 48.5357 17.275 48.6148 17.2697V19.1538L47.4516 19.1983C46.291 19.2403 45.4977 19.0333 45.0742 18.5799C44.7988 18.2917 44.661 17.8462 44.661 17.2435V11.3058H43.3524V9.50819H44.661V6.81707H47.0894V9.50819H48.6148V11.3058H48.6173Z" fill="white"/>
</svg>
