<svg width="93" height="22" viewBox="0 0 93 22" fill="none" xmlns="http://www.w3.org/2000/svg">
<path fill-rule="evenodd" clip-rule="evenodd" d="M1.28215 0.888898C0.67264 0.888898 0.332031 1.22652 0.332031 1.83902V1.84201V16.0162C0.332031 16.6496 0.669652 16.9663 1.28215 16.9663H2.25618C2.8896 16.9663 3.20631 16.6496 3.20631 16.0162V11.6002C3.20631 9.40417 4.51796 7.77282 6.53474 7.77282C7.98383 7.77282 8.34535 8.72295 8.34535 10.1272V16.0132C8.34535 16.6466 8.66206 16.9633 9.29548 16.9633H10.2695C10.879 16.9633 11.2196 16.6466 11.2196 16.0132V9.53563C11.2196 6.4791 9.74664 5.14355 7.18907 5.14355C5.19919 5.14355 3.7471 6.36855 3.1824 7.47703H3.13759C3.13759 7.47703 3.20631 7.0677 3.20631 6.503V1.83902C3.20631 1.22951 2.8896 0.888898 2.25618 0.888898H1.28215ZM27.0999 7.86246H27.7124L27.7094 7.86544V12.8461C27.7094 15.9714 30.1534 17.0799 32.215 17.0799C33.0068 17.0799 33.3922 16.808 33.3922 16.1297V15.4276C33.3922 14.7912 33.1442 14.5671 32.4421 14.4984C31.6473 14.4088 30.5837 14.0681 30.5837 12.3472V7.86246H32.2807C32.8693 7.86246 33.2099 7.54575 33.2099 6.91233V6.5269C33.2099 5.91739 32.8723 5.57678 32.2598 5.57678H30.5837V3.22238C30.5837 2.61287 30.246 2.27226 29.6335 2.27226H28.7282C28.1187 2.27226 27.7781 2.60988 27.7781 3.22238V5.57678H27.1208C26.4874 5.57678 26.1707 5.9144 26.1707 6.5269V6.91233C26.1707 7.54575 26.4874 7.86246 27.0999 7.86246ZM19.0565 0.17059C19.0525 0.30127 18.9979 2.07026 21.0884 4.32488H21.0914C21.2982 4.548 21.4984 4.76218 21.6916 4.96894C23.8379 7.26515 25.1279 8.64525 25.1279 11.167V11.2536V11.3134C25.1279 14.6657 22.409 17.3846 19.0567 17.3846C15.7043 17.3846 12.9854 14.6657 12.9854 11.3134V11.2536V11.167C12.9854 9.93301 13.4276 8.7349 14.1776 7.54873C14.9275 6.36257 15.4832 5.69629 15.4832 5.69629C15.4887 5.72746 15.4948 5.77831 15.5022 5.84039C15.5189 5.98067 15.5425 6.17827 15.5818 6.33568C15.9254 7.67721 16.9174 7.98794 16.9174 7.98794C16.9174 7.98794 16.6216 7.04977 16.6634 5.73513C16.6694 5.51105 16.6843 5.28099 16.7142 5.03897C17.004 2.66366 18.6772 0.619995 18.6473 0.664812C18.8625 0.354079 19.0776 0.132981 19.0567 0.162859C19.0568 0.163076 19.0567 0.165673 19.0565 0.17059ZM76.1877 7.86301H76.8002L76.7972 7.86599V12.8467C76.7972 15.9719 79.2412 17.0804 81.3028 17.0804C82.0946 17.0804 82.48 16.8085 82.48 16.1303V15.4282C82.48 14.7917 82.232 14.5677 81.5299 14.4989C80.7351 14.4093 79.6715 14.0687 79.6715 12.3477V7.86301H81.3685C81.9571 7.86301 82.2978 7.5463 82.2978 6.91288V6.52745C82.2978 5.91794 81.9601 5.57733 81.3476 5.57733H79.6715V3.22293C79.6715 2.61342 79.3338 2.27281 78.7213 2.27281H77.816C77.2065 2.27281 76.8659 2.61043 76.8659 3.22293V5.57733H76.2086C75.5752 5.57733 75.2585 5.91495 75.2585 6.52745V6.91288C75.2585 7.5463 75.5752 7.86301 76.1877 7.86301ZM39.6485 14.3613L39.3766 14.7676L39.3796 14.7647C39.0419 15.2636 39.0868 15.7626 39.6066 16.0554C40.3088 16.5305 41.5995 17.2326 43.4549 17.2326C46.1261 17.2326 47.847 15.7148 47.847 13.6771C47.847 11.3541 45.8539 10.6614 44.2192 10.0932C43.0827 9.6982 42.1194 9.36339 42.1194 8.58287C42.1194 7.85684 42.7319 7.45049 43.682 7.45049C44.6321 7.45049 45.3791 7.78812 45.8781 8.01519C46.4428 8.26617 46.873 8.19745 47.1449 7.65366L47.372 7.24732C47.62 6.72744 47.5512 6.25238 47.0314 5.98049C46.4218 5.64286 45.3552 5.1439 43.8165 5.1439C41.3933 5.1439 39.4005 6.345 39.4005 8.60976C39.4005 10.9558 41.4089 11.6664 43.0471 12.246C44.1754 12.6453 45.1281 12.9823 45.1281 13.7488C45.1281 14.4719 44.5156 14.926 43.5207 14.926C42.4013 14.926 41.5683 14.4748 41.0216 14.1788L40.9392 14.1342C40.3745 13.8414 39.9891 13.8862 39.6485 14.3613ZM50.5237 5.41579C49.9142 5.41579 49.5736 5.75341 49.5736 6.36591V6.3689V20.5431C49.5736 21.1765 49.9112 21.4932 50.5237 21.4932H51.4977C52.1311 21.4932 52.4478 21.1765 52.4478 20.5431V16.4677C52.4478 15.8791 52.3791 15.4728 52.3791 15.4728H52.4239C52.4239 15.4728 53.3531 17.2386 55.7524 17.2386C58.785 17.2386 61.0498 14.7706 61.0498 11.1912C61.0498 7.61183 59.036 5.1439 55.9107 5.1439C53.2157 5.1439 52.1969 7.18159 52.1969 7.18159H52.1521C52.1521 7.18159 52.176 6.97543 52.176 6.72744V6.20756C52.176 5.7564 51.8592 5.41579 51.2467 5.41579H50.5237ZM58.1337 11.2361C58.1337 13.5217 56.822 14.8125 55.2355 14.8125H55.2325C53.3532 14.8125 52.3582 13.0467 52.3582 11.257C52.3582 8.6994 53.7864 7.61184 55.2803 7.61184C56.9564 7.61184 58.1337 8.95038 58.1337 11.2361ZM68.4775 5.1439C71.9882 5.1439 74.8416 7.65665 74.8416 11.1912C74.8416 14.7258 71.9882 17.2386 68.4775 17.2386C64.9668 17.2386 62.1374 14.7467 62.1374 11.1912C62.1374 7.63574 64.9668 5.1439 68.4775 5.1439ZM68.4775 14.7916C70.3569 14.7916 71.9195 13.3425 71.9195 11.1912C71.9195 9.04001 70.3569 7.59092 68.4775 7.59092C66.5982 7.59092 65.0595 9.06391 65.0595 11.1912C65.0595 13.3186 66.5982 14.7916 68.4775 14.7916ZM83.5875 14.7676L83.8594 14.3613C84.2 13.8862 84.5854 13.8414 85.1501 14.1342L85.2326 14.1788C85.7792 14.4748 86.6122 14.926 87.7316 14.926C88.7266 14.926 89.3391 14.4719 89.3391 13.7488C89.3391 12.9823 88.3864 12.6453 87.2581 12.246C85.6198 11.6664 83.6114 10.9558 83.6114 8.60976C83.6114 6.345 85.6043 5.1439 88.0274 5.1439C89.5661 5.1439 90.6328 5.64286 91.2423 5.98049C91.7622 6.25238 91.8309 6.72744 91.5829 7.24732L91.3558 7.65366C91.084 8.19745 90.6537 8.26617 90.089 8.01519C89.59 7.78812 88.8431 7.45049 87.893 7.45049C86.9428 7.45049 86.3303 7.85684 86.3303 8.58287C86.3303 9.36339 87.2936 9.6982 88.4301 10.0932C90.0649 10.6614 92.058 11.3541 92.058 13.6771C92.058 15.7148 90.337 17.2326 87.6659 17.2326C85.8104 17.2326 84.5197 16.5305 83.8176 16.0554C83.2977 15.7626 83.2529 15.2636 83.5905 14.7647L83.5875 14.7676Z" fill="white"/>
</svg>
