<svg width="60" height="16" viewBox="0 0 60 16" fill="none" xmlns="http://www.w3.org/2000/svg">
<path fill-rule="evenodd" clip-rule="evenodd" d="M7.99792 16V14.0088H10.0062V8H5.98963V10.0088H7.99792V14.0088H1.99067V2.00881H7.99792V4H10.0062V2.00881H7.99792V0H1.99067V2.00881H0V14.0088H1.99067V16H7.99792ZM19.9889 8H17.9983V4H19.9889V8ZM13.9817 8H11.991V16H13.9993V12H19.9889V16H21.9972V8H19.9889V10.0088H13.9817V8ZM15.99 4V0H17.9983V4H15.99ZM15.99 4H13.9817V8H15.99V4ZM31.9799 8V6.00881H33.9706V4H35.9789V16H37.9872V0H35.9789V2.00881H33.9706V4H31.9799V6.00881H29.9717V4H27.981V2.00881H25.9727V0H23.982V16H25.9903V4H27.981V6.00881H29.9717V8H31.9799ZM47.9787 16H39.9808V0H47.9787V2.00881H41.9715V6.00881H45.988V8H41.9715V14.0088H47.9787V16ZM57.9917 14.0088V8H60V14.0088H57.9917ZM51.9845 14.0088H57.9917V16H51.9845V14.0088ZM51.9845 14.0088H49.9938V12H51.9845V14.0088ZM51.9845 1.99119H49.9938V6.00881H51.9845V8H57.9917V5.99119H51.9845V1.99119ZM57.9917 1.99119H51.9845V0H57.9917V1.99119ZM57.9917 1.99119H60V4H57.9917V1.99119Z" fill="white"/>
</svg>
