<svg width="62" height="38" viewBox="0 0 62 38" fill="none" xmlns="http://www.w3.org/2000/svg">
<path d="M30.9729 11.1844H33.9698L33.2722 16.3515H30.3011L28.5185 29.9668C28.2601 32.0336 27.2009 33.9713 25.5733 35.4181C23.9456 36.839 21.9563 37.6399 19.9411 37.6399C15.7558 37.6399 12.7847 34.2038 13.3273 29.9668L18.4685 29.941C18.2877 31.3361 19.2436 32.4728 20.6129 32.4728C21.2587 32.4728 21.8788 32.2145 22.3955 31.7753C22.938 31.2844 23.2739 30.6385 23.3772 29.941L25.1341 16.3515H22.163L22.8347 11.1844H25.8316L26.2966 7.74832C26.555 5.68149 27.6143 3.74383 29.2419 2.29704C30.8437 0.876094 32.8588 0.0751953 34.874 0.0751953C39.0594 0.0751953 42.0046 3.51131 41.4879 7.74832L36.3466 7.77416C36.5275 6.37904 35.5716 5.21645 34.2281 5.21645C33.6081 5.21645 32.9622 5.4748 32.4455 5.914C31.9029 6.40488 31.5671 7.02493 31.4637 7.72249L30.9729 11.1844ZM1.00375 22.4745L0.332031 27.6158H8.75438L9.42611 22.4745H7.79847L8.44436 17.6433C8.57354 16.6099 9.11608 15.6281 9.96865 15.0339C10.537 14.6464 11.2088 14.4139 11.9063 14.4139C13.6114 14.4139 14.8257 15.809 14.5932 17.5141L13.2498 27.6416H20.0445L20.742 22.4745H19.0886L19.8895 16.3257C20.0703 15.0081 19.7603 13.8196 19.1144 12.8379C18.1585 11.3911 16.4533 10.4352 14.3865 10.4352C12.3455 10.4352 10.4079 11.3653 9.06441 12.7862L9.27109 11.2103H2.50221L1.83049 16.3515H3.45812L2.65722 22.4745H1.00375ZM34.7707 22.4745L34.0989 27.6158H42.5213L43.193 22.4745H41.5654L42.2113 17.4883C42.4438 15.7831 43.5289 14.4139 44.6656 14.4139C45.8024 14.4139 46.5516 15.809 46.3191 17.5141L45.6991 22.2162L44.9757 27.6158H51.7704L52.4421 22.4745H50.7886L51.4345 17.4883C51.667 15.7831 52.7521 14.388 53.8889 14.388C55.0257 14.388 55.7749 15.7831 55.5424 17.4883L54.1989 27.6158H60.9936L61.6654 22.4745H60.0377L60.8386 16.3257C61.2778 13.0704 59.2627 10.4352 56.3433 10.4352C54.3539 10.4352 52.4421 11.6753 51.3054 13.5096C50.6595 11.6753 49.0835 10.4352 47.0683 10.4352C45.4665 10.4352 43.9423 11.2361 42.8055 12.502L42.9863 11.2103H36.1916L35.5716 16.3515H37.1992L36.3983 22.5004H34.7707V22.4745Z" fill="url(#paint0_linear_452_9321)"/>
<defs>
<linearGradient id="paint0_linear_452_9321" x1="11.973" y1="1.71277" x2="49.4723" y2="39.212" gradientUnits="userSpaceOnUse">
<stop stop-color="#FF7401"/>
<stop offset="1" stop-color="#FF014F"/>
</linearGradient>
</defs>
</svg>
