<svg width="93" height="16" viewBox="0 0 93 16" fill="none" xmlns="http://www.w3.org/2000/svg">
<path fill-rule="evenodd" clip-rule="evenodd" d="M38.5229 0C34.0898 0 30.4815 3.58836 30.4815 7.99997C30.4815 12.4116 34.0898 15.9999 38.5229 15.9999C42.956 15.9999 46.5644 12.4116 46.5644 7.99997C46.5644 3.58836 42.956 0 38.5229 0ZM38.5229 14.2246C35.0739 14.2246 32.2684 11.4344 32.2684 8.00311C32.2684 4.57186 35.0739 1.78161 38.5229 1.78161C41.9719 1.78161 44.7774 4.57186 44.7774 8.00311C44.7774 11.4344 41.9719 14.2246 38.5229 14.2246ZM38.523 3.19852C35.8613 3.19852 33.6963 5.35405 33.6963 7.99976C33.6963 10.6455 35.8613 12.801 38.523 12.801C41.1848 12.801 43.3498 10.6455 43.3498 7.99976C43.3498 5.35405 41.1848 3.19852 38.523 3.19852ZM38.523 9.61798C37.6358 9.61798 36.9141 8.89213 36.9141 7.99976C36.9141 7.10738 37.6358 6.38154 38.523 6.38154C39.4103 6.38154 40.1319 7.10738 40.1319 7.99976C40.1319 8.89213 39.4103 9.61798 38.523 9.61798ZM67.4075 15.381C68.3979 15.7926 69.4757 16 70.641 16V15.9969C71.8063 15.9969 72.8841 15.7895 73.8744 15.3778C74.8648 14.9662 75.727 14.4006 76.4612 13.6874C77.1953 12.9741 77.7671 12.1351 78.1763 11.1736C78.5856 10.2153 78.7918 9.19091 78.7918 8.10686V8.06287C78.7918 6.97882 78.5856 5.96076 78.1763 5.00554C77.7671 4.05031 77.2016 3.21764 76.4831 2.51065C75.7645 1.80052 74.9085 1.24121 73.9182 0.829588C72.9278 0.417963 71.85 0.210579 70.6847 0.210579C69.5194 0.210579 68.4416 0.417963 67.4512 0.829588C66.4609 1.24121 65.5987 1.80366 64.8645 2.52008C64.1303 3.23649 63.5586 4.07545 63.1494 5.03696C62.7401 5.99846 62.5339 7.01967 62.5339 8.10372V8.14771C62.5339 9.23176 62.7401 10.2498 63.1494 11.205C63.5586 12.1603 64.1241 12.9929 64.8426 13.6999C65.5612 14.4101 66.4172 14.9694 67.4075 15.381ZM72.2499 11.8775C71.775 12.0974 71.247 12.2043 70.6722 12.2043L70.6691 12.2011C70.0942 12.2011 69.5663 12.088 69.0914 11.8649C68.6165 11.6418 68.2104 11.3402 67.8699 10.9662C67.5294 10.5923 67.2669 10.1556 67.0795 9.66538C66.892 9.17206 66.7983 8.6536 66.7983 8.10372V8.05973C66.7983 7.50985 66.8889 6.98825 67.0701 6.49807C67.2513 6.00475 67.5106 5.57427 67.848 5.20663C68.1885 4.839 68.5916 4.54678 69.0602 4.32997C69.5288 4.11316 70.0536 4.00632 70.6285 4.00632C71.2033 4.00632 71.7313 4.11944 72.2061 4.34254C72.681 4.56563 73.0903 4.86414 73.437 5.2412C73.7838 5.61826 74.0494 6.05188 74.2368 6.54206C74.4243 7.03538 74.518 7.55384 74.518 8.10372V8.14771C74.518 8.69759 74.4243 9.21919 74.2368 9.70937C74.0494 10.2027 73.7901 10.6332 73.4589 11.0008C73.1278 11.3684 72.7247 11.6607 72.2499 11.8775ZM18.6906 0.518807H14.5074V15.6955H18.6906V9.92647H24.0578V15.6955H28.241V0.518807H24.0578V6.19985H18.6906V0.518807ZM6.46691 0.518808H0L0.00312716 0.521948V15.6986H4.18629V11.3624H6.25445C7.18543 11.3624 8.05396 11.2462 8.8506 11.0137C9.64725 10.7843 10.3345 10.4355 10.9094 9.97361C11.4842 9.51171 11.931 8.93983 12.2559 8.26112C12.5777 7.58241 12.7401 6.79373 12.7401 5.89821V5.85422C12.7401 5.01526 12.5933 4.26428 12.2996 3.59814C12.0028 2.932 11.5842 2.37269 11.0375 1.91707C10.4908 1.46146 9.82844 1.11582 9.05366 0.877015C8.27888 0.63821 7.41664 0.518808 6.46691 0.518808ZM7.92273 7.52899C7.50098 7.88406 6.91365 8.06316 6.16699 8.06316H4.18318V4.03176H6.14511C6.9074 4.03176 7.49785 4.20143 7.92273 4.54393C8.34761 4.88329 8.56004 5.38289 8.56004 6.03646V6.08045C8.56004 6.69003 8.34761 7.17393 7.92273 7.52899ZM52.5125 4.20457H47.9857V0.518807H61.2225V4.20457H56.6957V15.6955H52.5125V4.20457ZM86.8951 15.9558C85.5455 15.9558 84.2615 15.7452 83.0462 15.3242C81.8309 14.9031 80.7562 14.2684 79.8221 13.4263L82.1496 10.6235C83.6585 11.8364 85.2893 12.446 87.0419 12.446C87.6011 12.446 88.0291 12.3548 88.3259 12.1757C88.6227 11.9966 88.7696 11.739 88.7696 11.4059V11.3619C88.7696 11.2048 88.7321 11.0634 88.6602 10.9409C88.5884 10.8183 88.454 10.6989 88.2603 10.5826C88.0666 10.4664 87.8073 10.3564 87.4855 10.2464C87.1638 10.1396 86.742 10.0265 86.2234 9.91022C85.4174 9.72169 84.6707 9.51745 83.9803 9.29436C83.2899 9.07126 82.69 8.78218 82.1808 8.42712C81.6716 8.07519 81.2686 7.63529 80.9749 7.10741C80.6813 6.58266 80.5344 5.92909 80.5344 5.14983V5.10584C80.5344 4.39885 80.6656 3.74842 80.9343 3.15769C81.1999 2.56697 81.5872 2.05479 82.0996 1.62117C82.6088 1.18755 83.2243 0.85134 83.9428 0.615677C84.6614 0.380014 85.4736 0.25747 86.3796 0.25747C87.673 0.25747 88.8258 0.427146 89.8411 0.769643C90.8533 1.11214 91.7718 1.61803 92.5903 2.28731L90.5003 5.26609C89.8099 4.77591 89.1038 4.40199 88.3759 4.15062C87.6511 3.89925 86.9482 3.77042 86.2734 3.77042C85.7704 3.77042 85.3924 3.86468 85.1425 4.05321C84.8894 4.24174 84.7645 4.47112 84.7645 4.74449V4.78848C84.7645 4.9613 84.8051 5.11213 84.8832 5.2441C84.9613 5.37293 85.0987 5.49233 85.2924 5.60231C85.4861 5.71228 85.7517 5.81912 86.0891 5.92595C86.4265 6.03278 86.8545 6.1459 87.3731 6.26216C88.2353 6.45069 89.0132 6.67064 89.713 6.92202C90.4097 7.17339 91.0033 7.48132 91.4907 7.84267C91.978 8.20402 92.3529 8.64079 92.6122 9.15296C92.8715 9.66513 92.9996 10.2747 92.9996 10.9817V11.0257C92.9996 11.805 92.8528 12.4962 92.5591 13.1027C92.2654 13.7091 91.8499 14.2244 91.3188 14.6518C90.7877 15.076 90.1473 15.4027 89.4006 15.6258C88.654 15.8489 87.8198 15.962 86.9013 15.962L86.8951 15.9558Z" fill="white"/>
</svg>
