<svg width="92" height="32" viewBox="0 0 92 32" fill="none" xmlns="http://www.w3.org/2000/svg">
<path fill-rule="evenodd" clip-rule="evenodd" d="M79.6389 11.5631C80.7436 11.5658 91.3228 11.5658 91.3228 11.5658L91.3255 11.5685C91.998 11.5551 92.2626 12.476 91.6739 12.8153L91.6732 12.8157C90.6931 13.3918 89.7129 13.9679 88.7381 14.5575C85.9292 16.2486 83.1257 17.9505 80.3736 19.7385C80.5734 23.4654 80.9677 27.1787 81.4026 30.8867C81.4458 31.2503 81.1892 31.5815 80.8273 31.6273C80.6274 31.6542 80.4384 31.5842 80.2979 31.4576C80.2979 31.4576 73.0516 25.178 72.4034 24.6152C71.5526 25.0891 70.7099 25.5738 69.8727 26.072C67.9227 27.2353 65.9754 28.4417 64.0767 29.6884C63.1314 30.3266 62.205 30.9918 61.338 31.7565C60.3711 32.5617 59.1368 31.1856 60.0713 30.3051C60.1551 30.2297 60.255 30.1731 60.3522 30.1328C61.681 29.605 62.9477 28.9129 64.1766 28.2047C66.8693 26.6132 69.554 24.9922 72.1387 23.2257C72.3872 23.0534 72.714 23.0911 72.9246 23.2903C72.9246 23.2903 78.1967 27.86 79.9603 29.3895C79.7308 26.0666 79.4526 22.7464 79.015 19.445C78.9799 19.1784 79.1123 18.9307 79.3337 18.8095C80.3222 18.244 81.3026 17.665 82.2776 17.078C84.225 15.8986 86.1642 14.7029 88.0926 13.4939C88.4032 13.3 88.7111 13.1034 89.019 12.9068H79.0312C78.6828 12.9068 78.3965 12.6376 78.3641 12.2956L77.5053 2.86535L72.0145 12.5649C71.8902 12.7803 71.6633 12.9042 71.4311 12.9042H61.1625C61.1217 12.9755 61.0801 13.0481 61.0377 13.122C60.9312 13.3077 60.82 13.5017 60.706 13.7039C58.964 16.7953 57.3165 20.4494 57.3165 22.0409C57.3165 22.1947 57.3825 22.3583 57.442 22.5057C57.4908 22.6267 57.5352 22.7368 57.5352 22.8218C57.5352 23.1045 57.257 23.5408 56.7898 23.5408C56.2307 23.5408 55.9201 23.1045 55.9201 22.2294C55.9201 21.6773 56.093 20.9099 56.3712 20.0347C55.0073 21.303 53.4462 22.4152 52.4063 22.4152C51.7527 22.4152 51.037 21.8524 51.037 20.7591C51.037 19.3831 52.6224 16.324 52.8709 15.8555C53.2463 15.2334 53.5569 14.7326 53.9917 14.7326C54.4266 14.7326 54.7696 14.9803 54.7696 15.3869C54.7696 15.7504 54.6177 15.9643 54.4593 16.1875C54.4276 16.2322 54.3956 16.2773 54.3645 16.324C53.4624 17.7916 52.5927 19.9459 52.5927 20.5706C52.5927 20.7914 52.7466 21.0714 53.0275 21.0714C53.8648 21.0714 56.1065 18.9468 57.1625 17.5116C57.2679 17.3796 57.3786 17.245 57.4866 17.1184C57.889 16.1921 58.9694 13.8924 59.5501 12.9015H58.2185C57.284 12.9015 56.3469 13.0119 55.4637 13.3108C55.3692 13.3431 55.28 13.3592 55.2071 13.3592C54.7102 13.3592 54.5238 12.7049 54.5238 12.2363C54.5238 11.7382 55.0234 11.1134 55.7068 11.1134C55.8148 11.1134 55.9228 11.1296 56.0228 11.17C56.7439 11.4689 57.5379 11.5577 58.3212 11.5577H60.3117C60.4023 11.3945 60.4879 11.2396 60.5694 11.0923C61.0776 10.1728 61.422 9.54976 61.7945 9.05074C62.3238 8.30214 62.6965 7.92784 63.1638 7.92784C63.7229 7.92784 63.9416 8.17827 63.9416 8.64682C63.9416 9.05343 63.8174 9.30117 63.1962 9.80203C62.9207 9.99861 62.5264 10.5803 61.943 11.5631H71.0422L77.3783 0.366424C77.5323 0.0917576 77.8618 -0.0590394 78.1508 0.0217449C78.4398 0.102529 78.618 0.347575 78.6423 0.608778C78.6423 0.608778 79.539 10.4672 79.6389 11.5631ZM37.4769 18.5132C39.2189 16.4209 41.2094 14.6409 42.9812 14.6409V14.6517C43.7887 14.6517 44.3181 15.2468 44.3181 16.1516C44.3181 18.7744 41.9225 22.3343 39.5592 22.3343C38.4087 22.3343 38.1278 21.8038 38.1278 21.241C38.1278 20.8667 38.4708 20.4601 38.9678 20.4601C39.1082 20.4601 39.248 20.5382 39.3877 20.6163C39.5275 20.6944 39.6673 20.7725 39.8077 20.7725C40.9583 20.7725 42.7003 18.1173 42.7003 16.6498C42.7003 16.3374 42.4221 16.1489 42.1412 16.1489C41.5498 16.1489 40.2128 17.3661 38.6896 19.0518C38.0981 19.7061 37.4445 20.8613 37.4445 21.3299C37.4445 21.8604 36.7585 22.4851 36.3857 22.4851C35.9833 22.4851 35.6403 22.2993 35.6403 21.206C35.6403 20.6109 35.6808 20.0023 35.751 19.3857C34.2548 20.9502 32.1481 22.5497 29.4824 22.5497C28.5047 22.5497 27.6728 21.8146 27.5918 20.5624C26.3872 21.6422 25.08 22.5174 24.0699 22.5174C22.8248 22.5174 21.7364 21.6126 21.7364 20.1127C21.7364 20.0155 21.7415 19.9132 21.7468 19.8083L21.7472 19.8004C20.286 21.2168 18.3198 22.547 15.8918 22.547C14.9924 22.547 14.2091 21.9196 14.0336 20.8371C11.2814 23.6376 7.59477 26.6374 4.26194 26.6374C1.64752 26.6374 0 25.0136 0 22.0785C0 13.992 9.32872 5.31034 14.8654 5.31034C16.359 5.31034 17.415 5.99701 17.415 7.58846C17.415 10.2732 14.0255 13.9893 12.378 13.9893C11.7271 13.9893 11.4462 13.7685 11.4462 13.3322C11.4462 12.9579 11.6028 12.4274 12.567 12.2093C13.9364 11.897 15.7405 9.49228 15.7405 7.61808C15.7405 7.0876 15.4299 6.7133 14.7763 6.7133C10.3928 6.7133 1.71504 14.9856 1.71504 21.9492C1.71504 23.7292 2.71165 25.1025 4.29705 25.1025C8.22407 25.1025 12.3969 21.1737 14.6575 18.4674C15.8702 16.0143 17.858 14.7998 19.3785 14.7998C20.0321 14.7998 20.7479 15.3007 20.7479 15.9873C20.7479 17.6111 18.1362 19.453 16.0835 19.9215C15.6784 20.0158 15.5542 20.2339 15.5542 20.452C15.5542 20.7024 15.8323 21.2949 16.4238 21.2949C18.9518 21.2949 20.9855 19.041 22.128 17.6515C22.8113 15.0556 24.2806 11.8269 25.5662 9.61615C27.4298 6.43055 28.8315 4.90103 30.6032 4.90103C31.3514 4.90103 31.8483 5.52577 31.8483 6.18012C31.8483 7.0849 31.4135 8.98872 29.1745 11.8619C27.4325 14.0781 25.9389 15.3895 24.2914 16.7009C23.7944 17.5761 23.3596 19.2941 23.3596 19.9485C23.3596 20.7294 23.6999 21.1656 24.2914 21.1656C25.3852 21.1656 27.2974 19.4503 28.4615 18.0608C29.6877 15.8769 31.535 14.7944 32.9692 14.7944C33.6228 14.7944 34.3385 15.2953 34.3385 15.982C34.3385 17.6057 31.7268 19.4476 29.6741 19.9161C29.269 20.0104 29.1448 20.2285 29.1448 20.4466C29.1448 20.6971 29.423 21.2895 30.0145 21.2895C32.6262 21.2895 34.7112 18.8848 35.8294 17.5115L35.8788 17.4504C35.9657 17.3429 36.0542 17.2336 36.1427 17.1318C36.7531 14.447 37.8604 11.7489 39.0947 9.45727C40.9286 6.08318 42.4843 4.49173 44.256 4.49173C45.0014 4.49173 45.5308 5.14877 45.5308 5.83544C45.5308 8.30205 42.9191 12.6429 38.0981 16.4209C37.8496 16.8571 37.5093 18.077 37.4769 18.5132ZM43.7293 5.92969C43.2918 5.92969 41.863 7.11722 40.4937 9.80195H40.4964C39.4701 11.8 38.7868 13.58 38.5059 14.3609C41.863 11.8619 44.1345 7.30302 44.1345 6.30399C44.1345 6.08587 44.0102 5.92969 43.7293 5.92969ZM32.8125 16.5151C32.8125 16.3266 32.7504 16.2028 32.564 16.2028H32.5613C31.8159 16.2028 30.1684 17.8561 29.5769 18.7932C30.6978 18.5751 32.8125 17.0456 32.8125 16.5151ZM30.0469 6.42786C29.6714 6.42786 28.3048 7.52114 26.7491 10.3001V10.2974C25.4743 12.5782 25.0692 13.7954 24.8829 14.4821C25.504 13.9839 26.8113 12.6725 28.0861 10.9545C29.7363 8.76791 30.3575 7.36226 30.3575 6.70791C30.3575 6.52211 30.2656 6.42786 30.0469 6.42786ZM16.2432 18.432L16.2429 18.4324L16.2402 18.4297C16.1456 18.559 16.0592 18.6801 15.989 18.7906C17.1098 18.5724 19.2246 17.0429 19.2246 16.5124C19.2246 16.3239 19.1625 16.2001 18.9761 16.2001C18.4711 16.2001 17.5501 16.9621 16.8263 17.743C16.7479 17.84 16.6588 17.9477 16.5508 18.0743C16.4537 18.1899 16.3485 18.3109 16.2433 18.4319L16.2433 18.4319L16.2432 18.432ZM50.3478 14.5467C51.0336 14.5467 51.5304 14.953 51.5308 15.7333C51.5305 16.7962 51.2818 17.7 50.3803 17.7C50.0399 17.7 49.759 17.4496 49.759 17.0753C49.759 16.9149 49.8307 16.7131 49.8921 16.5406L49.8921 16.5406C49.9379 16.4117 49.9778 16.2992 49.9778 16.2324C49.9778 16.1382 49.9481 16.0762 49.7915 16.0762C49.3863 16.0762 47.3958 17.9801 46.3695 19.4799C46.0886 19.8866 45.7483 20.5732 45.4674 21.2599C45.2189 21.8846 44.9381 22.4771 44.7517 22.4771C44.379 22.4771 43.9441 22.1324 43.9441 21.6961C43.9441 21.3515 44.379 20.0724 44.8759 18.9172C45.4026 17.6677 45.8374 16.5125 45.9941 15.9497C46.2426 15.1391 46.4613 14.6706 46.9583 14.6706C47.3607 14.6706 47.6416 14.8887 47.6416 15.2334C47.6416 15.4515 47.3931 16.1382 47.1122 16.8572C48.3897 15.5458 49.5403 14.5467 50.3478 14.5467ZM63.568 15.3895C63.568 14.9829 63.2249 14.7351 62.7901 14.7351C62.3553 14.7351 62.0447 15.236 61.672 15.858C61.4235 16.3266 59.8381 19.3856 59.8381 20.7616C59.8381 21.8549 60.5538 22.4177 61.2074 22.4177C62.1338 22.4177 63.4761 21.5318 64.7239 20.4385C64.759 21.7607 65.6125 22.5416 66.6172 22.5416C69.6962 22.5416 72.0324 20.4062 73.5368 18.6612C73.7609 18.9278 74.0769 19.1298 74.3902 19.2968C74.8575 19.5472 75.4165 19.8596 75.4165 20.4197C75.4165 20.9501 75.0114 21.451 74.4226 21.451C73.9257 21.451 73.6448 21.2006 73.6448 20.7643C73.6448 20.3281 73.3342 20.1719 72.9912 20.1719C72.5563 20.1719 72.2457 20.5166 72.2457 20.9851C72.2457 21.7661 73.0533 22.547 74.2363 22.547C76.0701 22.547 77.0343 21.3594 77.0343 20.2689C77.0343 19.118 76.1871 18.6727 75.5398 18.3326L75.4787 18.3004C75.1059 18.1119 74.7953 17.8642 74.7953 17.6137C74.7953 16.8328 76.1944 15.9577 76.5995 15.9577C76.7859 15.9577 76.8804 16.0519 76.8804 16.1758C76.8804 16.2941 76.8038 16.4124 76.7231 16.5372C76.6329 16.6766 76.5374 16.8242 76.5374 16.989C76.5374 17.4253 76.7859 17.6434 77.2207 17.6434C77.904 17.6434 78.3415 16.5205 78.3415 15.8015C78.3415 15.1444 77.6582 14.6463 77.0667 14.6463C75.8919 14.6463 73.9689 15.683 73.3855 17.0133C73.2678 17.1417 73.1519 17.2847 73.0364 17.4272L72.9615 17.5195C71.8433 18.8928 69.7583 21.2975 67.1466 21.2975C66.5551 21.2975 66.2769 20.7051 66.2769 20.4547C66.2769 20.2365 66.4011 20.0184 66.8063 19.9242C68.8589 19.4556 71.4706 17.6137 71.4706 15.99C71.4706 15.3033 70.7549 14.8025 70.1013 14.8025C68.7293 14.8025 66.9818 15.7934 65.7583 17.7888C64.6402 19.2052 62.6173 21.0794 61.8286 21.0794C61.5477 21.0794 61.3938 20.7993 61.3938 20.5785C61.3938 19.9538 62.2634 17.7996 63.1655 16.332C63.1966 16.2852 63.2286 16.2401 63.2604 16.1954C63.4188 15.9722 63.5706 15.7583 63.5706 15.3949L63.568 15.3895ZM69.6935 16.2027C69.8798 16.2027 69.9419 16.3266 69.9419 16.5151C69.9419 17.0456 67.8272 18.5751 66.7063 18.7932C67.2978 17.8561 68.9453 16.2027 69.6908 16.2027H69.6935Z" fill="white"/>
</svg>
