<svg width="59" height="27" viewBox="0 0 59 27" fill="none" xmlns="http://www.w3.org/2000/svg">
<path fill-rule="evenodd" clip-rule="evenodd" d="M13.0569 3.30704C11.0841 8.92342 9.17763 14.5622 7.33483 20.187H7.33206H3.60217C3.96667 19.1058 4.33076 18.0241 4.69496 16.9419C6.22464 12.397 7.75648 7.84561 9.32982 3.30704H3.72669L4.85284 0H19.8443L18.7182 3.30704H13.0569ZM50.3175 17.2298C50.8958 17.2298 52.1382 15.9715 53.1205 14.5674H53.1232C55.6827 11.507 61.0506 14.2563 58.1757 19.7241C55.3175 25.1639 52.0026 27.0249 46.3386 26.9996L0 26.8119C0.882667 24.1942 3.30931 22.437 6.03755 22.437H49.1028C52.2378 22.437 55.1957 20.7275 56.5958 17.8828C57.4453 16.1564 56.1503 14.7075 54.9439 16.4423C54.0502 18.0818 51.5931 20.4808 49.1388 20.4808C47.2905 20.4808 46.3939 19.3374 46.3939 17.8464C46.3939 16.5632 47.0858 15.1934 47.6716 14.0335C48.1018 13.182 48.4747 12.4436 48.4747 11.9358C48.4747 11.5826 48.3308 11.2912 47.9269 11.2912C45.8738 11.2912 43.7376 17.5241 42.9574 20.1866H39.6342C40.1916 18.5579 40.6429 17.2705 41.0038 16.2408C41.9327 13.5904 42.2628 12.6486 42.2628 11.9946C42.2628 11.6135 42.0304 11.2912 41.6846 11.2912C39.5276 11.2912 37.6861 17.2383 36.7852 20.1478L36.7732 20.1866H33.3642C33.4092 20.0535 33.4537 19.9205 33.4981 19.7876C33.5575 19.6099 33.6167 19.4325 33.6769 19.2561C32.7943 19.9932 31.8452 20.478 30.8795 20.478C29.579 20.478 28.6548 19.6008 28.4529 18.519C27.7307 19.6597 26.6405 20.478 25.1878 20.478C23.7352 20.478 22.6837 19.6344 22.2188 18.1351C20.899 19.5336 19.1226 20.478 16.3196 20.478C13.5167 20.478 11.0901 18.9562 11.0901 15.708C11.0901 11.9049 13.6606 8.18871 17.6174 8.18871C19.9278 8.18871 21.2559 9.91509 21.2559 11.7872C21.2559 15.3297 17.241 16.7618 14.5543 16.148C14.7867 17.1149 15.567 17.6698 17.0391 17.6698C19.1724 17.6698 20.5753 16.9356 22.1248 14.4777C22.7806 11.1847 25.1934 8.19151 27.8995 8.19151C29.0256 8.19151 30.1213 8.86413 30.5558 9.65445L30.9597 8.48298H34.3687C34.2258 8.86952 34.0883 9.24071 33.9564 9.59701C31.8226 15.3606 31.1305 17.2298 32.0582 17.2298C33.0433 17.2298 34.6232 15.2624 35.9652 12.4206C36.0798 12.0781 36.1941 11.7357 36.3083 11.3933C36.6325 10.4216 36.9564 9.45078 37.2878 8.48298H40.6663L39.8002 10.8231C41.2999 8.89215 42.6004 8.18871 43.8428 8.18871C45.2291 8.18871 46.0398 9.30133 45.8655 10.7923C46.8201 9.06591 48.4941 8.18871 49.7946 8.18871C51.0951 8.18871 52.1078 9.18362 52.1354 10.5289C52.1701 11.8388 51.3815 13.4304 50.7401 14.7248C50.3071 15.5987 49.9412 16.3371 49.9412 16.7618C49.9412 17.0533 50.0879 17.2298 50.3175 17.2298ZM18.168 11.9049C18.1984 11.2631 17.8802 10.9408 17.36 10.9408C16.0872 10.9408 14.9915 12.3169 14.6152 14.0713C16.2034 14.1274 18.1099 13.2502 18.168 11.9049ZM25.4784 15.8285C25.4784 16.6469 25.7966 17.2607 26.5464 17.2607V17.2635C27.5868 17.2635 28.713 15.624 29.8391 11.9666C29.4075 11.5266 28.9149 11.2351 28.309 11.2351C26.6349 11.2351 25.4784 13.8695 25.4784 15.8285Z" fill="white"/>
</svg>
