<svg width="65" height="24" viewBox="0 0 65 24" fill="none" xmlns="http://www.w3.org/2000/svg">
<path fill-rule="evenodd" clip-rule="evenodd" d="M52.2549 0H49.9287V2.57832H52.2549V0ZM52.2549 5.10976H49.9287V16.2861H52.2549V5.10976ZM40.1692 12.9505C40.4858 14.0894 41.3833 14.765 42.9716 14.765C44.6437 14.765 45.2298 14.1225 45.2298 13.2511C45.2298 12.3797 44.7326 11.8861 42.4797 11.4973C38.9185 10.8548 38.28 9.58632 38.28 8.14136C38.28 6.5861 39.4026 4.82126 42.6393 4.82126C45.8761 4.82126 47.1268 6.67985 47.2524 8.15515H44.9655C44.819 7.52642 44.3898 6.59437 42.5347 6.59437C40.9595 6.59437 40.5853 7.31961 40.5853 7.92076C40.5853 8.64875 41.0144 9.05411 43.1339 9.43741C46.9123 10.1296 47.5664 11.4229 47.5664 13.0581C47.5664 15.0408 46.1194 16.5767 42.8513 16.5767C39.8814 16.5767 38.1675 15.1621 37.8535 12.9478H40.1719L40.1692 12.9505ZM35.7179 13.032C35.7179 14.1185 35.7179 15.3346 35.7336 16.2887H33.4702C33.4283 15.9854 33.4074 15.3043 33.3969 14.6452C32.8579 15.8089 31.9159 16.5783 29.9116 16.5783C27.9073 16.5783 26.1201 15.3622 26.1201 12.1827V5.11232H28.4437V11.725C28.4437 13.2582 28.9644 14.5487 30.6547 14.5487C32.6041 14.5487 33.3917 13.3767 33.3917 10.5116V5.11232H35.7179V13.032ZM64.9968 12.7465C64.5337 14.7402 63.0265 16.5795 59.9938 16.5795C56.4587 16.5795 54.6611 14.0591 54.6611 10.7362C54.6611 7.41336 56.5948 4.82126 60.0618 4.82126C63.5289 4.82126 64.8084 7.32237 64.9732 8.72045H62.6601C62.3775 7.75254 61.692 6.7681 60.0409 6.7681C58.1098 6.7681 57.0423 8.36472 57.0423 10.6838C57.0423 13.0029 58.0758 14.6271 60.02 14.6271C61.4434 14.6271 62.2284 13.9157 62.6811 12.7437H64.9994L64.9968 12.7465ZM7.30825 0.615895L14.7578 5.27342H14.7604L22.2099 0.615895C22.5422 0.40632 22.9609 0.660015 22.9609 1.06538V19.4666C22.9609 21.9677 21.0089 24 18.6592 24C16.3094 24 14.3915 22.0008 14.3601 19.53C14.326 17.0565 16.2336 14.98 18.5807 14.9359C19.4363 14.9194 20.237 15.1703 20.9147 15.6115V3.93048L15.0116 7.6201C14.8546 7.71661 14.661 7.71661 14.504 7.6201L8.60087 3.93048V16.1878C8.60087 18.5786 6.75352 20.7075 4.48753 20.8095C2.03837 20.9198 0.0104908 18.8572 2.42741e-05 16.3009C-0.0078256 13.8412 1.88923 11.795 4.22064 11.7482C5.07628 11.7316 5.87958 11.9826 6.55728 12.4238V1.06538C6.55728 0.660015 6.97594 0.409078 7.30825 0.615895Z" fill="white"/>
</svg>
