<svg width="108" height="16" viewBox="0 0 108 16" fill="none" xmlns="http://www.w3.org/2000/svg">
<path fill-rule="evenodd" clip-rule="evenodd" d="M8.33127 0C3.55751 0 0 3.47566 0 8.02996C0 12.9438 4.0136 16 8.54411 16C11.5239 16 13.8956 14.6217 14.9598 13.633L13.5915 10.9363C12.7401 11.5955 10.9462 12.794 8.75695 12.794C6.11162 12.794 3.89198 11.0861 3.89198 7.94007C3.89198 5.15356 5.62513 3.23595 8.45289 3.23595C9.76035 3.23595 11.3415 3.68539 11.3415 4.73408V5.75281H14.6861V3.65543C14.6861 0.958802 10.9158 0 8.33127 0ZM16.772 11.3558C16.772 6.68165 23.0053 6.20225 25.4986 6.20225H26.4716V5.69288C26.4716 3.74532 25.2249 3.05618 23.6134 3.05618C22.4276 3.05618 21.3937 3.41573 20.5728 3.77528C20.0863 3.98502 19.6302 4.25468 19.2349 4.52434L17.8058 1.88764C18.2923 1.52809 18.8396 1.1985 19.4782 0.928839C20.5424 0.449438 22.0931 0 23.9479 0C28.1135 0 30.3331 2.09738 30.3331 6.02247V12.1348C30.3331 12.5843 30.546 12.794 31.0021 12.794H32.4007V15.6404H28.752C27.3229 15.6404 26.7756 14.8914 26.7756 14.0225V13.8427C26.7756 13.603 26.806 13.4232 26.8364 13.2734C26.8668 13.1835 26.8668 13.1236 26.8668 13.0637H26.806C26.5324 13.603 26.1675 14.0824 25.7114 14.5318C24.8904 15.2809 23.735 16 21.9106 16C19.2349 16 16.772 14.4719 16.772 11.3558ZM20.664 11.0562C20.664 12.2247 21.485 13.1536 22.914 13.1536C25.0121 13.1536 26.502 10.9363 26.502 9.01873V8.50936H25.8634C24.3127 8.50936 20.664 8.74906 20.664 11.0562ZM47.7176 8C47.7176 3.29588 50.9407 0 55.5928 0C60.0625 0 62.495 3.20599 62.495 7.25094C62.495 7.46067 62.495 7.79026 62.4646 8.05992L62.4038 8.53933H51.6704C51.9137 11.3258 53.9813 12.794 56.3226 12.794C57.63 12.794 58.6942 12.4345 59.5152 11.985C60.0017 11.7453 60.4274 11.4757 60.8227 11.176L62.3126 13.8727C61.8565 14.2622 61.2788 14.5918 60.6402 14.9213C59.5456 15.4906 57.9949 16 56.0489 16C50.9103 16 47.7176 12.3146 47.7176 8ZM51.7617 6.29213H58.5118C58.4206 4.16479 57.1739 2.93633 55.5016 2.93633C53.5252 2.93633 52.1265 4.25468 51.7617 6.29213ZM72.5489 0C67.8968 0 64.6737 3.29588 64.6737 8C64.6737 12.3146 67.8664 16 73.005 16C74.951 16 76.5017 15.4906 77.5963 14.9213C78.2348 14.5918 78.8126 14.2622 79.2687 13.8727L77.7788 11.176C77.3835 11.4757 76.9578 11.7453 76.4713 11.985C75.6503 12.4345 74.5861 12.794 73.2787 12.794C70.9374 12.794 68.8698 11.3258 68.6265 8.53933H79.3599L79.4207 8.05992C79.4511 7.79026 79.4511 7.46067 79.4511 7.25094C79.4511 3.20599 77.0186 0 72.5489 0ZM75.4679 6.29213H68.7177C69.0826 4.25468 70.4813 2.93633 72.4577 2.93633C74.13 2.93633 75.3767 4.16479 75.4679 6.29213ZM95.1686 12.3146V10.5468H98.4525V11.4457C98.4525 12.4944 99.8816 13.0337 101.493 13.0337C103.044 13.0337 104.138 12.5243 104.138 11.4757C104.138 10.3194 102.906 9.89667 101.102 9.27783L101.102 9.27774L101.099 9.27671L101.096 9.27574L101.094 9.27503C100.937 9.22125 100.776 9.16598 100.611 9.10861C98.3613 8.29963 95.7159 7.31086 95.7159 4.37453C95.7159 1.13858 99.0302 0 101.828 0C104.078 0 107.422 0.868913 107.422 3.17603V5.1236H104.108V4.25468C104.108 3.44569 103.196 2.99625 101.828 2.99625C100.611 2.99625 99.5775 3.41573 99.5775 4.37453C99.5775 5.63296 101.098 6.17228 102.831 6.65169C105.203 7.37079 108 8.35955 108 11.3558C108 14.4719 105.02 16 101.463 16C98.6653 16 95.1686 14.8015 95.1686 12.3146ZM81.9626 15.6405V12.794H84.2126V3.86519C84.2126 3.41575 83.9998 3.20601 83.5437 3.20601H81.8105V0.359571H85.8546C87.2228 0.359571 87.9222 0.988786 87.9222 2.21725V3.11613C87.9222 3.38579 87.9222 3.59553 87.8918 3.80526C87.8614 3.89515 87.8614 3.98504 87.8614 4.07493H87.9222C88.6519 1.88766 90.4459 0.149835 92.848 0.149835C93.0608 0.149835 93.2128 0.149835 93.3345 0.179797C93.4257 0.209759 93.4865 0.209759 93.5473 0.209759V3.95508C93.4561 3.95508 93.3649 3.95508 93.2736 3.92511C93.0608 3.89515 92.8784 3.89515 92.6047 3.89515C89.4729 3.89515 88.0742 6.59178 88.0742 9.46818V12.794H90.2938V15.6405H81.9626ZM34.5119 12.794V15.6405H42.8432V12.794H40.6235V9.46818C40.6235 6.59178 42.0222 3.89515 45.154 3.89515C45.4277 3.89515 45.6101 3.89515 45.823 3.92511C45.9142 3.95508 46.0054 3.95508 46.0966 3.95508V0.209759C46.0358 0.209759 45.975 0.209759 45.8838 0.179797C45.7621 0.149835 45.6101 0.149835 45.3973 0.149835C42.9952 0.149835 41.2012 1.88766 40.4715 4.07493H40.4107C40.4107 3.98504 40.4107 3.89515 40.4411 3.80526C40.4715 3.59555 40.4715 3.38584 40.4715 3.11623V3.11613V2.21725C40.4715 0.988786 39.7721 0.359571 38.4039 0.359571H34.3599V3.20601H36.093C36.5491 3.20601 36.7619 3.41575 36.7619 3.86519V12.794H34.5119Z" fill="white"/>
</svg>
