<svg width="87" height="19" viewBox="0 0 87 19" fill="none" xmlns="http://www.w3.org/2000/svg">
<path fill-rule="evenodd" clip-rule="evenodd" d="M80.6734 18.9958C83.4578 18.9601 85.932 16.1713 86.9965 14.2907H87L85.3152 12.6174C84.1803 14.3979 82.4639 16.1391 81.4664 16.1391C79.6089 16.1391 79.8169 13.6292 81.981 7.39024H85.0051L85.8298 4.98403H82.841C83.3908 3.48596 84.0076 1.84845 84.7302 0H81.7061L79.8839 4.98403H78.1991L77.4096 7.39024H79.0591C78.6358 8.64246 78.2572 9.8606 77.9611 11.0077C75.9005 14.6503 73.7491 16.4186 70.6714 16.4186C68.8844 16.4186 67.6825 15.2352 67.6825 13.1078C67.6825 10.2869 69.4025 7.32292 71.2917 7.32292C72.5605 7.32292 73.0787 8.8925 72.3561 11.052H75.3802C76.4446 7.91285 75.0348 4.63783 71.6688 4.63783C68.0382 4.63783 65.037 8.2712 64.6654 12.5632C63.2254 14.7252 61.7242 16.1397 60.6778 16.1397C59.3033 16.1397 60.0575 13.805 63.2191 4.98464H60.2654L59.7156 6.51847C59.2327 5.54597 57.8582 4.63783 56.4166 4.63783C52.846 4.63783 49.9628 8.48658 49.478 12.7021C48.0638 14.7871 46.6215 16.1425 45.5973 16.1425C43.7399 16.1425 43.9478 13.6326 46.1119 7.39362H49.136L49.9608 4.98741H46.9719C47.5218 3.48934 48.1386 1.85183 48.8611 0.00337219H45.837L44.0148 4.98741H42.3301L41.5405 7.39362H43.1901C42.7449 8.71045 42.3492 9.9912 42.0472 11.1918C40.3769 14.0203 38.558 16.1353 37.28 16.1353C36.7655 16.1353 36.4553 15.8206 36.4553 15.2629C36.4553 14.4746 37.0332 13.3214 37.6625 12.0657C38.4232 10.5477 39.259 8.87987 39.2397 7.52583C39.208 5.78464 38.0731 4.63338 36.4236 4.63338C34.6014 4.63338 32.7122 5.78464 31.3376 7.9799L32.3668 4.98376H29.4449C28.9653 6.38886 28.4892 7.79705 28.0164 9.20737C26.9735 10.1574 25.5323 10.3676 24.2546 9.93649V9.69337C24.2546 7.18348 22.7778 4.63783 19.7537 4.63783C15.8416 4.63783 12.8827 8.31231 12.3498 12.5962C10.5734 15.1655 8.63908 16.4186 6.0482 16.4186C4.26124 16.4186 3.05934 15.2352 3.05934 13.1078C3.05934 10.2869 4.77933 7.32292 6.66851 7.32292C7.93736 7.32292 8.45548 8.8925 7.73294 11.052H10.757C11.8215 7.91285 10.4116 4.63783 7.04565 4.63783C3.16155 4.63783 0 8.78881 0 13.4582C0 16.9799 2.33681 19 5.42787 19C8.749 19 10.9278 17.6866 12.5272 15.8028C13.1156 17.7097 14.6585 19 16.8353 19C20.4093 19 22.9857 15.9681 23.9127 12.4464C24.986 12.6861 26.0667 12.551 27.0148 12.2133C26.305 14.3562 25.603 16.5025 24.9087 18.6487H27.9328C29.0995 14.151 31.9191 7.38997 35.0455 7.38997C35.768 7.38997 36.0077 7.80828 36.0077 8.46972C36.0077 9.28733 35.4763 10.353 34.893 11.523C34.183 12.9469 33.396 14.5254 33.396 15.9994L33.3995 15.9958C33.3995 17.7728 34.4639 18.992 36.3883 18.992C38.1954 18.992 40.0026 17.4601 41.4479 15.5951C41.5434 17.6793 42.4768 18.9992 44.8043 18.9992C46.5197 18.9992 48.2339 17.5865 49.6351 15.8228C50.1427 17.7541 51.4668 19 53.322 19C55.4192 19 56.5505 17.7451 57.2731 16.6653C57.4105 17.7093 58.1331 19 59.8848 19C61.6928 19 63.5008 17.4307 64.9412 15.5351C65.6774 17.7621 67.6349 19 70.0546 19C73.4878 19 75.7002 17.5965 77.3139 15.6102C77.413 17.6715 78.3399 18.9782 80.6381 18.9958H80.6734ZM21.234 9.86499C21.234 8.40267 20.6172 7.25141 19.3096 7.25141C17.1807 7.25141 15.2563 10.7374 15.2563 13.6298C15.2563 15.3388 16.0458 16.2434 17.216 16.2434C19.3131 16.2434 21.2375 12.7574 21.2375 9.86499H21.234ZM56.6563 7.35867C57.6855 7.35867 58.5807 7.98436 58.9578 8.82099V8.82456C57.548 13.6334 56.1417 16.1433 54.3195 16.1433C53.0471 16.1433 52.4303 14.992 52.4303 13.7371C52.4303 10.7052 54.1151 7.35867 56.6563 7.35867Z" fill="white"/>
</svg>
